<svg width="760" height="493" viewBox="0 0 760 493" fill="none" xmlns="http://www.w3.org/2000/svg">
<rect width="760" height="493" fill="#ACD4FC"/>
<mask id="mask0_245_496" style="mask-type:luminance" maskUnits="userSpaceOnUse" x="443" y="404" width="69" height="58">
<path d="M443 404.83H511.49V462H443V404.83Z" fill="white"/>
</mask>
<g mask="url(#mask0_245_496)">
<mask id="mask1_245_496" style="mask-type:luminance" maskUnits="userSpaceOnUse" x="441" y="400" width="74" height="68">
<path d="M446.742 400.883L514.46 406.163L509.642 467.958L441.924 462.678L446.742 400.883Z" fill="white"/>
</mask>
<g mask="url(#mask1_245_496)">
<mask id="mask2_245_496" style="mask-type:luminance" maskUnits="userSpaceOnUse" x="441" y="400" width="74" height="68">
<path d="M446.741 400.883L514.459 406.163L509.641 467.958L441.923 462.678L446.741 400.883Z" fill="white"/>
</mask>
<g mask="url(#mask2_245_496)">
<mask id="mask3_245_496" style="mask-type:luminance" maskUnits="userSpaceOnUse" x="441" y="400" width="74" height="68">
<path d="M446.74 400.883L514.458 406.163L509.64 467.958L441.922 462.678L446.74 400.883Z" fill="white"/>
</mask>
<g mask="url(#mask3_245_496)">
<path d="M461.295 426.562L451.217 408.891C449.751 406.32 452.992 403.662 455.243 405.593L471.223 419.29L474.957 408.434C475.848 405.849 479.611 406.159 480.069 408.852L481.942 419.894L497.161 411.516C499.664 410.141 502.277 413.15 500.55 415.418L490.508 428.605L509.386 433.671C512.253 434.44 511.869 438.613 508.906 438.843L489.121 440.39L493.594 450.331C494.642 452.655 492.102 454.957 489.877 453.701L480.872 448.609L476.772 455.525C475.649 457.42 472.828 457.188 472.027 455.136L469.224 447.934L447.551 461.318C444.964 462.914 442.16 459.609 444.172 457.334L460.318 439.079L453.536 434.473C451.832 433.315 452.053 430.746 453.93 429.894L461.293 426.562H461.295Z" fill="#F1C86C"/>
</g>
</g>
</g>
</g>
<mask id="mask4_245_496" style="mask-type:luminance" maskUnits="userSpaceOnUse" x="443" y="404" width="70" height="59">
<path d="M443 404.264H512.056V462.566H443V404.264Z" fill="white"/>
</mask>
<g mask="url(#mask4_245_496)">
<mask id="mask5_245_496" style="mask-type:luminance" maskUnits="userSpaceOnUse" x="441" y="400" width="74" height="68">
<path d="M446.742 400.883L514.46 406.163L509.642 467.958L441.924 462.678L446.742 400.883Z" fill="white"/>
</mask>
<g mask="url(#mask5_245_496)">
<mask id="mask6_245_496" style="mask-type:luminance" maskUnits="userSpaceOnUse" x="441" y="400" width="74" height="68">
<path d="M446.741 400.883L514.459 406.163L509.641 467.958L441.923 462.678L446.741 400.883Z" fill="white"/>
</mask>
<g mask="url(#mask6_245_496)">
<mask id="mask7_245_496" style="mask-type:luminance" maskUnits="userSpaceOnUse" x="441" y="400" width="74" height="68">
<path d="M446.74 400.883L514.458 406.163L509.64 467.958L441.922 462.678L446.74 400.883Z" fill="white"/>
</mask>
<g mask="url(#mask7_245_496)">
<path d="M445.923 462.11C445.806 462.101 445.691 462.086 445.576 462.061C444.915 461.929 444.302 461.56 443.847 461.022C443.391 460.487 443.13 459.822 443.106 459.152C443.082 458.402 443.351 457.686 443.887 457.08L459.746 439.15L453.321 434.788C452.406 434.167 451.915 433.136 452.01 432.035C452.105 430.936 452.762 430.005 453.772 429.548L460.755 426.388L450.887 409.08C450.016 407.554 450.615 406.062 451.594 405.259C452.574 404.457 454.159 404.16 455.492 405.303L471.045 418.636L474.596 408.31C474.835 407.618 475.275 407.063 475.87 406.705C476.409 406.38 477.059 406.232 477.707 406.285C478.355 406.338 478.974 406.59 479.452 406.999C479.98 407.448 480.325 408.069 480.447 408.79L482.231 419.302L496.976 411.185C498.46 410.367 499.933 410.931 500.731 411.853C501.531 412.772 501.878 414.305 500.855 415.649L491.155 428.387L509.484 433.304C511.187 433.76 511.83 435.235 511.713 436.495C511.598 437.755 510.694 439.086 508.938 439.223L489.691 440.729L493.945 450.175C494.491 451.389 494.206 452.748 493.22 453.642C492.234 454.535 490.85 454.688 489.689 454.033L481.013 449.127L477.103 455.72C476.511 456.72 475.423 457.283 474.262 457.193C474.258 457.193 474.253 457.193 474.249 457.193C473.084 457.095 472.095 456.361 471.673 455.276L469.035 448.501L447.754 461.641C447.174 462.002 446.546 462.161 445.921 462.112L445.923 462.11ZM453.701 405.314C453.069 405.266 452.488 405.516 452.081 405.847C451.402 406.404 450.858 407.486 451.552 408.704L461.834 426.737L454.088 430.242C453.334 430.585 452.841 431.279 452.773 432.102C452.702 432.924 453.067 433.693 453.752 434.158L460.892 439.007L444.461 457.586C443.568 458.595 443.802 459.791 444.43 460.531C445.058 461.272 446.206 461.701 447.351 460.994L469.413 447.369L472.387 454.999C472.708 455.824 473.426 456.359 474.311 456.432C474.315 456.432 474.317 456.432 474.322 456.432C475.202 456.501 475.996 456.089 476.444 455.333L480.736 448.094L490.067 453.37C491.119 453.965 492.121 453.609 492.707 453.078C493.293 452.545 493.742 451.585 493.246 450.487L488.55 440.055L508.879 438.465C510.28 438.354 510.873 437.298 510.953 436.424C511.032 435.551 510.645 434.403 509.285 434.038L489.859 428.827L500.247 415.189C501.065 414.114 500.707 412.987 500.154 412.35C499.599 411.711 498.533 411.198 497.348 411.85L481.656 420.487L479.693 408.916C479.476 407.64 478.454 407.11 477.645 407.043C477.643 407.043 477.641 407.043 477.638 407.043C476.829 406.979 475.741 407.338 475.321 408.558L471.403 419.947L454.995 405.88C454.568 405.516 454.124 405.348 453.701 405.314Z" fill="black"/>
</g>
</g>
</g>
</g>
<mask id="mask8_245_496" style="mask-type:luminance" maskUnits="userSpaceOnUse" x="443" y="402" width="70" height="58">
<path d="M443.566 402.566H512.056V459.735H443.566V402.566Z" fill="white"/>
</mask>
<g mask="url(#mask8_245_496)">
<mask id="mask9_245_496" style="mask-type:luminance" maskUnits="userSpaceOnUse" x="441" y="400" width="74" height="68">
<path d="M446.742 400.883L514.46 406.163L509.642 467.958L441.924 462.678L446.742 400.883Z" fill="white"/>
</mask>
<g mask="url(#mask9_245_496)">
<mask id="mask10_245_496" style="mask-type:luminance" maskUnits="userSpaceOnUse" x="441" y="400" width="74" height="68">
<path d="M446.741 400.883L514.459 406.163L509.641 467.958L441.923 462.678L446.741 400.883Z" fill="white"/>
</mask>
<g mask="url(#mask10_245_496)">
<mask id="mask11_245_496" style="mask-type:luminance" maskUnits="userSpaceOnUse" x="441" y="400" width="74" height="68">
<path d="M446.74 400.883L514.458 406.163L509.64 467.958L441.922 462.678L446.74 400.883Z" fill="white"/>
</mask>
<g mask="url(#mask11_245_496)">
<path d="M461.473 424.285L451.398 406.614C449.932 404.043 453.171 401.385 455.422 403.315L471.401 417.013L475.138 406.157C476.027 403.572 479.792 403.881 480.248 406.577L482.12 417.617L497.341 409.239C499.842 407.864 502.456 410.873 500.729 413.141L490.686 426.33L509.564 431.394C512.434 432.163 512.047 436.335 509.086 436.568L489.3 438.113L493.775 448.054C494.821 450.378 492.28 452.68 490.056 451.424L481.052 446.332L476.951 453.248C475.828 455.143 473.006 454.911 472.208 452.859L469.402 445.657L447.732 459.041C445.145 460.637 442.339 457.332 444.351 455.057L460.496 436.802L453.715 432.196C452.01 431.038 452.231 428.469 454.108 427.619L461.473 424.285Z" fill="white"/>
</g>
</g>
</g>
</g>
<mask id="mask12_245_496" style="mask-type:luminance" maskUnits="userSpaceOnUse" x="443" y="402" width="70" height="59">
<path d="M443 402H512.056V460.301H443V402Z" fill="white"/>
</mask>
<g mask="url(#mask12_245_496)">
<mask id="mask13_245_496" style="mask-type:luminance" maskUnits="userSpaceOnUse" x="441" y="400" width="74" height="68">
<path d="M446.742 400.883L514.46 406.163L509.642 467.958L441.924 462.678L446.742 400.883Z" fill="white"/>
</mask>
<g mask="url(#mask13_245_496)">
<mask id="mask14_245_496" style="mask-type:luminance" maskUnits="userSpaceOnUse" x="441" y="400" width="74" height="68">
<path d="M446.741 400.883L514.459 406.163L509.641 467.958L441.923 462.678L446.741 400.883Z" fill="white"/>
</mask>
<g mask="url(#mask14_245_496)">
<mask id="mask15_245_496" style="mask-type:luminance" maskUnits="userSpaceOnUse" x="441" y="400" width="74" height="68">
<path d="M446.74 400.883L514.458 406.163L509.64 467.958L441.922 462.678L446.74 400.883Z" fill="white"/>
</mask>
<g mask="url(#mask15_245_496)">
<path d="M446.099 459.832C445.984 459.823 445.867 459.808 445.752 459.783C445.09 459.651 444.478 459.281 444.023 458.744C443.569 458.209 443.306 457.546 443.284 456.874C443.257 456.124 443.527 455.408 444.062 454.802L459.922 436.872L453.499 432.51C452.582 431.889 452.091 430.858 452.186 429.759C452.281 428.658 452.94 427.727 453.948 427.27L460.933 424.11L451.063 406.802C450.194 405.276 450.791 403.784 451.77 402.981C452.75 402.181 454.335 401.882 455.668 403.025L471.221 416.358L474.774 406.035C475.011 405.34 475.453 404.785 476.048 404.427C476.585 404.102 477.237 403.952 477.885 404.007C478.531 404.06 479.15 404.312 479.63 404.721C480.158 405.17 480.501 405.791 480.625 406.512L482.407 417.024L497.154 408.907C498.638 408.091 500.108 408.652 500.909 409.574C501.707 410.494 502.056 412.027 501.03 413.371L491.333 426.109L509.66 431.026C511.363 431.482 512.006 432.956 511.889 434.217C511.774 435.477 510.87 436.808 509.114 436.947L489.869 438.451L494.121 447.899C494.667 449.111 494.382 450.47 493.398 451.364C492.412 452.257 491.025 452.409 489.867 451.755L481.188 446.849L477.279 453.442C476.687 454.441 475.599 455.005 474.438 454.915C474.434 454.915 474.429 454.915 474.425 454.915C473.259 454.82 472.273 454.083 471.849 452.998L469.211 446.223L447.932 459.365C447.35 459.724 446.722 459.883 446.099 459.834V459.832ZM453.877 403.036C453.245 402.988 452.663 403.238 452.257 403.571C451.58 404.126 451.034 405.208 451.728 406.426L462.012 424.459L454.266 427.964C453.512 428.307 453.019 429.001 452.949 429.823C452.878 430.646 453.245 431.415 453.93 431.88L461.07 436.729L444.637 455.308C443.746 456.316 443.98 457.515 444.608 458.253C445.234 458.994 446.382 459.423 447.527 458.715L469.591 445.091L472.563 452.721C472.884 453.546 473.604 454.081 474.487 454.154C474.491 454.154 474.495 454.154 474.498 454.154C475.378 454.223 476.171 453.813 476.62 453.055L480.912 445.816L490.243 451.092C491.295 451.686 492.297 451.33 492.883 450.8C493.469 450.267 493.92 449.307 493.424 448.208L488.726 437.777L509.054 436.187C510.456 436.076 511.049 435.019 511.128 434.146C511.21 433.275 510.821 432.125 509.463 431.76L490.037 426.549L500.422 412.911C501.241 411.836 500.885 410.711 500.33 410.072C499.777 409.435 498.709 408.92 497.524 409.572L481.832 418.209L479.871 406.638C479.654 405.362 478.632 404.832 477.823 404.765C477.014 404.699 475.919 405.057 475.497 406.28L471.579 417.669L455.171 403.602C454.744 403.238 454.3 403.069 453.877 403.036Z" fill="black"/>
</g>
</g>
</g>
</g>
<mask id="mask16_245_496" style="mask-type:luminance" maskUnits="userSpaceOnUse" x="447" y="406" width="62" height="51">
<path d="M447.528 406.528H508.094V456.339H447.528V406.528Z" fill="white"/>
</mask>
<g mask="url(#mask16_245_496)">
<mask id="mask17_245_496" style="mask-type:luminance" maskUnits="userSpaceOnUse" x="441" y="400" width="74" height="68">
<path d="M446.742 400.883L514.46 406.163L509.642 467.958L441.924 462.678L446.742 400.883Z" fill="white"/>
</mask>
<g mask="url(#mask17_245_496)">
<mask id="mask18_245_496" style="mask-type:luminance" maskUnits="userSpaceOnUse" x="441" y="400" width="74" height="68">
<path d="M446.742 400.883L514.46 406.163L509.642 467.958L441.924 462.678L446.742 400.883Z" fill="white"/>
</mask>
<g mask="url(#mask18_245_496)">
<mask id="mask19_245_496" style="mask-type:luminance" maskUnits="userSpaceOnUse" x="441" y="400" width="74" height="68">
<path d="M446.741 400.884L514.459 406.164L509.641 467.958L441.923 462.678L446.741 400.884Z" fill="white"/>
</mask>
<g mask="url(#mask19_245_496)">
<path d="M466.791 427.005L455.26 406.787L473.293 422.242L477.95 408.709L480.311 422.638L497.449 413.208L485.923 428.345L507.994 434.266L485.014 436.064L490.111 447.38L479.612 441.446L475.113 449.036L471.982 441.003L447.826 455.919L466.149 435.204L459.162 430.459L466.791 427.005Z" fill="#8599BA"/>
</g>
</g>
</g>
</g>
<mask id="mask20_245_496" style="mask-type:luminance" maskUnits="userSpaceOnUse" x="30" y="29" width="110" height="43">
<path d="M30 29H140V71.8742H30V29Z" fill="white"/>
</mask>
<g mask="url(#mask20_245_496)">
<path d="M130.841 53.9314C134.193 47.4573 126.789 40.8482 116.251 40.5782C116.138 37.4012 114.353 34.0241 111.206 31.6744C105.85 27.6775 98.7731 28.3149 96.1935 33.2342C88.7545 29.6647 79.9457 33.0593 76.0962 41.4181C76.0712 41.4481 76.0462 41.4781 76.0212 41.5056C69.9795 39.0834 62.663 41.5231 60.4783 46.6824C49.0049 40.4458 30.1475 45.1726 30.1475 54.0039C30.1475 61.7828 45.2254 66.8122 57.2863 62.7077C61.9506 71.8565 72.4567 73.7737 75.8537 66.2972C80.4931 71.7815 87.4946 73.1938 93.3438 70.3892C98.0732 72.6564 103.785 72.2439 108.382 68.6644C119.503 75.116 139.877 70.9191 139.877 62.2178C139.877 58.6783 136.243 55.5887 130.841 53.9314Z" fill="#E3F2FF"/>
</g>
<path d="M131.643 50.7544C129.338 47.5549 123.674 45.2577 116.973 45.1127C116.858 42.3531 115.028 39.421 111.806 37.3812C106.324 33.9167 99.0751 34.4566 96.4179 38.7361C88.774 35.6315 79.7552 38.5961 75.8232 45.8426C75.7932 45.8676 75.7707 45.8926 75.7432 45.9176C69.6591 43.8554 62.0976 45.8476 59.8129 50.412C50.4467 46.1051 35.1588 47.7048 30.1895 53.3266C31.1693 44.8402 49.4118 40.6658 60.4753 46.6825C62.675 41.4982 70.014 39.096 76.0232 41.5082C76.0457 41.4782 76.0732 41.4457 76.0957 41.4182C79.9627 33.0168 88.7915 29.6823 96.193 33.2343C98.7551 28.3325 105.832 27.6626 111.206 31.6745C114.353 34.0242 116.138 37.4012 116.25 40.5783C124.809 40.7983 131.643 45.2677 131.643 50.7544Z" fill="white"/>
<mask id="mask21_245_496" style="mask-type:luminance" maskUnits="userSpaceOnUse" x="30" y="52" width="110" height="20">
<path d="M30 52.6768H140V71.8741H30V52.6768Z" fill="white"/>
</mask>
<g mask="url(#mask21_245_496)">
<path d="M139.878 62.2179C139.878 70.8367 119.611 75.1761 108.385 68.6645C103.783 72.244 98.0741 72.6565 93.3447 70.3893C87.4955 73.1964 80.4915 71.7791 75.8521 66.2974C72.4951 73.7063 62.029 71.9566 57.2871 62.7078C44.6339 67.0148 28.761 61.2505 30.2408 52.9617C31.5907 57.0736 46.2537 59.2358 57.2871 57.1686C61.959 62.1979 72.4726 63.2378 75.8521 59.1383C80.614 62.2279 87.6505 62.8828 93.3447 61.3855C98.1141 62.6379 103.813 62.3929 108.385 60.4382C111.695 61.493 117.416 64.6451 122.721 64.6451C130.5 64.6451 136.556 61.718 138.864 59.0508C139.518 60.0407 139.878 61.1056 139.878 62.2179Z" fill="#B6D5F0"/>
</g>
<path d="M131.641 50.652C131.641 50.5995 131.641 50.547 131.639 50.4995C131.646 50.5445 131.644 50.627 131.641 50.652Z" fill="#B6D5F0"/>
<path d="M126.817 67.6322C119.578 68.5346 109.512 63.6228 105.782 57.3911C111.411 62.2854 119.488 66.2199 126.817 67.6322Z" fill="#B6D5F0"/>
<path d="M64.263 53.6616C61.3109 58.6759 53.837 60.8556 48.6602 58.236C54.0119 58.6859 60.0036 56.9287 64.263 53.6616Z" fill="#B6D5F0"/>
<path d="M101.92 57.4612C97.6132 64.2803 89.7243 64.2553 85.4424 57.4612C90.5167 60.7757 96.8458 60.7757 101.92 57.4612Z" fill="#B6D5F0"/>
<path d="M110.162 43.7104C105.855 50.527 97.9636 50.502 93.6816 43.7104C98.7584 47.025 105.085 47.025 110.162 43.7104Z" fill="#B6D5F0"/>
<path fill-rule="evenodd" clip-rule="evenodd" d="M441.201 53.304C421.198 47.6476 415.629 70.6699 448.889 60.2094C454.214 63.1711 460.373 63.9199 468.012 60.7562C476.254 63.7619 483.025 63.3214 488.728 60.3778C495.001 62.5907 501.35 63.5054 507.923 60.6318C511.693 63.2436 515.52 62.7176 519.381 60.4323C532 63.083 532.884 57.2477 526.686 56.9964C523.947 52.7702 522.156 52.6433 518.086 54.1047C517.132 49.7282 514.888 48.342 511.393 49.8526C512.486 43.0405 509.618 41.0583 503.982 42.4497C505.125 26.0763 487.16 23.9023 478.597 34.4845C467.19 29.9811 459.469 34.513 461.075 43.126C458.546 43.139 456.497 43.7453 455.764 45.9892C449.28 45.6938 443.189 47.6942 441.201 53.304Z" fill="white"/>
<mask id="mask22_245_496" style="mask-type:luminance" maskUnits="userSpaceOnUse" x="425" y="44" width="106" height="20">
<path d="M425 44.5305H530.436V63.0002H425V44.5305Z" fill="white"/>
</mask>
<g mask="url(#mask22_245_496)">
<mask id="mask23_245_496" style="mask-type:luminance" maskUnits="userSpaceOnUse" x="425" y="28" width="106" height="35">
<path fill-rule="evenodd" clip-rule="evenodd" d="M441.201 53.304C421.198 47.6476 415.629 70.6699 448.889 60.2094C454.214 63.1711 460.373 63.9199 468.012 60.7562C476.254 63.7619 483.025 63.3214 488.728 60.3778C495.001 62.5907 501.35 63.5054 507.923 60.6318C511.693 63.2436 515.52 62.7176 519.381 60.4323C532 63.083 532.884 57.2477 526.686 56.9964C523.947 52.7702 522.156 52.6433 518.086 54.1047C517.132 49.7282 514.888 48.342 511.393 49.8526C512.486 43.0405 509.618 41.0583 503.982 42.4497C505.125 26.0763 487.16 23.9023 478.597 34.4845C467.19 29.9811 459.469 34.513 461.075 43.126C458.546 43.139 456.497 43.7453 455.764 45.9892C449.28 45.6938 443.189 47.6942 441.201 53.304Z" fill="white"/>
</mask>
<g mask="url(#mask23_245_496)">
<path fill-rule="evenodd" clip-rule="evenodd" d="M428.157 53.4515C428.395 53.0317 428.18 54.4439 428.374 54.8844C430.043 58.7037 433.624 59.6417 437.485 58.9862C440.809 58.4213 444.486 56.4365 447.881 56.6386C451.547 56.8563 453.853 59.7583 457.952 58.9732C460.943 58.4032 467.325 52.9618 467.358 52.9592C470.237 52.7597 474.471 57.39 480.48 55.9131C485.211 54.7471 485.372 49.7358 483.019 46.3673C482.921 46.2248 482.208 45.4215 482.454 45.2246C483.239 44.595 487.289 48.2588 488.619 48.2588C490.826 48.2588 493.052 47.4012 495.267 47.2483C495.332 47.2431 496.25 47.1757 496.221 47.3234C496.2 47.4426 495.778 47.5515 495.692 47.5826C492.775 48.6579 483.991 52.4928 490.697 55.7965C494.684 57.7606 498.944 54.5942 502.865 54.1071C505.648 53.7598 505.969 57.1413 508.304 57.9368C511.47 59.0147 514.958 57.9705 518.202 58.1207C520.731 58.2373 522.78 59.2816 525.12 60.0693C526.859 60.6575 536.055 59.4733 535.257 62.4454C534.303 65.9978 510.242 67.6898 507.233 67.8686C485.538 69.1409 462.614 71.5662 441.151 67.0602C433.912 65.5392 421.332 61.9634 420.179 52.9022" fill="#F1E8E8"/>
</g>
</g>
<mask id="mask24_245_496" style="mask-type:luminance" maskUnits="userSpaceOnUse" x="10" y="403" width="75" height="78">
<path d="M10 403H84.9589V480.434H10V403Z" fill="white"/>
</mask>
<g mask="url(#mask24_245_496)">
<path d="M58.9199 480.431C53.1659 480.431 47.6993 478.252 43.5281 474.296C40.0144 470.959 37.7134 466.644 36.9013 461.946C35.4179 462.252 33.9069 462.407 32.3821 462.407C28.1557 462.407 24.026 461.216 20.4405 458.96C16.761 456.642 13.8551 453.322 12.043 449.352C10.7916 446.612 10.1121 443.709 10.0292 440.723C9.94911 437.836 10.4215 434.999 11.438 432.284C12.4518 429.571 13.9573 427.115 15.9102 424.991C17.9323 422.787 20.3493 421.038 23.0951 419.787C26.0342 418.447 29.1502 417.767 32.3572 417.767C35.2605 417.767 38.1388 418.339 40.821 419.433C41.1802 418.129 41.658 416.859 42.2492 415.632C44.111 411.776 47.0142 408.555 50.6495 406.323C54.188 404.149 58.2487 403 62.3922 403C65.7622 403 69.0218 403.746 72.0797 405.215C74.7951 406.525 77.1762 408.326 79.1513 410.569C81.0601 412.734 82.5131 415.221 83.4716 417.955C84.4274 420.69 84.8417 423.538 84.7008 426.419C84.5544 429.405 83.8169 432.295 82.5075 435.007C80.9054 438.325 78.5546 441.148 75.6265 443.294C77.0768 444.921 78.2729 446.744 79.201 448.739C80.5684 451.686 81.2645 454.844 81.2645 458.117C81.2645 461.128 80.6733 464.051 79.5076 466.802C78.3806 469.459 76.7702 471.846 74.7177 473.895C72.6681 475.945 70.2787 477.553 67.6158 478.677C64.8617 479.84 61.9336 480.431 58.9171 480.431H58.9199Z" fill="white"/>
</g>
<path d="M82.5783 425.32C82.5783 425.98 82.5451 426.637 82.4788 427.295C82.4153 427.952 82.3186 428.607 82.1888 429.253C82.059 429.903 81.8988 430.541 81.7082 431.173C81.5148 431.806 81.2938 432.427 81.0397 433.038C80.7855 433.648 80.5038 434.245 80.1916 434.828C79.8795 435.411 79.5397 435.974 79.1723 436.524C78.8049 437.074 78.4127 437.604 77.9928 438.115C77.5729 438.626 77.1282 439.115 76.6614 439.582C76.1945 440.049 75.7056 440.491 75.1918 440.91C74.6808 441.33 74.1504 441.723 73.6007 442.09C73.051 442.457 72.4847 442.794 71.9018 443.107C71.319 443.419 70.7196 443.7 70.1091 443.955C69.4986 444.206 68.8771 444.427 68.2445 444.62C67.6092 444.811 66.9683 444.971 66.3219 445.101C65.6728 445.231 65.0181 445.327 64.3606 445.391C63.7032 445.457 63.043 445.488 62.3801 445.488C61.7199 445.488 61.0597 445.457 60.4022 445.391C59.742 445.327 59.0901 445.231 58.441 445.101C57.7918 444.971 57.1509 444.811 56.5184 444.62C55.8858 444.427 55.2643 444.206 54.651 443.952C54.0405 443.7 53.4439 443.419 52.861 443.107C52.2754 442.794 51.7091 442.457 51.1594 442.09C50.6097 441.723 50.0793 441.33 49.5683 440.91C49.0573 440.491 48.5683 440.049 48.0987 439.582C47.6319 439.115 47.1872 438.626 46.7673 438.115C46.3502 437.604 45.9552 437.074 45.5878 436.524C45.2204 435.974 44.8806 435.411 44.5685 434.828C44.2563 434.245 43.9746 433.648 43.7204 433.038C43.4691 432.427 43.2453 431.806 43.0547 431.173C42.8613 430.541 42.7011 429.903 42.5713 429.253C42.4442 428.607 42.3475 427.952 42.2813 427.295C42.2177 426.637 42.1846 425.98 42.1846 425.32C42.1846 424.66 42.2177 423.999 42.2813 423.342C42.3475 422.685 42.4442 422.033 42.5713 421.383C42.7011 420.737 42.8613 420.096 43.0547 419.464C43.2453 418.831 43.4691 418.21 43.7204 417.602C43.9746 416.991 44.2563 416.395 44.5685 415.812C44.8806 415.229 45.2204 414.663 45.5878 414.113C45.9552 413.563 46.3502 413.036 46.7673 412.525C47.1872 412.014 47.6319 411.525 48.0987 411.058C48.5683 410.591 49.0573 410.146 49.5683 409.729C50.0793 409.309 50.6097 408.917 51.1594 408.55C51.7091 408.182 52.2754 407.842 52.861 407.53C53.4439 407.221 54.0405 406.939 54.651 406.685C55.2643 406.431 55.8858 406.21 56.5184 406.019C57.1509 405.826 57.7918 405.666 58.441 405.536C59.0901 405.409 59.742 405.312 60.4022 405.246C61.0597 405.182 61.7199 405.149 62.3801 405.149C63.043 405.149 63.7032 405.182 64.3606 405.246C65.0181 405.312 65.6728 405.409 66.3219 405.536C66.9683 405.666 67.6092 405.826 68.2445 406.019C68.8771 406.21 69.4986 406.431 70.1091 406.685C70.7196 406.939 71.319 407.221 71.9018 407.53C72.4847 407.842 73.051 408.182 73.6007 408.55C74.1504 408.917 74.6808 409.309 75.1918 409.729C75.7056 410.146 76.1945 410.591 76.6614 411.058C77.1282 411.525 77.5729 412.014 77.9928 412.525C78.4127 413.036 78.8049 413.563 79.1723 414.113C79.5397 414.663 79.8795 415.229 80.1916 415.812C80.5038 416.395 80.7855 416.991 81.0397 417.602C81.2938 418.21 81.5148 418.831 81.7082 419.464C81.8988 420.096 82.059 420.737 82.1888 421.383C82.3186 422.033 82.4153 422.685 82.4788 423.342C82.5451 423.999 82.5783 424.66 82.5783 425.32Z" fill="#AF7BA9"/>
<path d="M62.3798 445.653C62.0456 445.653 61.7113 445.645 61.3743 445.629C58.6534 445.496 56.0181 444.825 53.5431 443.634C51.068 442.441 48.8996 440.803 47.0985 438.759C45.361 436.786 44.0351 434.521 43.1622 432.03C42.2921 429.535 41.9136 426.941 42.0435 424.314C42.1761 421.596 42.8473 418.966 44.0406 416.494C45.234 414.019 46.8776 411.856 48.9217 410.058C50.8995 408.32 53.1674 407 55.6618 406.127C58.159 405.257 60.7556 404.878 63.3853 405.008C66.1062 405.141 68.7443 405.812 71.2193 407.005C73.6944 408.196 75.8628 409.837 77.6611 411.881C79.4014 413.853 80.7245 416.118 81.5974 418.61C82.4703 421.102 82.846 423.698 82.7189 426.323C82.5863 429.041 81.9123 431.673 80.719 434.145C79.5257 436.618 77.8848 438.783 75.8379 440.582C73.8629 442.316 71.595 443.64 69.0978 444.51C66.9211 445.269 64.6643 445.653 62.3798 445.653ZM62.413 405.312C54.9519 405.312 47.7808 409.486 44.3307 416.632C39.5353 426.571 43.7313 438.554 53.6812 443.344C63.6339 448.134 75.6335 443.944 80.429 434.005C85.2244 424.066 81.0311 412.085 71.0784 407.296C68.2829 405.95 65.3245 405.312 62.413 405.312Z" fill="black"/>
<path d="M61.0156 412C61.1564 412.066 61.278 412.163 61.3857 412.29C61.4907 412.42 61.5791 412.574 61.6481 412.759C61.7172 412.942 61.7669 413.152 61.7973 413.384C61.8277 413.618 61.836 413.87 61.8249 414.143C61.8139 414.417 61.7835 414.704 61.7338 415.008C61.6813 415.309 61.6122 415.621 61.5238 415.942C61.4327 416.262 61.3277 416.585 61.2034 416.914C61.0791 417.24 60.9382 417.563 60.7863 417.881C60.6316 418.201 60.4659 418.511 60.2863 418.812C60.1095 419.11 59.9217 419.397 59.7255 419.665C59.5294 419.936 59.3305 420.185 59.1234 420.411C58.9189 420.64 58.7118 420.845 58.5046 421.022C58.2974 421.201 58.093 421.353 57.8941 421.475C57.6925 421.596 57.4963 421.687 57.3113 421.748C57.1234 421.809 56.9466 421.836 56.7809 421.834C56.6124 421.831 56.4605 421.795 56.3223 421.729C56.1842 421.66 56.0599 421.563 55.955 421.436C55.8472 421.309 55.7616 421.151 55.6898 420.966C55.6207 420.784 55.571 420.574 55.5434 420.342C55.513 420.11 55.5019 419.856 55.513 419.582C55.524 419.309 55.5544 419.022 55.6069 418.718C55.6566 418.417 55.7257 418.105 55.8168 417.784C55.9052 417.464 56.013 417.14 56.1373 416.815C56.2616 416.486 56.3997 416.165 56.5544 415.845C56.7063 415.524 56.8748 415.215 57.0516 414.914C57.2312 414.616 57.4162 414.331 57.6124 414.06C57.8085 413.793 58.0101 413.541 58.2145 413.315C58.419 413.085 58.6261 412.881 58.8333 412.704C59.0405 412.525 59.2449 412.375 59.4466 412.254C59.6454 412.13 59.8416 412.038 60.0294 411.98C60.2145 411.92 60.3913 411.889 60.5598 411.892C60.7255 411.898 60.8774 411.931 61.0156 412Z" fill="black"/>
<path d="M56.8079 421.997C56.609 421.997 56.424 421.955 56.2527 421.872C55.6256 421.571 55.3052 420.756 55.3522 419.577C55.3964 418.444 55.772 417.094 56.4074 415.776C57.0455 414.458 57.8687 413.323 58.7278 412.583C59.6228 411.812 60.4597 411.552 61.0868 411.853C61.7138 412.157 62.0343 412.972 61.9873 414.152C61.9431 415.284 61.5674 416.635 60.9321 417.953C60.294 419.27 59.4708 420.406 58.6117 421.146C57.9598 421.707 57.3383 421.997 56.8079 421.997ZM60.5343 412.055C60.0813 412.055 59.5233 412.32 58.9377 412.826C58.1118 413.538 57.3162 414.635 56.6974 415.914C56.0814 417.196 55.7168 418.5 55.6754 419.591C55.6339 420.618 55.8964 421.345 56.3908 421.582C56.888 421.823 57.6201 421.574 58.4018 420.903C59.2277 420.19 60.0233 419.094 60.6393 417.812C61.2581 416.533 61.6227 415.229 61.6641 414.138C61.7056 413.11 61.4431 412.384 60.9459 412.143C60.8244 412.085 60.6863 412.055 60.5343 412.055Z" fill="black"/>
<path d="M74.1469 418.477C74.285 418.544 74.4093 418.64 74.5143 418.77C74.622 418.897 74.7077 419.052 74.7795 419.237C74.8485 419.422 74.8983 419.629 74.9259 419.861C74.9563 420.096 74.9673 420.348 74.9563 420.621C74.9452 420.895 74.9148 421.182 74.8624 421.486C74.8126 421.79 74.7408 422.099 74.6524 422.419C74.564 422.743 74.4563 423.066 74.332 423.392C74.2077 423.718 74.0696 424.041 73.9149 424.358C73.7602 424.679 73.5944 424.988 73.4176 425.289C73.2381 425.591 73.053 425.875 72.8569 426.143C72.6608 426.414 72.4591 426.662 72.2547 426.892C72.0503 427.118 71.8431 427.322 71.6359 427.502C71.4288 427.679 71.2243 427.831 71.0227 427.952C70.821 428.074 70.6277 428.165 70.4398 428.226C70.252 428.287 70.0752 428.314 69.9095 428.311C69.7437 428.309 69.5918 428.273 69.4537 428.206C69.3128 428.14 69.1913 428.041 69.0835 427.914C68.9786 427.787 68.8902 427.629 68.8211 427.447C68.7521 427.262 68.7023 427.055 68.6719 426.82C68.6416 426.588 68.6333 426.334 68.6443 426.06C68.6554 425.789 68.6858 425.499 68.7355 425.198C68.788 424.894 68.857 424.582 68.9454 424.262C69.0366 423.941 69.1415 423.618 69.2658 423.292C69.3902 422.966 69.531 422.643 69.683 422.323C69.8377 422.005 70.0034 421.693 70.1829 421.395C70.3597 421.093 70.5476 420.809 70.7437 420.538C70.9398 420.27 71.1387 420.022 71.3459 419.792C71.5503 419.563 71.7575 419.361 71.9647 419.182C72.1718 419.002 72.3762 418.853 72.5751 418.732C72.7768 418.61 72.9701 418.519 73.158 418.458C73.3458 418.397 73.5226 418.37 73.6884 418.373C73.8569 418.375 74.0088 418.411 74.1469 418.477Z" fill="black"/>
<path d="M69.9407 428.474C69.7419 428.474 69.554 428.433 69.3827 428.353C68.7585 428.052 68.438 427.234 68.485 426.057C68.5292 424.925 68.9049 423.574 69.5402 422.254C70.1755 420.936 71.0015 419.801 71.8606 419.06C72.7556 418.29 73.5926 418.033 74.2196 418.334C74.8467 418.635 75.1643 419.45 75.1201 420.629C75.0732 421.762 74.7003 423.113 74.0622 424.43C73.4268 425.751 72.6036 426.883 71.7418 427.624C71.0926 428.184 70.4711 428.474 69.9407 428.474ZM73.6671 418.536C73.2141 418.536 72.6561 418.801 72.0705 419.303C71.2446 420.016 70.449 421.116 69.8302 422.395C69.2142 423.674 68.8496 424.98 68.8054 426.068C68.7667 427.096 69.0264 427.823 69.5236 428.063C70.0208 428.3 70.7529 428.052 71.5319 427.381C72.3578 426.668 73.1533 425.571 73.7721 424.292C74.3909 423.011 74.7527 421.707 74.7969 420.616C74.8384 419.588 74.576 418.862 74.0787 418.624C73.9544 418.563 73.8163 418.536 73.6671 418.536Z" fill="black"/>
<path d="M63.153 438.394C62.2165 438.394 61.2829 438.303 60.3575 438.126C58.9708 437.858 57.6393 437.397 56.3963 436.756C54.0179 435.529 52.0925 433.703 50.8246 431.477C50.1561 430.303 49.6783 429.027 49.4048 427.684C49.1147 426.27 49.0512 424.781 49.2169 423.251C49.228 423.162 49.3053 423.099 49.3937 423.11C49.4821 423.118 49.5484 423.198 49.5374 423.287C48.9241 428.961 51.5456 433.889 56.5454 436.471C58.6421 437.551 60.8961 438.082 63.1281 438.082C66.5175 438.082 69.8572 436.864 72.5311 434.502C72.5974 434.444 72.6996 434.449 72.7576 434.516C72.8184 434.585 72.8101 434.684 72.7438 434.745C70.4345 436.783 67.6197 438.021 64.6032 438.322C64.1225 438.369 63.6364 438.394 63.153 438.394Z" fill="black"/>
<path d="M47.3525 422.85C48.7475 423.375 50.1038 423.469 51.4242 423.143Z" fill="#AF7BA9"/>
<path d="M49.8819 423.491C49.0311 423.491 48.1665 423.328 47.2964 423.002C47.2135 422.969 47.1693 422.878 47.2025 422.795C47.2329 422.709 47.3268 422.668 47.4097 422.698C48.7604 423.207 50.0974 423.303 51.3874 422.986C51.4731 422.966 51.5587 423.019 51.5808 423.104C51.6029 423.19 51.5504 423.278 51.462 423.301C50.9427 423.428 50.4151 423.491 49.8819 423.491Z" fill="black"/>
<path d="M74.4183 435.797C73.1393 435.032 72.2194 434.032 71.6504 432.797Z" fill="#AF7BA9"/>
<path d="M74.4175 435.958C74.3871 435.958 74.3595 435.949 74.3346 435.936C73.0391 435.162 72.086 434.129 71.5032 432.864C71.4673 432.784 71.5032 432.69 71.5833 432.651C71.6634 432.615 71.7601 432.648 71.796 432.731C72.3512 433.933 73.26 434.919 74.5003 435.659C74.5749 435.703 74.5998 435.803 74.5556 435.877C74.5252 435.93 74.4727 435.958 74.4175 435.958Z" fill="black"/>
<path d="M52.5677 440.087C52.5677 440.75 52.5373 441.408 52.471 442.065C52.4075 442.723 52.3081 443.374 52.181 444.024C52.0512 444.67 51.8909 445.311 51.6976 445.943C51.507 446.576 51.2832 447.198 51.0319 447.808C50.7777 448.419 50.496 449.012 50.1838 449.595C49.8717 450.178 49.5319 450.744 49.1645 451.294C48.7971 451.844 48.4049 452.374 47.985 452.885C47.5651 453.393 47.1204 453.882 46.6535 454.349C46.1839 454.819 45.695 455.261 45.184 455.681C44.6729 456.098 44.1426 456.493 43.5929 456.857C43.0432 457.225 42.4769 457.565 41.8913 457.877C41.3084 458.189 40.7117 458.471 40.1013 458.722C39.4908 458.976 38.8665 459.197 38.2339 459.391C37.6013 459.581 36.9605 459.741 36.3113 459.871C35.6622 459.998 35.0103 460.095 34.3528 460.161C33.6926 460.225 33.0324 460.258 32.3722 460.258C31.7093 460.258 31.0518 460.225 30.3916 460.161C29.7342 460.095 29.0795 459.998 28.4331 459.871C27.784 459.741 27.1431 459.581 26.5105 459.391C25.8752 459.197 25.2537 458.976 24.6432 458.722C24.0327 458.471 23.4361 458.189 22.8504 457.877C22.2676 457.565 21.7013 457.225 21.1516 456.857C20.6019 456.493 20.0715 456.098 19.5605 455.681C19.0495 455.261 18.5578 454.819 18.0909 454.349C17.6241 453.882 17.1794 453.393 16.7595 452.885C16.3396 452.374 15.9474 451.844 15.58 451.294C15.2126 450.744 14.8728 450.178 14.5607 449.595C14.2485 449.012 13.9668 448.419 13.7126 447.808C13.4585 447.198 13.2375 446.576 13.0441 445.943C12.8535 445.311 12.6933 444.67 12.5635 444.024C12.4337 443.374 12.337 442.723 12.2734 442.065C12.2071 441.408 12.1768 440.75 12.1768 440.087C12.1768 439.427 12.2071 438.77 12.2734 438.112C12.337 437.455 12.4337 436.803 12.5635 436.154C12.6933 435.505 12.8535 434.866 13.0441 434.234C13.2375 433.601 13.4585 432.98 13.7126 432.369C13.9668 431.759 14.2485 431.162 14.5607 430.582C14.8728 429.999 15.2126 429.433 15.58 428.883C15.9474 428.334 16.3396 427.803 16.7595 427.292C17.1794 426.784 17.6241 426.295 18.0909 425.825C18.5578 425.358 19.0495 424.917 19.5605 424.497C20.0715 424.08 20.6019 423.685 21.1516 423.317C21.7013 422.952 22.2676 422.613 22.8504 422.301C23.4361 421.988 24.0327 421.707 24.6432 421.455C25.2537 421.201 25.8752 420.98 26.5105 420.787C27.1431 420.596 27.784 420.436 28.4331 420.306C29.0795 420.179 29.7342 420.08 30.3916 420.016C31.0518 419.953 31.7093 419.919 32.3722 419.919C33.0324 419.919 33.6926 419.953 34.3528 420.016C35.0103 420.082 35.6622 420.179 36.3113 420.306C36.9605 420.436 37.6013 420.596 38.2339 420.787C38.8665 420.98 39.4908 421.201 40.1013 421.455C40.7117 421.707 41.3084 421.988 41.8913 422.301C42.4769 422.613 43.0432 422.952 43.5929 423.317C44.1426 423.685 44.6729 424.08 45.184 424.497C45.695 424.917 46.1839 425.358 46.6535 425.825C47.1204 426.295 47.5651 426.784 47.985 427.292C48.4049 427.803 48.7971 428.334 49.1645 428.883C49.5319 429.433 49.8717 429.999 50.1838 430.582C50.496 431.162 50.7777 431.759 51.0319 432.369C51.2832 432.98 51.507 433.601 51.6976 434.234C51.8909 434.866 52.0512 435.505 52.181 436.154C52.3081 436.803 52.4075 437.455 52.471 438.112C52.5373 438.77 52.5677 439.427 52.5677 440.087Z" fill="#F1C86C"/>
<path d="M32.3749 460.424C29.9413 460.424 27.5491 459.99 25.2509 459.134C22.7758 458.211 20.5355 456.841 18.5964 455.065C16.5882 453.225 14.9915 451.026 13.8507 448.529C12.7098 446.032 12.0938 443.385 12.0165 440.665C11.9447 438.038 12.3756 435.452 13.301 432.977C14.2236 430.505 15.5965 428.267 17.3754 426.331C19.2179 424.325 21.4195 422.731 23.9222 421.593C26.4221 420.453 29.0712 419.837 31.7949 419.762C34.4246 419.687 37.0157 420.118 39.4935 421.041C41.9686 421.966 44.2088 423.336 46.148 425.113C48.1562 426.952 49.7528 429.151 50.8937 431.648C52.0345 434.145 52.6505 436.792 52.7279 439.513C52.7997 442.14 52.3688 444.725 51.4434 447.2C50.518 449.673 49.1479 451.907 47.3689 453.846C45.5265 455.852 43.3249 457.446 40.8222 458.584C38.3223 459.725 35.6732 460.341 32.9495 460.415C32.7589 460.421 32.5655 460.424 32.3749 460.424ZM32.3418 420.08C29.5629 420.08 26.7425 420.66 24.0548 421.886C19.1875 424.104 15.4749 428.085 13.6021 433.09C11.732 438.098 11.9226 443.532 14.1463 448.394C17.5053 455.747 24.7923 460.095 32.4026 460.095C35.1815 460.095 38.0018 459.518 40.6896 458.291C45.5568 456.073 49.2694 452.092 51.1423 447.087C53.0124 442.079 52.8218 436.645 50.5981 431.781C47.2391 424.43 39.9493 420.08 32.3418 420.08Z" fill="black"/>
<path d="M25.6273 436.557C25.7765 436.88 25.909 437.206 26.0251 437.535C26.1411 437.864 26.2433 438.189 26.3234 438.513C26.4063 438.833 26.4698 439.148 26.514 439.452C26.561 439.756 26.5858 440.043 26.5886 440.316C26.5941 440.59 26.5803 440.841 26.5444 441.076C26.5112 441.308 26.456 441.515 26.3842 441.698C26.3096 441.88 26.2184 442.035 26.1107 442.159C26.0002 442.286 25.8759 442.38 25.735 442.443C25.5969 442.507 25.4422 442.54 25.2765 442.54C25.1107 442.54 24.9339 442.507 24.7489 442.443C24.561 442.377 24.3704 442.283 24.1715 442.156C23.9726 442.032 23.771 441.877 23.5666 441.692C23.3649 441.51 23.1633 441.303 22.9616 441.071C22.76 440.839 22.5666 440.584 22.376 440.311C22.1854 440.037 22.0059 439.747 21.8346 439.444C21.6606 439.14 21.5031 438.828 21.3539 438.504C21.2075 438.181 21.0749 437.858 20.9589 437.527C20.8401 437.198 20.7407 436.875 20.6578 436.551C20.575 436.228 20.5114 435.916 20.4672 435.612C20.423 435.308 20.3982 435.018 20.3926 434.745C20.3871 434.471 20.4037 434.22 20.4368 433.988C20.4728 433.756 20.5252 433.549 20.5998 433.366C20.6716 433.181 20.7628 433.029 20.8733 432.902C20.981 432.778 21.1053 432.681 21.2462 432.618C21.3871 432.554 21.539 432.524 21.7075 432.524C21.8733 432.524 22.0501 432.554 22.2351 432.621C22.4202 432.684 22.6136 432.778 22.8125 432.905C23.0113 433.032 23.2102 433.187 23.4147 433.369C23.6191 433.552 23.8207 433.759 24.0196 433.993C24.2213 434.226 24.4174 434.477 24.6052 434.75C24.7958 435.024 24.9781 435.314 25.1494 435.618C25.3207 435.922 25.4809 436.234 25.6273 436.557Z" fill="black"/>
<path d="M25.2733 442.703C24.7347 442.703 24.1104 442.399 23.4585 441.814C22.6132 441.057 21.8149 439.905 21.2072 438.574C20.5967 437.242 20.2514 435.883 20.2293 434.751C20.21 433.571 20.5442 432.762 21.1768 432.474C21.8094 432.184 22.6436 432.461 23.522 433.251C24.3645 434.01 25.1656 435.159 25.7733 436.491C26.381 437.825 26.7291 439.181 26.7484 440.314C26.7705 441.493 26.4335 442.303 25.801 442.593C25.638 442.667 25.4612 442.703 25.2733 442.703ZM21.7016 432.687C21.5608 432.687 21.4309 432.712 21.3121 432.767C20.8094 432.994 20.5332 433.715 20.5525 434.745C20.5718 435.836 20.9088 437.148 21.5 438.441C22.0884 439.734 22.8618 440.847 23.6739 441.576C24.4391 442.264 25.1656 442.527 25.6684 442.3C26.1683 442.071 26.4446 441.35 26.4252 440.322C26.4059 439.231 26.0689 437.919 25.4805 436.626C24.8894 435.333 24.1159 434.22 23.3066 433.491C22.7209 432.963 22.1574 432.687 21.7016 432.687Z" fill="black"/>
<path d="M39.0101 430.615C39.1593 430.939 39.2919 431.265 39.4079 431.593C39.5239 431.922 39.6261 432.248 39.7062 432.568C39.7891 432.892 39.8526 433.204 39.8968 433.508C39.9438 433.811 39.9686 434.101 39.9714 434.375C39.9769 434.648 39.9631 434.9 39.9272 435.132C39.894 435.364 39.8388 435.574 39.767 435.756C39.6924 435.938 39.6012 436.09 39.4935 436.217C39.383 436.342 39.2587 436.438 39.1178 436.502C38.9797 436.565 38.825 436.599 38.6593 436.596C38.4935 436.596 38.3168 436.565 38.1317 436.499C37.9438 436.436 37.7532 436.342 37.5543 436.215C37.3555 436.088 37.1538 435.933 36.9494 435.751C36.7477 435.568 36.5461 435.361 36.3444 435.129C36.1428 434.894 35.9494 434.643 35.7588 434.369C35.5682 434.096 35.3887 433.806 35.2174 433.502C35.0434 433.198 34.8859 432.886 34.7368 432.563C34.5904 432.24 34.4578 431.914 34.3417 431.585C34.223 431.256 34.1235 430.93 34.0406 430.61C33.9578 430.287 33.8942 429.975 33.85 429.671C33.8058 429.367 33.781 429.077 33.7755 428.803C33.7699 428.53 33.7865 428.278 33.8197 428.046C33.8556 427.814 33.9081 427.604 33.9826 427.422C34.0545 427.24 34.1456 427.085 34.2561 426.961C34.3638 426.836 34.4881 426.74 34.629 426.676C34.7699 426.613 34.9218 426.58 35.0903 426.58C35.2561 426.582 35.4329 426.613 35.6179 426.679C35.803 426.743 35.9964 426.836 36.1953 426.964C36.3942 427.091 36.5931 427.243 36.7975 427.428C37.0019 427.61 37.2035 427.817 37.4024 428.049C37.6041 428.284 37.8002 428.535 37.988 428.809C38.1786 429.082 38.3609 429.372 38.5322 429.676C38.7035 429.98 38.8637 430.292 39.0101 430.615Z" fill="black"/>
<path d="M38.6571 436.761C38.1185 436.761 37.4942 436.458 36.8423 435.872C35.997 435.115 35.1987 433.963 34.591 432.632C33.9805 431.3 33.6352 429.941 33.6131 428.809C33.5938 427.629 33.928 426.82 34.5606 426.532C35.1959 426.242 36.0274 426.519 36.9058 427.309C37.7483 428.068 38.5494 429.217 39.1571 430.549C39.7648 431.883 40.1129 433.239 40.1322 434.372C40.1543 435.554 39.8173 436.361 39.1847 436.651C39.0218 436.726 38.845 436.761 38.6571 436.761ZM35.0854 426.745C34.9445 426.745 34.8147 426.77 34.6959 426.825C34.1932 427.055 33.917 427.773 33.9363 428.803C33.9556 429.894 34.2926 431.206 34.8838 432.499C35.4749 433.792 36.2456 434.905 37.0577 435.634C37.8229 436.322 38.5494 436.585 39.0521 436.358C39.5521 436.129 39.8284 435.408 39.8118 434.38C39.7897 433.289 39.4555 431.977 38.8643 430.684C38.2732 429.392 37.4997 428.278 36.6903 427.549C36.1047 427.021 35.5412 426.745 35.0854 426.745Z" fill="black"/>
<path d="M31.9996 453.098C31.2345 453.098 30.4776 453.032 29.7262 452.899C28.3948 452.661 27.1075 452.211 25.8976 451.565C24.6242 450.882 23.4364 449.979 22.3646 448.874C22.3038 448.811 22.3038 448.708 22.3673 448.648C22.4336 448.584 22.5331 448.587 22.5966 448.65C26.5744 452.747 32.0438 453.888 37.226 451.697C42.6954 449.388 46.1124 444.076 45.9329 438.165C45.9301 438.076 45.9992 438.002 46.0876 437.999C46.1787 437.996 46.2533 438.065 46.2533 438.154C46.3472 441.231 45.5019 444.184 43.8031 446.692C43.0103 447.869 42.0463 448.924 40.9386 449.827C39.8474 450.722 38.6403 451.449 37.353 451.993C35.6183 452.725 33.8007 453.098 31.9969 453.098H31.9996Z" fill="black"/>
<path d="M20.8643 450.051C22.1598 449.313 23.099 448.333 23.6929 447.109Z" fill="#AF7BA9"/>
<path d="M20.8651 450.211C20.8099 450.211 20.7546 450.181 20.7242 450.128C20.68 450.051 20.7076 449.954 20.785 449.91C22.0391 449.198 22.97 448.231 23.5501 447.04C23.5888 446.96 23.6854 446.927 23.7656 446.966C23.8457 447.004 23.8788 447.101 23.8374 447.181C23.2297 448.432 22.2546 449.443 20.9452 450.189C20.9203 450.203 20.8927 450.211 20.8651 450.211Z" fill="black"/>
<path d="M48.1339 437.543C46.7278 438.038 45.3715 438.104 44.0566 437.75Z" fill="#AF7BA9"/>
<path d="M45.7304 438.132C45.1503 438.132 44.5785 438.057 44.015 437.905C43.9293 437.883 43.8768 437.795 43.9017 437.709C43.9238 437.623 44.0122 437.574 44.0978 437.596C45.3796 437.938 46.7193 437.872 48.0811 437.391C48.164 437.364 48.2551 437.408 48.2855 437.491C48.3159 437.574 48.2717 437.665 48.1889 437.695C47.3602 437.988 46.537 438.132 45.7304 438.132Z" fill="black"/>
<path d="M79.1174 458.117C79.1174 458.777 79.0842 459.435 79.0207 460.092C78.9544 460.75 78.8577 461.404 78.7306 462.051C78.6008 462.7 78.4406 463.338 78.2472 463.971C78.0566 464.603 77.8329 465.225 77.5815 465.835C77.3274 466.446 77.0456 467.042 76.7335 467.625C76.4213 468.208 76.0815 468.772 75.7141 469.321C75.3468 469.871 74.9517 470.401 74.5346 470.912C74.1148 471.423 73.67 471.912 73.2032 472.379C72.7336 472.846 72.2446 473.288 71.7336 473.708C71.2226 474.128 70.6922 474.52 70.1425 474.887C69.5928 475.255 69.0265 475.592 68.4409 475.904C67.858 476.216 67.2614 476.498 66.6509 476.752C66.0404 477.003 65.4161 477.227 64.7836 477.418C64.151 477.608 63.5101 477.768 62.861 477.898C62.2118 478.028 61.5599 478.125 60.8997 478.188C60.2423 478.255 59.5821 478.285 58.9219 478.285C58.2589 478.285 57.5987 478.255 56.9413 478.188C56.2838 478.125 55.6292 478.028 54.98 477.898C54.3336 477.768 53.6928 477.608 53.0574 477.418C52.4248 477.227 51.8033 477.003 51.1928 476.752C50.5824 476.498 49.9829 476.216 49.4001 475.904C48.8172 475.592 48.2509 475.255 47.7012 474.887C47.1515 474.52 46.6212 474.128 46.1101 473.708C45.5963 473.288 45.1074 472.846 44.6406 472.379C44.1737 471.912 43.729 471.423 43.3091 470.912C42.8892 470.401 42.497 469.871 42.1296 469.321C41.7622 468.772 41.4224 468.208 41.1103 467.625C40.7982 467.042 40.5164 466.446 40.2623 465.835C40.0081 465.225 39.7871 464.603 39.5938 463.971C39.4032 463.338 39.243 462.7 39.1131 462.051C38.9833 461.404 38.8866 460.75 38.8231 460.092C38.7568 459.435 38.7236 458.777 38.7236 458.117C38.7236 457.457 38.7568 456.797 38.8231 456.139C38.8866 455.482 38.9833 454.83 39.1131 454.181C39.243 453.534 39.4032 452.894 39.5938 452.261C39.7871 451.628 40.0081 451.01 40.2623 450.399C40.5164 449.789 40.7982 449.192 41.1103 448.609C41.4224 448.026 41.7622 447.46 42.1296 446.91C42.497 446.361 42.8892 445.833 43.3091 445.322C43.729 444.811 44.1737 444.322 44.6406 443.855C45.1074 443.388 45.5963 442.944 46.1101 442.526C46.6212 442.107 47.1515 441.714 47.7012 441.347C48.2509 440.98 48.8172 440.64 49.4001 440.328C49.9829 440.018 50.5824 439.737 51.1928 439.482C51.8033 439.231 52.4248 439.007 53.0574 438.817C53.6928 438.623 54.3336 438.463 54.98 438.336C55.6292 438.206 56.2838 438.11 56.9413 438.043C57.5987 437.98 58.2589 437.947 58.9219 437.947C59.5821 437.947 60.2423 437.98 60.8997 438.043C61.5599 438.11 62.2118 438.206 62.861 438.336C63.5101 438.463 64.151 438.623 64.7836 438.817C65.4161 439.007 66.0404 439.231 66.6509 439.482C67.2614 439.737 67.858 440.018 68.4409 440.328C69.0265 440.64 69.5928 440.98 70.1425 441.347C70.6922 441.714 71.2226 442.107 71.7336 442.526C72.2446 442.944 72.7336 443.388 73.2032 443.855C73.67 444.322 74.1148 444.811 74.5346 445.322C74.9517 445.833 75.3468 446.361 75.7141 446.91C76.0815 447.46 76.4213 448.026 76.7335 448.609C77.0456 449.192 77.3274 449.789 77.5815 450.399C77.8329 451.01 78.0566 451.628 78.2472 452.261C78.4406 452.894 78.6008 453.534 78.7306 454.181C78.8577 454.83 78.9544 455.482 79.0207 456.139C79.0842 456.797 79.1174 457.457 79.1174 458.117Z" fill="#F37021"/>
<path d="M58.921 478.448C56.1724 478.448 53.5068 477.909 50.9958 476.849C48.5732 475.827 46.3937 474.36 44.5264 472.492C42.6563 470.625 41.1867 468.451 40.1619 466.031C39.1012 463.523 38.5625 460.86 38.5625 458.117C38.5625 455.371 39.1012 452.709 40.1619 450.203C41.1867 447.783 42.6563 445.609 44.5264 443.742C46.3937 441.875 48.5732 440.408 50.9958 439.383C53.5068 438.325 56.1724 437.786 58.921 437.786C61.6695 437.786 64.3351 438.325 66.8434 439.383C69.2687 440.408 71.4454 441.875 73.3155 443.742C75.1856 445.609 76.6524 447.783 77.6773 450.203C78.7408 452.709 79.2794 455.371 79.2794 458.117C79.2794 460.86 78.7408 463.523 77.6773 466.031C76.6524 468.451 75.1856 470.625 73.3155 472.492C71.4454 474.36 69.2687 475.827 66.8434 476.849C64.3351 477.909 61.6695 478.448 58.921 478.448ZM58.921 438.11C47.8716 438.11 38.8857 447.084 38.8857 458.117C38.8857 469.15 47.8716 478.125 58.921 478.125C69.9676 478.125 78.9562 469.15 78.9562 458.117C78.9562 447.084 69.9676 438.11 58.921 438.11Z" fill="black"/>
<path d="M54.2497 452.109C54.2497 452.463 54.2359 452.814 54.2055 453.162C54.1751 453.51 54.1309 453.847 54.0729 454.175C54.0121 454.504 53.9403 454.813 53.8547 455.109C53.769 455.405 53.6724 455.675 53.5619 455.927C53.4541 456.178 53.3354 456.402 53.2055 456.598C53.0785 456.797 52.9431 456.963 52.7995 457.098C52.6586 457.233 52.5122 457.335 52.3602 457.405C52.2083 457.474 52.0564 457.509 51.9017 457.509C51.747 457.509 51.5951 457.474 51.4432 457.405C51.2912 457.335 51.1448 457.233 51.0039 457.098C50.8603 456.963 50.7249 456.797 50.5979 456.598C50.468 456.402 50.3493 456.178 50.2415 455.927C50.131 455.675 50.0344 455.405 49.9487 455.109C49.8631 454.813 49.7913 454.504 49.7305 454.175C49.6725 453.847 49.6283 453.51 49.5979 453.162C49.5675 452.814 49.5537 452.463 49.5537 452.109C49.5537 451.756 49.5675 451.402 49.5979 451.054C49.6283 450.709 49.6725 450.369 49.7305 450.043C49.7913 449.714 49.8631 449.405 49.9487 449.109C50.0344 448.814 50.131 448.54 50.2415 448.292C50.3493 448.04 50.468 447.816 50.5979 447.618C50.7249 447.421 50.8603 447.256 51.0039 447.12C51.1448 446.985 51.2912 446.883 51.4432 446.814C51.5951 446.745 51.747 446.709 51.9017 446.709C52.0564 446.709 52.2083 446.745 52.3602 446.814C52.5122 446.883 52.6586 446.985 52.7995 447.12C52.9431 447.256 53.0785 447.421 53.2055 447.618C53.3354 447.816 53.4541 448.04 53.5619 448.292C53.6724 448.54 53.769 448.814 53.8547 449.109C53.9403 449.405 54.0121 449.714 54.0729 450.043C54.1309 450.369 54.1751 450.709 54.2055 451.054C54.2359 451.402 54.2497 451.756 54.2497 452.109Z" fill="black"/>
<path d="M51.9026 457.67C51.2065 457.67 50.5656 457.073 50.0932 455.99C49.6402 454.951 49.3916 453.573 49.3916 452.109C49.3916 450.645 49.643 449.266 50.0932 448.225C50.5656 447.142 51.2065 446.548 51.9026 446.548C52.5987 446.548 53.2395 447.145 53.7119 448.225C54.1649 449.266 54.4135 450.645 54.4135 452.109C54.4135 453.573 54.1622 454.951 53.7119 455.99C53.2395 457.073 52.5987 457.67 51.9026 457.67ZM51.9026 446.869C51.3501 446.869 50.8004 447.41 50.3888 448.355C49.9551 449.355 49.7148 450.689 49.7148 452.109C49.7148 453.529 49.9551 454.863 50.3888 455.863C50.8004 456.808 51.3501 457.346 51.9026 457.346C52.455 457.346 53.0047 456.808 53.4163 455.863C53.85 454.863 54.0903 453.529 54.0903 452.109C54.0903 450.689 53.85 449.355 53.4163 448.355C53.0047 447.41 52.455 446.869 51.9026 446.869Z" fill="black"/>
<path d="M68.8962 452.253C68.8962 452.606 68.8824 452.957 68.852 453.305C68.8216 453.653 68.7774 453.99 68.7194 454.319C68.6586 454.645 68.5868 454.957 68.5012 455.253C68.4155 455.545 68.3188 455.819 68.2084 456.07C68.1006 456.322 67.9818 456.545 67.852 456.741C67.7249 456.938 67.5896 457.106 67.4459 457.241C67.3051 457.377 67.1587 457.479 67.0067 457.548C66.8548 457.617 66.7029 457.65 66.5482 457.65C66.3935 457.65 66.2416 457.617 66.0896 457.548C65.9377 457.479 65.7913 457.377 65.6504 457.241C65.5068 457.106 65.3714 456.938 65.2444 456.741C65.1145 456.545 64.9957 456.322 64.888 456.07C64.7775 455.819 64.6808 455.545 64.5952 455.253C64.5096 454.957 64.4378 454.645 64.377 454.319C64.319 453.99 64.2748 453.653 64.2444 453.305C64.214 452.957 64.2002 452.606 64.2002 452.253C64.2002 451.896 64.214 451.546 64.2444 451.197C64.2748 450.849 64.319 450.512 64.377 450.186C64.4378 449.858 64.5096 449.546 64.5952 449.253C64.6808 448.957 64.7775 448.684 64.888 448.432C64.9957 448.184 65.1145 447.96 65.2444 447.761C65.3714 447.565 65.5068 447.399 65.6504 447.264C65.7913 447.126 65.9377 447.024 66.0896 446.955C66.2416 446.885 66.3935 446.852 66.5482 446.852C66.7029 446.852 66.8548 446.885 67.0067 446.955C67.1587 447.024 67.3051 447.126 67.4459 447.264C67.5896 447.399 67.7249 447.565 67.852 447.761C67.9818 447.96 68.1006 448.184 68.2084 448.432C68.3188 448.684 68.4155 448.957 68.5012 449.253C68.5868 449.546 68.6586 449.858 68.7194 450.186C68.7774 450.512 68.8216 450.849 68.852 451.197C68.8824 451.546 68.8962 451.896 68.8962 452.253Z" fill="black"/>
<path d="M66.5481 457.813C65.852 457.813 65.2111 457.216 64.7387 456.134C64.2885 455.095 64.0371 453.717 64.0371 452.252C64.0371 450.788 64.2885 449.41 64.7387 448.369C65.2111 447.286 65.852 446.692 66.5481 446.692C67.2442 446.692 67.8851 447.286 68.3574 448.369C68.8104 449.407 69.059 450.788 69.059 452.252C69.059 453.717 68.8077 455.095 68.3574 456.134C67.8851 457.216 67.2442 457.813 66.5481 457.813ZM66.5481 447.012C65.9984 447.012 65.4459 447.554 65.0343 448.498C64.6006 449.498 64.3603 450.83 64.3603 452.252C64.3603 453.672 64.6006 455.007 65.0343 456.007C65.4459 456.948 65.9984 457.49 66.5481 457.49C67.1005 457.49 67.6503 456.948 68.0618 456.007C68.4955 455.007 68.7359 453.672 68.7359 452.252C68.7359 450.83 68.4955 449.498 68.0618 448.498C67.6503 447.554 67.1005 447.012 66.5481 447.012Z" fill="black"/>
<path d="M58.9103 471.017C58.775 471.017 58.6369 471.017 58.5015 471.012C55.8276 470.937 53.2973 470.128 51.1896 468.672C50.0764 467.904 49.0902 466.962 48.2587 465.874C47.3858 464.724 46.6787 463.41 46.1649 461.959C46.1345 461.877 46.1787 461.785 46.2616 461.755C46.3444 461.725 46.4384 461.769 46.4687 461.852C48.383 467.23 52.8857 470.534 58.5126 470.691C64.4461 470.857 69.7636 467.44 72.0563 461.987C72.0922 461.904 72.1861 461.865 72.269 461.901C72.3491 461.935 72.3878 462.028 72.3546 462.111C71.1613 464.948 69.1614 467.285 66.5758 468.862C65.3659 469.603 64.0483 470.164 62.6644 470.528C61.4323 470.854 60.1727 471.017 58.9076 471.017H58.9103Z" fill="black"/>
<path d="M44.3125 462.407C45.7959 462.274 47.0583 461.772 48.108 460.907Z" fill="#AF7BA9"/>
<path d="M44.3113 462.57C44.2285 462.57 44.1566 462.506 44.1511 462.421C44.1428 462.332 44.2064 462.255 44.2975 462.247C45.7339 462.12 46.9798 461.625 48.0046 460.783C48.0736 460.725 48.1731 460.736 48.2311 460.802C48.2863 460.871 48.2781 460.973 48.209 461.029C47.1344 461.915 45.8279 462.435 44.3251 462.567C44.3196 462.567 44.3169 462.567 44.3113 462.567V462.57Z" fill="black"/>
<path d="M74.3189 462.335C72.8355 462.202 71.5731 461.7 70.5234 460.835Z" fill="#AF7BA9"/>
<path d="M74.3185 462.498C74.3157 462.498 74.3102 462.498 74.3047 462.495C72.802 462.363 71.4954 461.844 70.4208 460.96C70.3518 460.902 70.3407 460.799 70.3987 460.733C70.4567 460.664 70.5562 460.653 70.6252 460.711C71.6501 461.554 72.8959 462.048 74.3351 462.178C74.4235 462.183 74.487 462.263 74.4787 462.352C74.4732 462.435 74.4014 462.498 74.3185 462.498Z" fill="black"/>
</svg>
