<svg width="2480" height="474" viewBox="0 0 2480 474" fill="none" xmlns="http://www.w3.org/2000/svg">
<rect width="2480" height="474" rx="30" fill="#ACD4FC"/>
<path fill-rule="evenodd" clip-rule="evenodd" d="M1941.57 391.862C1901.36 380.493 1890.17 426.769 1957.02 405.743C1967.72 411.696 1980.1 413.201 1995.46 406.842C2012.03 412.883 2025.64 411.998 2037.1 406.081C2049.71 410.529 2062.47 412.368 2075.68 406.592C2083.26 411.842 2090.95 410.784 2098.71 406.191C2124.08 411.519 2125.85 399.789 2113.4 399.284C2107.89 390.789 2104.29 390.534 2096.11 393.472C2094.19 384.675 2089.68 381.888 2082.66 384.925C2084.85 371.232 2079.09 367.248 2067.76 370.045C2070.06 337.133 2033.95 332.763 2016.73 354.034C1993.81 344.982 1978.29 354.092 1981.52 371.404C1976.43 371.43 1972.31 372.649 1970.84 377.159C1957.81 376.566 1945.56 380.586 1941.57 391.862Z" fill="white"/>
<mask id="mask0_242_538" style="mask-type:luminance" maskUnits="userSpaceOnUse" x="1909" y="374" width="212" height="38">
<path d="M1909 374.227H2120.93V411.352H1909V374.227Z" fill="white"/>
</mask>
<g mask="url(#mask0_242_538)">
<mask id="mask1_242_538" style="mask-type:luminance" maskUnits="userSpaceOnUse" x="1909" y="341" width="212" height="71">
<path fill-rule="evenodd" clip-rule="evenodd" d="M1941.57 391.862C1901.36 380.493 1890.17 426.769 1957.02 405.743C1967.72 411.696 1980.1 413.201 1995.46 406.842C2012.03 412.883 2025.64 411.998 2037.1 406.081C2049.71 410.529 2062.47 412.368 2075.68 406.592C2083.26 411.842 2090.95 410.784 2098.71 406.191C2124.08 411.519 2125.85 399.789 2113.4 399.284C2107.89 390.789 2104.29 390.534 2096.11 393.472C2094.19 384.675 2089.68 381.888 2082.66 384.925C2084.85 371.232 2079.09 367.248 2067.76 370.045C2070.06 337.133 2033.95 332.763 2016.73 354.034C1993.81 344.982 1978.29 354.092 1981.52 371.404C1976.43 371.43 1972.31 372.649 1970.84 377.159C1957.81 376.566 1945.56 380.586 1941.57 391.862Z" fill="white"/>
</mask>
<g mask="url(#mask1_242_538)">
<path fill-rule="evenodd" clip-rule="evenodd" d="M1915.34 392.159C1915.82 391.316 1915.39 394.154 1915.78 395.039C1919.14 402.717 1926.33 404.602 1934.09 403.284C1940.78 402.149 1948.17 398.159 1954.99 398.566C1962.36 399.003 1967 404.836 1975.23 403.258C1981.25 402.112 1994.07 391.175 1994.14 391.17C1999.93 390.769 2008.44 400.076 2020.52 397.107C2030.03 394.763 2030.35 384.691 2025.62 377.92C2025.42 377.633 2023.99 376.019 2024.48 375.623C2026.06 374.357 2034.2 381.722 2036.88 381.722C2041.31 381.722 2045.79 379.998 2050.24 379.691C2050.37 379.68 2052.21 379.545 2052.16 379.842C2052.11 380.081 2051.27 380.3 2051.09 380.362C2045.23 382.524 2027.57 390.232 2041.05 396.873C2049.07 400.821 2057.63 394.456 2065.51 393.477C2071.1 392.779 2071.75 399.576 2076.44 401.175C2082.81 403.342 2089.82 401.243 2096.34 401.545C2101.42 401.779 2105.54 403.878 2110.25 405.461C2113.74 406.644 2132.22 404.263 2130.62 410.237C2128.7 417.378 2080.34 420.779 2074.29 421.138C2030.68 423.696 1984.6 428.571 1941.46 419.513C1926.91 416.456 1901.63 409.269 1899.31 391.055" fill="#F1E8E8"/>
</g>
</g>
<mask id="mask2_242_538" style="mask-type:luminance" maskUnits="userSpaceOnUse" x="130" y="27" width="230" height="90">
<path d="M130 27H359.198V116.333H130V27Z" fill="white"/>
</mask>
<g mask="url(#mask2_242_538)">
<path d="M340.115 78.9479C347.099 65.4583 331.672 51.6875 309.714 51.125C309.479 44.5052 305.761 37.4687 299.203 32.5729C288.042 24.2448 273.297 25.5729 267.922 35.8229C252.422 28.3854 234.068 35.4583 226.047 52.875C225.995 52.9375 225.943 53 225.891 53.0573C213.302 48.0104 198.058 53.0937 193.506 63.8437C169.599 50.8489 130.308 60.6979 130.308 79.0989C130.308 95.3073 161.724 105.786 186.854 97.2343C196.573 116.297 218.464 120.292 225.542 104.714C235.209 116.141 249.797 119.083 261.985 113.24C271.839 117.964 283.74 117.104 293.318 109.646C316.49 123.089 358.943 114.344 358.943 96.2135C358.943 88.8385 351.37 82.401 340.115 78.9479Z" fill="#E3F2FF"/>
</g>
<path d="M341.786 72.328C336.984 65.6614 325.182 60.8749 311.218 60.5728C310.979 54.8228 307.166 48.7135 300.453 44.4635C289.031 37.2447 273.927 38.3697 268.39 47.2864C252.463 40.8176 233.672 46.9947 225.479 62.0937C225.416 62.1458 225.369 62.1978 225.312 62.2499C212.635 57.953 196.88 62.1041 192.119 71.6145C172.604 62.6405 140.75 65.9739 130.396 77.6874C132.437 60.0051 170.448 51.3072 193.5 63.8437C198.083 53.0416 213.375 48.0364 225.896 53.0624C225.942 52.9999 226 52.9322 226.047 52.8749C234.104 35.3697 252.5 28.4218 267.922 35.8228C273.26 25.6093 288.005 24.2135 299.203 32.5728C305.76 37.4687 309.479 44.5051 309.713 51.1249C327.547 51.5833 341.786 60.8957 341.786 72.328Z" fill="white"/>
<mask id="mask3_242_538" style="mask-type:luminance" maskUnits="userSpaceOnUse" x="130" y="76" width="230" height="41">
<path d="M130 76.3333H359.198V116.333H130V76.3333Z" fill="white"/>
</mask>
<g mask="url(#mask3_242_538)">
<path d="M358.943 96.2135C358.943 114.172 316.714 123.213 293.323 109.646C283.735 117.104 271.839 117.963 261.985 113.24C249.797 119.088 235.204 116.135 225.537 104.713C218.542 120.151 196.735 116.505 186.855 97.2343C160.49 106.208 127.417 94.1978 130.5 76.927C133.313 85.4947 163.865 89.9999 186.855 85.6926C196.589 96.1718 218.495 98.3385 225.537 89.7968C235.459 96.2343 250.12 97.5989 261.985 94.4791C271.922 97.0885 283.797 96.578 293.323 92.5051C300.219 94.703 312.141 101.271 323.193 101.271C339.402 101.271 352.021 95.1718 356.829 89.6145C358.193 91.677 358.943 93.8958 358.943 96.2135Z" fill="#B6D5F0"/>
</g>
<path d="M341.782 72.1146C341.782 72.0052 341.782 71.8958 341.776 71.7969C341.792 71.8906 341.787 72.0625 341.782 72.1146Z" fill="#B6D5F0"/>
<path d="M331.729 107.495C316.646 109.375 295.672 99.1406 287.901 86.1562C299.631 96.3542 316.459 104.552 331.729 107.495Z" fill="#B6D5F0"/>
<path d="M201.39 78.3855C195.239 88.8334 179.666 93.3751 168.88 87.9167C180.031 88.8542 192.515 85.1928 201.39 78.3855Z" fill="#B6D5F0"/>
<path d="M279.854 86.302C270.88 100.51 254.442 100.458 245.521 86.302C256.093 93.2083 269.281 93.2083 279.854 86.302Z" fill="#B6D5F0"/>
<path d="M297.026 57.6511C288.052 71.8542 271.609 71.8022 262.688 57.6511C273.266 64.5574 286.448 64.5574 297.026 57.6511Z" fill="#B6D5F0"/>
<mask id="mask4_242_538" style="mask-type:luminance" maskUnits="userSpaceOnUse" x="40" y="237" width="212" height="219">
<path d="M40 237H251.884V455.88H40V237Z" fill="white"/>
</mask>
<g mask="url(#mask4_242_538)">
<path d="M178.283 455.872C162.018 455.872 146.566 449.712 134.776 438.53C124.843 429.098 118.339 416.901 116.044 403.62C111.851 404.486 107.579 404.924 103.269 404.924C91.3227 404.924 79.6495 401.558 69.5144 395.179C59.1138 388.628 50.8996 379.242 45.7774 368.022C42.2403 360.276 40.3194 352.07 40.0852 343.629C39.8587 335.47 41.1939 327.45 44.0674 319.775C46.933 312.107 51.1885 305.166 56.7089 299.161C62.4245 292.93 69.2567 287.988 77.0181 284.451C85.326 280.664 94.1337 278.743 103.199 278.743C111.405 278.743 119.542 280.359 127.123 283.451C128.139 279.766 129.489 276.174 131.16 272.707C136.423 261.807 144.629 252.702 154.905 246.393C164.907 240.248 176.386 237 188.098 237C197.624 237 206.838 239.108 215.481 243.262C223.157 246.963 229.887 252.054 235.47 258.395C240.866 264.516 244.973 271.544 247.682 279.274C250.384 287.004 251.555 295.054 251.157 303.198C250.743 311.639 248.658 319.806 244.957 327.474C240.429 336.852 233.784 344.832 225.507 350.899C229.606 355.498 232.987 360.651 235.611 366.289C239.476 374.62 241.444 383.545 241.444 392.797C241.444 401.308 239.773 409.57 236.478 417.347C233.292 424.858 228.74 431.604 222.938 437.398C217.144 443.192 210.39 447.736 202.863 450.914C195.078 454.201 186.802 455.872 178.275 455.872H178.283Z" fill="white"/>
</g>
<path d="M245.154 300.091C245.154 301.957 245.061 303.815 244.873 305.673C244.694 307.532 244.42 309.382 244.053 311.21C243.686 313.044 243.233 314.848 242.695 316.636C242.148 318.424 241.523 320.181 240.805 321.907C240.087 323.632 239.29 325.319 238.408 326.967C237.526 328.614 236.565 330.207 235.527 331.761C234.488 333.315 233.379 334.814 232.193 336.258C231.006 337.703 229.749 339.085 228.429 340.404C227.109 341.724 225.727 342.973 224.275 344.16C222.831 345.347 221.331 346.456 219.778 347.494C218.224 348.533 216.623 349.485 214.975 350.368C213.328 351.25 211.634 352.047 209.908 352.765C208.182 353.475 206.425 354.1 204.637 354.647C202.842 355.185 201.03 355.638 199.203 356.005C197.368 356.372 195.517 356.646 193.659 356.825C191.801 357.013 189.935 357.098 188.061 357.098C186.194 357.098 184.328 357.013 182.47 356.825C180.604 356.646 178.761 356.372 176.926 356.005C175.091 355.638 173.28 355.185 171.491 354.647C169.703 354.1 167.947 353.475 166.213 352.757C164.488 352.047 162.801 351.25 161.153 350.368C159.498 349.485 157.897 348.533 156.344 347.494C154.79 346.456 153.291 345.347 151.846 344.16C150.401 342.973 149.019 341.724 147.692 340.404C146.372 339.085 145.115 337.703 143.928 336.258C142.749 334.814 141.633 333.315 140.594 331.761C139.556 330.207 138.595 328.614 137.713 326.967C136.831 325.319 136.034 323.632 135.316 321.907C134.605 320.181 133.973 318.424 133.434 316.636C132.888 314.848 132.435 313.044 132.068 311.21C131.709 309.382 131.435 307.532 131.248 305.673C131.068 303.815 130.975 301.957 130.975 300.091C130.975 298.224 131.068 296.358 131.248 294.5C131.435 292.642 131.709 290.799 132.068 288.964C132.435 287.137 132.888 285.325 133.434 283.537C133.973 281.749 134.605 279.992 135.316 278.274C136.034 276.549 136.831 274.862 137.713 273.215C138.595 271.567 139.556 269.966 140.594 268.413C141.633 266.859 142.749 265.367 143.928 263.923C145.115 262.478 146.372 261.096 147.692 259.777C149.019 258.457 150.401 257.2 151.846 256.021C153.291 254.834 154.79 253.725 156.344 252.687C157.897 251.648 159.498 250.688 161.153 249.806C162.801 248.931 164.488 248.135 166.213 247.416C167.947 246.698 169.703 246.073 171.491 245.535C173.28 244.988 175.091 244.535 176.926 244.168C178.761 243.809 180.604 243.536 182.47 243.348C184.328 243.169 186.194 243.075 188.061 243.075C189.935 243.075 191.801 243.169 193.659 243.348C195.517 243.536 197.368 243.809 199.203 244.168C201.03 244.535 202.842 244.988 204.637 245.535C206.425 246.073 208.182 246.698 209.908 247.416C211.634 248.135 213.328 248.931 214.975 249.806C216.623 250.688 218.224 251.648 219.778 252.687C221.331 253.725 222.831 254.834 224.275 256.021C225.727 257.2 227.109 258.457 228.429 259.777C229.749 261.096 231.006 262.478 232.193 263.923C233.379 265.367 234.488 266.859 235.527 268.413C236.565 269.966 237.526 271.567 238.408 273.215C239.29 274.862 240.087 276.549 240.805 278.274C241.523 279.992 242.148 281.749 242.695 283.537C243.233 285.325 243.686 287.137 244.053 288.964C244.42 290.799 244.694 292.642 244.873 294.5C245.061 296.358 245.154 298.224 245.154 300.091Z" fill="#AF7BA9"/>
<path d="M188.06 357.567C187.116 357.567 186.171 357.543 185.218 357.497C177.527 357.122 170.078 355.224 163.082 351.859C156.086 348.486 149.956 343.856 144.865 338.077C139.954 332.502 136.206 326.1 133.739 319.057C131.279 312.006 130.209 304.674 130.576 297.248C130.951 289.565 132.848 282.132 136.222 275.143C139.595 268.147 144.241 262.033 150.019 256.95C155.609 252.039 162.02 248.306 169.071 245.839C176.129 243.379 183.469 242.31 190.903 242.677C198.594 243.051 206.051 244.949 213.047 248.322C220.043 251.687 226.172 256.325 231.256 262.103C236.175 267.679 239.915 274.081 242.382 281.124C244.85 288.167 245.912 295.507 245.552 302.925C245.178 310.608 243.272 318.049 239.899 325.038C236.526 332.026 231.888 338.148 226.102 343.231C220.519 348.134 214.109 351.875 207.05 354.334C200.897 356.481 194.518 357.567 188.06 357.567ZM188.154 243.536C167.064 243.536 146.794 255.334 137.041 275.534C123.486 303.628 135.347 337.5 163.472 351.039C191.605 364.579 225.524 352.734 239.079 324.64C252.634 296.546 240.782 262.681 212.649 249.142C204.747 245.339 196.384 243.536 188.154 243.536Z" fill="black"/>
<path d="M184.203 262.439C184.601 262.627 184.944 262.9 185.249 263.259C185.546 263.626 185.795 264.063 185.991 264.587C186.186 265.102 186.326 265.695 186.412 266.351C186.498 267.015 186.522 267.725 186.49 268.498C186.459 269.271 186.373 270.084 186.233 270.942C186.084 271.794 185.889 272.676 185.639 273.582C185.382 274.487 185.085 275.401 184.733 276.33C184.382 277.251 183.984 278.165 183.554 279.063C183.117 279.969 182.649 280.843 182.141 281.694C181.641 282.538 181.11 283.35 180.556 284.107C180.002 284.872 179.44 285.575 178.854 286.215C178.276 286.863 177.69 287.441 177.105 287.941C176.519 288.448 175.941 288.878 175.379 289.221C174.809 289.565 174.255 289.823 173.732 289.995C173.201 290.166 172.701 290.244 172.233 290.237C171.756 290.229 171.327 290.127 170.936 289.94C170.546 289.745 170.195 289.471 169.898 289.112C169.593 288.753 169.351 288.308 169.148 287.785C168.953 287.269 168.813 286.676 168.734 286.02C168.649 285.364 168.617 284.646 168.649 283.873C168.68 283.1 168.766 282.288 168.914 281.429C169.055 280.578 169.25 279.695 169.507 278.79C169.757 277.884 170.062 276.97 170.413 276.049C170.765 275.12 171.155 274.214 171.592 273.308C172.022 272.403 172.498 271.528 172.998 270.677C173.505 269.834 174.028 269.029 174.583 268.264C175.137 267.507 175.707 266.796 176.285 266.156C176.863 265.508 177.448 264.93 178.034 264.43C178.62 263.923 179.197 263.501 179.767 263.158C180.33 262.806 180.884 262.549 181.415 262.385C181.938 262.213 182.438 262.127 182.914 262.135C183.383 262.15 183.812 262.244 184.203 262.439Z" fill="black"/>
<path d="M172.31 290.697C171.748 290.697 171.225 290.58 170.741 290.346C168.968 289.495 168.063 287.192 168.195 283.857C168.32 280.656 169.382 276.838 171.178 273.113C172.982 269.389 175.309 266.18 177.737 264.087C180.267 261.909 182.633 261.175 184.405 262.026C186.178 262.885 187.083 265.188 186.951 268.522C186.826 271.724 185.764 275.542 183.968 279.266C182.164 282.991 179.837 286.2 177.409 288.293C175.566 289.878 173.81 290.697 172.31 290.697ZM182.844 262.596C181.563 262.596 179.986 263.345 178.33 264.774C175.996 266.789 173.747 269.889 171.998 273.504C170.257 277.127 169.226 280.812 169.109 283.897C168.992 286.801 169.734 288.855 171.131 289.526C172.537 290.206 174.606 289.503 176.816 287.605C179.15 285.591 181.399 282.491 183.14 278.868C184.889 275.253 185.92 271.567 186.037 268.483C186.154 265.578 185.413 263.525 184.007 262.846C183.663 262.682 183.273 262.596 182.844 262.596Z" fill="black"/>
<path d="M221.323 280.75C221.713 280.937 222.065 281.21 222.362 281.577C222.666 281.936 222.908 282.374 223.111 282.897C223.306 283.42 223.447 284.006 223.525 284.662C223.611 285.325 223.642 286.036 223.611 286.809C223.58 287.582 223.494 288.394 223.345 289.253C223.205 290.112 223.002 290.986 222.752 291.892C222.502 292.806 222.198 293.719 221.846 294.64C221.495 295.562 221.104 296.475 220.667 297.373C220.23 298.279 219.761 299.154 219.262 300.005C218.754 300.856 218.231 301.66 217.677 302.417C217.122 303.183 216.552 303.885 215.974 304.533C215.397 305.174 214.811 305.752 214.225 306.259C213.64 306.759 213.062 307.188 212.492 307.532C211.922 307.875 211.375 308.133 210.844 308.305C210.313 308.477 209.814 308.555 209.345 308.547C208.877 308.539 208.447 308.438 208.057 308.25C207.659 308.063 207.315 307.782 207.011 307.423C206.714 307.063 206.464 306.618 206.269 306.103C206.074 305.58 205.933 304.994 205.847 304.33C205.761 303.675 205.738 302.956 205.769 302.183C205.8 301.418 205.886 300.598 206.027 299.747C206.175 298.888 206.37 298.006 206.62 297.1C206.878 296.194 207.175 295.281 207.526 294.359C207.877 293.438 208.276 292.524 208.705 291.619C209.142 290.721 209.611 289.838 210.118 288.995C210.618 288.144 211.149 287.34 211.703 286.575C212.258 285.817 212.82 285.114 213.406 284.466C213.983 283.818 214.569 283.248 215.155 282.741C215.74 282.233 216.318 281.812 216.88 281.468C217.45 281.124 217.997 280.867 218.528 280.695C219.059 280.523 219.558 280.445 220.027 280.453C220.503 280.461 220.933 280.562 221.323 280.75Z" fill="black"/>
<path d="M209.431 309.008C208.869 309.008 208.338 308.891 207.854 308.664C206.089 307.813 205.184 305.502 205.316 302.176C205.441 298.974 206.503 295.156 208.299 291.424C210.095 287.699 212.43 284.49 214.858 282.397C217.388 280.219 219.754 279.493 221.526 280.344C223.299 281.195 224.197 283.498 224.072 286.832C223.939 290.034 222.885 293.852 221.081 297.577C219.285 301.309 216.959 304.51 214.522 306.603C212.687 308.188 210.931 309.008 209.431 309.008ZM219.965 280.914C218.684 280.914 217.107 281.663 215.452 283.084C213.117 285.099 210.868 288.207 209.119 291.822C207.378 295.437 206.347 299.13 206.222 302.207C206.113 305.111 206.847 307.165 208.252 307.844C209.658 308.516 211.727 307.813 213.929 305.916C216.264 303.901 218.512 300.801 220.261 297.186C222.01 293.563 223.033 289.878 223.158 286.793C223.275 283.889 222.534 281.835 221.128 281.164C220.777 280.992 220.386 280.914 219.965 280.914Z" fill="black"/>
<path d="M190.246 337.047C187.599 337.047 184.96 336.789 182.345 336.289C178.425 335.532 174.661 334.228 171.148 332.416C164.425 328.95 158.982 323.788 155.398 317.495C153.509 314.176 152.158 310.569 151.385 306.774C150.565 302.776 150.385 298.568 150.854 294.242C150.885 293.992 151.104 293.813 151.354 293.844C151.604 293.867 151.791 294.094 151.76 294.344C150.026 310.382 157.436 324.312 171.569 331.612C177.496 334.665 183.867 336.164 190.176 336.164C199.757 336.164 209.197 332.721 216.755 326.045C216.943 325.881 217.232 325.897 217.396 326.084C217.567 326.279 217.544 326.56 217.357 326.732C210.829 332.495 202.872 335.993 194.346 336.844C192.987 336.976 191.613 337.047 190.246 337.047Z" fill="black"/>
<path d="M145.584 293.11C149.527 294.594 153.361 294.859 157.093 293.938Z" fill="#AF7BA9"/>
<path d="M152.735 294.922C150.33 294.922 147.886 294.461 145.427 293.54C145.192 293.446 145.067 293.188 145.161 292.954C145.247 292.712 145.513 292.595 145.747 292.681C149.565 294.117 153.344 294.391 156.991 293.493C157.233 293.438 157.475 293.586 157.537 293.828C157.6 294.07 157.451 294.32 157.201 294.383C155.734 294.742 154.242 294.922 152.735 294.922Z" fill="black"/>
<path d="M222.089 329.707C218.474 327.544 215.874 324.718 214.266 321.228Z" fill="#AF7BA9"/>
<path d="M222.089 330.16C222.003 330.16 221.925 330.136 221.854 330.097C218.192 327.911 215.498 324.991 213.851 321.415C213.749 321.188 213.851 320.923 214.077 320.813C214.304 320.712 214.577 320.806 214.679 321.04C216.248 324.436 218.817 327.224 222.323 329.316C222.534 329.441 222.604 329.722 222.479 329.933C222.393 330.082 222.245 330.16 222.089 330.16Z" fill="black"/>
<path d="M160.325 341.833C160.325 343.707 160.239 345.566 160.052 347.424C159.872 349.282 159.591 351.125 159.232 352.96C158.865 354.787 158.412 356.599 157.866 358.387C157.327 360.175 156.694 361.932 155.984 363.657C155.265 365.383 154.469 367.062 153.587 368.709C152.704 370.357 151.744 371.957 150.705 373.511C149.667 375.065 148.558 376.564 147.371 378.009C146.184 379.446 144.927 380.828 143.608 382.147C142.28 383.475 140.898 384.724 139.454 385.911C138.009 387.09 136.51 388.206 134.956 389.237C133.402 390.276 131.802 391.236 130.146 392.118C128.499 393.001 126.812 393.797 125.087 394.508C123.361 395.226 121.596 395.851 119.808 396.397C118.02 396.936 116.209 397.389 114.374 397.756C112.539 398.115 110.696 398.388 108.838 398.576C106.972 398.755 105.105 398.849 103.239 398.849C101.365 398.849 99.5069 398.755 97.6407 398.576C95.7824 398.388 93.9318 398.115 92.1047 397.756C90.2698 397.389 88.4583 396.936 86.6702 396.397C84.8743 395.851 83.1175 395.226 81.3918 394.508C79.6662 393.797 77.9796 393.001 76.3243 392.118C74.6768 391.236 73.0761 390.276 71.5222 389.237C69.9684 388.206 68.4692 387.09 67.0247 385.911C65.5802 384.724 64.1903 383.475 62.8707 382.147C61.5511 380.828 60.294 379.446 59.1072 378.009C57.9203 376.564 56.8115 375.065 55.7731 373.511C54.7346 371.957 53.7741 370.357 52.8918 368.709C52.0095 367.062 51.213 365.383 50.4947 363.657C49.7763 361.932 49.1517 360.175 48.6051 358.387C48.0663 356.599 47.6135 354.787 47.2465 352.96C46.8795 351.125 46.6062 349.282 46.4266 347.424C46.2392 345.566 46.1533 343.707 46.1533 341.833C46.1533 339.967 46.2392 338.109 46.4266 336.25C46.6062 334.392 46.8795 332.549 47.2465 330.714C47.6135 328.879 48.0663 327.076 48.6051 325.288C49.1517 323.5 49.7763 321.743 50.4947 320.017C51.213 318.291 52.0095 316.605 52.8918 314.965C53.7741 313.318 54.7346 311.717 55.7731 310.163C56.8115 308.609 57.9203 307.11 59.1072 305.666C60.294 304.229 61.5511 302.847 62.8707 301.519C64.1903 300.2 65.5802 298.951 67.0247 297.764C68.4692 296.585 69.9684 295.468 71.5222 294.43C73.0761 293.399 74.6768 292.438 76.3243 291.556C77.9796 290.674 79.6662 289.877 81.3918 289.167C83.1175 288.448 84.8743 287.824 86.6702 287.277C88.4583 286.738 90.2698 286.286 92.1047 285.919C93.9318 285.559 95.7824 285.278 97.6407 285.099C99.5069 284.919 101.365 284.825 103.239 284.825C105.105 284.825 106.972 284.919 108.838 285.099C110.696 285.286 112.539 285.559 114.374 285.919C116.209 286.286 118.02 286.738 119.808 287.277C121.596 287.824 123.361 288.448 125.087 289.167C126.812 289.877 128.499 290.674 130.146 291.556C131.802 292.438 133.402 293.399 134.956 294.43C136.51 295.468 138.009 296.585 139.454 297.764C140.898 298.951 142.28 300.2 143.608 301.519C144.927 302.847 146.184 304.229 147.371 305.666C148.558 307.11 149.667 308.609 150.705 310.163C151.744 311.717 152.704 313.318 153.587 314.965C154.469 316.605 155.265 318.291 155.984 320.017C156.694 321.743 157.327 323.5 157.866 325.288C158.412 327.076 158.865 328.879 159.232 330.714C159.591 332.549 159.872 334.392 160.052 336.25C160.239 338.109 160.325 339.967 160.325 341.833Z" fill="#F1C86C"/>
<path d="M103.247 399.317C96.368 399.317 89.6061 398.091 83.1097 395.671C76.1135 393.063 69.781 389.19 64.2997 384.169C58.6231 378.969 54.1099 372.754 50.8851 365.695C47.6603 358.636 45.9191 351.156 45.7005 343.465C45.4975 336.039 46.7155 328.731 49.3313 321.735C51.9392 314.746 55.8199 308.422 60.8484 302.948C66.0565 297.279 72.2797 292.774 79.3539 289.557C86.4204 286.332 93.9084 284.591 101.607 284.38C109.041 284.169 116.365 285.388 123.369 287.995C130.365 290.611 136.698 294.484 142.179 299.505C147.855 304.705 152.369 310.92 155.593 317.979C158.818 325.038 160.559 332.518 160.778 340.209C160.981 347.635 159.763 354.943 157.147 361.939C154.531 368.928 150.659 375.245 145.63 380.726C140.422 386.395 134.199 390.9 127.125 394.117C120.058 397.342 112.57 399.083 104.871 399.294C104.332 399.31 103.786 399.317 103.247 399.317ZM103.153 285.278C95.2983 285.278 87.3261 286.918 79.7287 290.385C65.9706 296.655 55.4764 307.906 50.1824 322.055C44.8962 336.211 45.435 351.57 51.7206 365.313C61.2154 386.098 81.8135 398.388 103.325 398.388C111.18 398.388 119.152 396.756 126.75 393.289C140.508 387.019 151.002 375.768 156.296 361.619C161.582 347.463 161.044 332.104 154.758 318.354C145.263 297.576 124.657 285.278 103.153 285.278Z" fill="black"/>
<path d="M84.1716 331.854C84.5933 332.768 84.9681 333.689 85.296 334.618C85.6239 335.548 85.9128 336.469 86.1393 337.383C86.3735 338.288 86.5531 339.178 86.6781 340.037C86.8108 340.896 86.8811 341.708 86.8889 342.481C86.9045 343.254 86.8655 343.965 86.7639 344.629C86.6702 345.284 86.5141 345.87 86.3111 346.385C86.1002 346.901 85.8426 347.338 85.5381 347.689C85.2257 348.049 84.8744 348.314 84.4761 348.494C84.0857 348.673 83.6485 348.767 83.18 348.767C82.7115 348.767 82.2118 348.673 81.6886 348.494C81.1576 348.306 80.6189 348.041 80.0567 347.682C79.4945 347.33 78.9245 346.893 78.3467 346.37C77.7767 345.854 77.2067 345.269 76.6367 344.613C76.0667 343.957 75.5201 343.239 74.9813 342.466C74.4426 341.693 73.935 340.873 73.4509 340.014C72.959 339.155 72.5139 338.273 72.0923 337.359C71.6785 336.446 71.3037 335.532 70.9757 334.595C70.64 333.666 70.3589 332.752 70.1246 331.839C69.8904 330.925 69.7108 330.043 69.5859 329.184C69.4609 328.325 69.3906 327.505 69.375 326.732C69.3594 325.959 69.4063 325.249 69.5 324.593C69.6015 323.937 69.7498 323.351 69.9606 322.836C70.1637 322.313 70.4213 321.883 70.7337 321.524C71.0382 321.173 71.3896 320.899 71.7878 320.72C72.186 320.54 72.6154 320.454 73.0917 320.454C73.5602 320.454 74.06 320.54 74.5831 320.728C75.1063 320.907 75.6528 321.173 76.215 321.532C76.7772 321.891 77.3394 322.328 77.9172 322.844C78.495 323.359 79.065 323.945 79.6272 324.608C80.1972 325.264 80.7516 325.975 81.2826 326.748C81.8213 327.521 82.3367 328.341 82.8208 329.2C83.3049 330.058 83.7578 330.941 84.1716 331.854Z" fill="black"/>
<path d="M83.1722 349.228C81.6496 349.228 79.8849 348.369 78.0422 346.714C75.6529 344.574 73.3963 341.318 71.6785 337.555C69.9528 333.791 68.9768 329.949 68.9144 326.748C68.8597 323.414 69.8045 321.126 71.5926 320.314C73.3807 319.494 75.7387 320.275 78.2218 322.508C80.6033 324.655 82.8676 327.904 84.5855 331.667C86.3033 335.439 87.2871 339.272 87.3418 342.474C87.4042 345.808 86.4516 348.096 84.6635 348.916C84.2029 349.126 83.7031 349.228 83.1722 349.228ZM73.0761 320.915C72.6779 320.915 72.3109 320.986 71.9752 321.142C70.5541 321.782 69.7733 323.82 69.8279 326.732C69.8826 329.817 70.8352 333.526 72.5061 337.18C74.1693 340.834 76.3556 343.981 78.6512 346.042C80.8141 347.986 82.8676 348.728 84.2887 348.088C85.702 347.44 86.4829 345.402 86.4282 342.497C86.3735 339.413 85.4209 335.704 83.7578 332.05C82.0868 328.396 79.9005 325.249 77.6127 323.187C75.9574 321.696 74.3645 320.915 73.0761 320.915Z" fill="black"/>
<path d="M122.002 315.059C122.423 315.973 122.798 316.894 123.126 317.823C123.454 318.752 123.743 319.674 123.969 320.58C124.204 321.493 124.383 322.375 124.508 323.234C124.641 324.093 124.711 324.913 124.719 325.686C124.735 326.459 124.696 327.17 124.594 327.826C124.5 328.482 124.344 329.075 124.141 329.59C123.93 330.106 123.673 330.535 123.368 330.894C123.056 331.246 122.704 331.519 122.306 331.699C121.916 331.878 121.479 331.972 121.01 331.964C120.542 331.964 120.042 331.878 119.519 331.691C118.988 331.511 118.449 331.246 117.887 330.886C117.325 330.527 116.755 330.09 116.177 329.575C115.607 329.059 115.037 328.474 114.467 327.818C113.897 327.154 113.35 326.444 112.811 325.671C112.273 324.898 111.765 324.078 111.281 323.219C110.789 322.36 110.344 321.478 109.922 320.564C109.509 319.65 109.134 318.729 108.806 317.8C108.47 316.871 108.189 315.949 107.955 315.044C107.72 314.13 107.541 313.248 107.416 312.389C107.291 311.53 107.221 310.71 107.205 309.937C107.189 309.164 107.236 308.453 107.33 307.798C107.432 307.142 107.58 306.548 107.791 306.033C107.994 305.518 108.251 305.08 108.564 304.729C108.868 304.378 109.22 304.104 109.618 303.925C110.016 303.745 110.446 303.651 110.922 303.651C111.39 303.659 111.89 303.745 112.413 303.932C112.936 304.112 113.483 304.378 114.045 304.737C114.607 305.096 115.169 305.525 115.747 306.048C116.325 306.564 116.895 307.149 117.457 307.805C118.027 308.469 118.582 309.18 119.113 309.953C119.651 310.726 120.167 311.545 120.651 312.404C121.135 313.263 121.588 314.146 122.002 315.059Z" fill="black"/>
<path d="M121.002 332.432C119.48 332.432 117.715 331.573 115.872 329.918C113.483 327.779 111.226 324.523 109.509 320.759C107.783 316.995 106.807 313.154 106.744 309.952C106.69 306.618 107.635 304.33 109.423 303.518C111.219 302.699 113.569 303.479 116.052 305.713C118.433 307.86 120.698 311.108 122.416 314.872C124.133 318.643 125.117 322.477 125.172 325.678C125.234 329.02 124.282 331.3 122.494 332.12C122.033 332.331 121.533 332.432 121.002 332.432ZM110.906 304.12C110.508 304.12 110.141 304.19 109.805 304.346C108.384 304.994 107.603 307.024 107.658 309.937C107.713 313.021 108.665 316.73 110.336 320.384C112.007 324.038 114.186 327.185 116.481 329.247C118.644 331.191 120.698 331.933 122.119 331.292C123.532 330.644 124.313 328.606 124.266 325.702C124.204 322.617 123.259 318.908 121.588 315.254C119.917 311.6 117.731 308.453 115.443 306.392C113.787 304.9 112.195 304.12 110.906 304.12Z" fill="black"/>
<path d="M102.185 378.61C100.022 378.61 97.8829 378.423 95.7591 378.048C91.9955 377.376 88.3569 376.104 84.9369 374.277C81.3373 372.348 77.9797 369.795 74.9501 366.671C74.7784 366.492 74.7784 366.203 74.9579 366.031C75.1453 365.852 75.4264 365.859 75.606 366.039C86.8499 377.619 102.31 380.843 116.958 374.651C132.419 368.124 142.077 353.108 141.57 336.399C141.562 336.149 141.757 335.938 142.007 335.93C142.265 335.923 142.476 336.118 142.476 336.368C142.741 345.066 140.352 353.413 135.55 360.503C133.309 363.829 130.584 366.812 127.453 369.365C124.368 371.895 120.956 373.949 117.318 375.487C112.414 377.556 107.276 378.61 102.177 378.61H102.185Z" fill="black"/>
<path d="M70.71 369.998C74.372 367.913 77.0268 365.141 78.7056 361.682Z" fill="#AF7BA9"/>
<path d="M70.7108 370.451C70.5546 370.451 70.3984 370.365 70.3126 370.216C70.1876 369.998 70.2657 369.724 70.4843 369.599C74.0293 367.585 76.6606 364.852 78.3004 361.487C78.4097 361.26 78.683 361.167 78.9094 361.276C79.1358 361.385 79.2295 361.658 79.1124 361.885C77.3946 365.422 74.6383 368.28 70.9372 370.388C70.8669 370.427 70.7889 370.451 70.7108 370.451Z" fill="black"/>
<path d="M147.793 334.642C143.818 336.04 139.984 336.227 136.268 335.228Z" fill="#AF7BA9"/>
<path d="M140.999 336.305C139.359 336.305 137.743 336.094 136.15 335.665C135.908 335.603 135.76 335.353 135.83 335.111C135.892 334.869 136.142 334.728 136.384 334.791C140.007 335.759 143.794 335.571 147.644 334.213C147.878 334.135 148.136 334.26 148.222 334.494C148.308 334.728 148.183 334.986 147.948 335.072C145.606 335.899 143.279 336.305 140.999 336.305Z" fill="black"/>
<path d="M235.37 392.797C235.37 394.664 235.276 396.522 235.097 398.38C234.909 400.239 234.636 402.089 234.277 403.916C233.91 405.751 233.457 407.555 232.91 409.343C232.372 411.131 231.739 412.888 231.029 414.614C230.31 416.339 229.514 418.026 228.632 419.673C227.749 421.321 226.789 422.914 225.75 424.468C224.712 426.021 223.595 427.521 222.416 428.965C221.229 430.41 219.972 431.792 218.653 433.111C217.325 434.431 215.943 435.68 214.499 436.867C213.054 438.054 211.555 439.163 210.001 440.201C208.447 441.24 206.847 442.192 205.191 443.075C203.544 443.957 201.857 444.753 200.132 445.472C198.406 446.182 196.641 446.815 194.853 447.353C193.065 447.892 191.254 448.345 189.419 448.712C187.584 449.079 185.741 449.352 183.875 449.532C182.016 449.719 180.15 449.805 178.284 449.805C176.41 449.805 174.544 449.719 172.686 449.532C170.827 449.352 168.977 449.079 167.142 448.712C165.315 448.345 163.503 447.892 161.707 447.353C159.919 446.815 158.162 446.182 156.437 445.472C154.711 444.753 153.017 443.957 151.369 443.075C149.722 442.192 148.121 441.24 146.567 440.201C145.013 439.163 143.514 438.054 142.07 436.867C140.617 435.68 139.235 434.431 137.916 433.111C136.596 431.792 135.339 430.41 134.152 428.965C132.965 427.521 131.856 426.021 130.818 424.468C129.779 422.914 128.819 421.321 127.937 419.673C127.054 418.026 126.258 416.339 125.54 414.614C124.821 412.888 124.197 411.131 123.65 409.343C123.111 407.555 122.658 405.751 122.291 403.916C121.924 402.089 121.651 400.239 121.472 398.38C121.284 396.522 121.19 394.664 121.19 392.797C121.19 390.931 121.284 389.065 121.472 387.207C121.651 385.348 121.924 383.506 122.291 381.671C122.658 379.844 123.111 378.032 123.65 376.244C124.197 374.456 124.821 372.707 125.54 370.981C126.258 369.256 127.054 367.569 127.937 365.921C128.819 364.274 129.779 362.673 130.818 361.119C131.856 359.566 132.965 358.074 134.152 356.63C135.339 355.185 136.596 353.803 137.916 352.484C139.235 351.164 140.617 349.907 142.07 348.728C143.514 347.541 145.013 346.432 146.567 345.394C148.121 344.355 149.722 343.395 151.369 342.512C153.017 341.638 154.711 340.841 156.437 340.123C158.162 339.413 159.919 338.78 161.707 338.241C163.503 337.695 165.315 337.242 167.142 336.883C168.977 336.516 170.827 336.242 172.686 336.055C174.544 335.875 176.41 335.782 178.284 335.782C180.15 335.782 182.016 335.875 183.875 336.055C185.741 336.242 187.584 336.516 189.419 336.883C191.254 337.242 193.065 337.695 194.853 338.241C196.641 338.78 198.406 339.413 200.132 340.123C201.857 340.841 203.544 341.638 205.191 342.512C206.847 343.395 208.447 344.355 210.001 345.394C211.555 346.432 213.054 347.541 214.499 348.728C215.943 349.907 217.325 351.164 218.653 352.484C219.972 353.803 221.229 355.185 222.416 356.63C223.595 358.074 224.712 359.566 225.75 361.119C226.789 362.673 227.749 364.274 228.632 365.921C229.514 367.569 230.31 369.256 231.029 370.981C231.739 372.707 232.372 374.456 232.91 376.244C233.457 378.032 233.91 379.844 234.277 381.671C234.636 383.506 234.909 385.348 235.097 387.207C235.276 389.065 235.37 390.931 235.37 392.797Z" fill="#F37021"/>
<path d="M178.284 450.266C170.515 450.266 162.98 448.744 155.882 445.745C149.034 442.856 142.874 438.71 137.595 433.432C132.309 428.153 128.155 422.008 125.258 415.168C122.26 408.078 120.737 400.551 120.737 392.798C120.737 385.036 122.26 377.509 125.258 370.427C128.155 363.587 132.309 357.442 137.595 352.164C142.874 346.885 149.034 342.739 155.882 339.842C162.98 336.852 170.515 335.329 178.284 335.329C186.053 335.329 193.588 336.852 200.678 339.842C207.534 342.739 213.686 346.885 218.973 352.164C224.259 357.442 228.405 363.587 231.302 370.427C234.308 377.509 235.831 385.036 235.831 392.798C235.831 400.551 234.308 408.078 231.302 415.168C228.405 422.008 224.259 428.153 218.973 433.432C213.686 438.71 207.534 442.856 200.678 445.745C193.588 448.744 186.053 450.266 178.284 450.266ZM178.284 336.243C147.051 336.243 121.651 361.612 121.651 392.798C121.651 423.984 147.051 449.353 178.284 449.353C209.509 449.353 234.917 423.984 234.917 392.798C234.917 361.612 209.509 336.243 178.284 336.243Z" fill="black"/>
<path d="M165.08 375.815C165.08 376.814 165.041 377.806 164.955 378.79C164.869 379.774 164.744 380.726 164.58 381.655C164.408 382.585 164.205 383.459 163.963 384.295C163.721 385.13 163.448 385.895 163.135 386.606C162.831 387.316 162.495 387.949 162.128 388.503C161.769 389.065 161.386 389.534 160.98 389.917C160.582 390.299 160.168 390.588 159.739 390.783C159.309 390.978 158.88 391.08 158.443 391.08C158.005 391.08 157.576 390.978 157.146 390.783C156.717 390.588 156.303 390.299 155.905 389.917C155.499 389.534 155.116 389.065 154.757 388.503C154.39 387.949 154.054 387.316 153.75 386.606C153.438 385.895 153.164 385.13 152.922 384.295C152.68 383.459 152.477 382.585 152.305 381.655C152.141 380.726 152.016 379.774 151.931 378.79C151.845 377.806 151.806 376.814 151.806 375.815C151.806 374.815 151.845 373.816 151.931 372.832C152.016 371.856 152.141 370.896 152.305 369.974C152.477 369.045 152.68 368.171 152.922 367.335C153.164 366.5 153.438 365.727 153.75 365.024C154.054 364.313 154.39 363.681 154.757 363.119C155.116 362.564 155.499 362.096 155.905 361.713C156.303 361.331 156.717 361.042 157.146 360.847C157.576 360.651 158.005 360.55 158.443 360.55C158.88 360.55 159.309 360.651 159.739 360.847C160.168 361.042 160.582 361.331 160.98 361.713C161.386 362.096 161.769 362.564 162.128 363.119C162.495 363.681 162.831 364.313 163.135 365.024C163.448 365.727 163.721 366.5 163.963 367.335C164.205 368.171 164.408 369.045 164.58 369.974C164.744 370.896 164.869 371.856 164.955 372.832C165.041 373.816 165.08 374.815 165.08 375.815Z" fill="black"/>
<path d="M158.444 391.533C156.477 391.533 154.665 389.846 153.33 386.785C152.049 383.849 151.347 379.953 151.347 375.815C151.347 371.676 152.057 367.78 153.33 364.836C154.665 361.775 156.477 360.097 158.444 360.097C160.412 360.097 162.224 361.783 163.559 364.836C164.839 367.78 165.542 371.676 165.542 375.815C165.542 379.953 164.831 383.849 163.559 386.785C162.224 389.846 160.412 391.533 158.444 391.533ZM158.444 361.002C156.883 361.002 155.329 362.533 154.165 365.203C152.94 368.03 152.26 371.801 152.26 375.815C152.26 379.828 152.94 383.599 154.165 386.426C155.329 389.096 156.883 390.619 158.444 390.619C160.006 390.619 161.56 389.096 162.723 386.426C163.949 383.599 164.628 379.828 164.628 375.815C164.628 371.801 163.949 368.03 162.723 365.203C161.56 362.533 160.006 361.002 158.444 361.002Z" fill="black"/>
<path d="M206.48 376.221C206.48 377.22 206.441 378.212 206.355 379.196C206.269 380.179 206.144 381.132 205.98 382.061C205.809 382.983 205.606 383.865 205.363 384.7C205.121 385.528 204.848 386.301 204.536 387.012C204.231 387.722 203.896 388.355 203.529 388.909C203.169 389.463 202.787 389.94 202.381 390.322C201.982 390.705 201.569 390.994 201.139 391.189C200.71 391.384 200.28 391.478 199.843 391.478C199.406 391.478 198.976 391.384 198.547 391.189C198.117 390.994 197.704 390.705 197.305 390.322C196.899 389.94 196.517 389.463 196.158 388.909C195.791 388.355 195.455 387.722 195.15 387.012C194.838 386.301 194.565 385.528 194.323 384.7C194.081 383.865 193.878 382.983 193.706 382.061C193.542 381.132 193.417 380.179 193.331 379.196C193.245 378.212 193.206 377.22 193.206 376.221C193.206 375.213 193.245 374.222 193.331 373.238C193.417 372.254 193.542 371.301 193.706 370.38C193.878 369.451 194.081 368.569 194.323 367.741C194.565 366.905 194.838 366.132 195.15 365.422C195.455 364.719 195.791 364.087 196.158 363.524C196.517 362.97 196.899 362.502 197.305 362.119C197.704 361.729 198.117 361.44 198.547 361.244C198.976 361.049 199.406 360.956 199.843 360.956C200.28 360.956 200.71 361.049 201.139 361.244C201.569 361.44 201.982 361.729 202.381 362.119C202.787 362.502 203.169 362.97 203.529 363.524C203.896 364.087 204.231 364.719 204.536 365.422C204.848 366.132 205.121 366.905 205.363 367.741C205.606 368.569 205.809 369.451 205.98 370.38C206.144 371.301 206.269 372.254 206.355 373.238C206.441 374.222 206.48 375.213 206.48 376.221Z" fill="black"/>
<path d="M199.843 391.939C197.875 391.939 196.064 390.252 194.728 387.191C193.456 384.256 192.745 380.359 192.745 376.221C192.745 372.083 193.456 368.186 194.728 365.243C196.064 362.182 197.875 360.503 199.843 360.503C201.81 360.503 203.622 362.182 204.957 365.243C206.238 368.178 206.94 372.083 206.94 376.221C206.94 380.359 206.23 384.256 204.957 387.191C203.622 390.252 201.81 391.939 199.843 391.939ZM199.843 361.409C198.289 361.409 196.727 362.939 195.564 365.61C194.338 368.436 193.659 372.2 193.659 376.221C193.659 380.234 194.338 384.006 195.564 386.832C196.727 389.495 198.289 391.025 199.843 391.025C201.404 391.025 202.958 389.495 204.122 386.832C205.348 384.006 206.027 380.234 206.027 376.221C206.027 372.2 205.348 368.436 204.122 365.61C202.958 362.939 201.404 361.409 199.843 361.409Z" fill="black"/>
<path d="M178.254 429.262C177.871 429.262 177.481 429.262 177.098 429.246C169.54 429.036 162.387 426.748 156.43 422.633C153.283 420.462 150.495 417.8 148.145 414.723C145.678 411.475 143.679 407.758 142.226 403.659C142.141 403.425 142.265 403.167 142.5 403.081C142.734 402.995 142.999 403.12 143.085 403.354C148.496 418.557 161.224 427.896 177.129 428.341C193.901 428.809 208.932 419.15 215.413 403.737C215.514 403.503 215.78 403.393 216.014 403.495C216.241 403.589 216.35 403.854 216.256 404.088C212.883 412.107 207.23 418.713 199.921 423.172C196.501 425.264 192.777 426.849 188.865 427.88C185.382 428.801 181.822 429.262 178.246 429.262H178.254Z" fill="black"/>
<path d="M136.987 404.924C141.18 404.549 144.749 403.128 147.716 400.684Z" fill="#AF7BA9"/>
<path d="M136.986 405.384C136.752 405.384 136.549 405.205 136.533 404.963C136.51 404.713 136.689 404.494 136.947 404.471C141.007 404.112 144.529 402.714 147.426 400.332C147.621 400.168 147.902 400.2 148.066 400.387C148.222 400.582 148.199 400.871 148.004 401.027C144.966 403.534 141.273 405.002 137.025 405.377C137.01 405.377 137.002 405.377 136.986 405.377V405.384Z" fill="black"/>
<path d="M221.808 404.721C217.615 404.346 214.046 402.925 211.079 400.481Z" fill="#AF7BA9"/>
<path d="M221.807 405.181C221.799 405.181 221.783 405.181 221.768 405.174C217.52 404.799 213.827 403.331 210.789 400.832C210.594 400.668 210.563 400.379 210.727 400.192C210.891 399.997 211.172 399.965 211.367 400.129C214.264 402.511 217.785 403.909 221.854 404.276C222.103 404.291 222.283 404.518 222.26 404.768C222.244 405.002 222.041 405.181 221.807 405.181Z" fill="black"/>
<mask id="mask5_242_538" style="mask-type:luminance" maskUnits="userSpaceOnUse" x="2058" y="81" width="235" height="197">
<path d="M2058 81.7041H2292.84V277.726H2058V81.7041Z" fill="white"/>
</mask>
<g mask="url(#mask5_242_538)">
<mask id="mask6_242_538" style="mask-type:luminance" maskUnits="userSpaceOnUse" x="2054" y="68" width="250" height="231">
<path d="M2070.84 68.1716L2303.03 86.2758L2286.51 298.158L2054.32 280.054L2070.84 68.1716Z" fill="white"/>
</mask>
<g mask="url(#mask6_242_538)">
<mask id="mask7_242_538" style="mask-type:luminance" maskUnits="userSpaceOnUse" x="2054" y="68" width="250" height="231">
<path d="M2070.84 68.1716L2303.03 86.2758L2286.51 298.158L2054.32 280.054L2070.84 68.1716Z" fill="white"/>
</mask>
<g mask="url(#mask7_242_538)">
<mask id="mask8_242_538" style="mask-type:luminance" maskUnits="userSpaceOnUse" x="2054" y="68" width="250" height="231">
<path d="M2070.84 68.1716L2303.03 86.2758L2286.51 298.158L2054.32 280.054L2070.84 68.1716Z" fill="white"/>
</mask>
<g mask="url(#mask8_242_538)">
<path d="M2120.74 156.221L2086.19 95.6313C2081.16 86.8143 2092.27 77.7016 2099.99 84.32L2154.78 131.286L2167.59 94.062C2170.64 85.1994 2183.55 86.2608 2185.11 95.4948L2191.54 133.356L2243.72 104.63C2252.3 99.9147 2261.26 110.233 2255.34 118.011L2220.91 163.226L2285.63 180.595C2295.47 183.233 2294.15 197.539 2283.99 198.327L2216.15 203.634L2231.49 237.72C2235.08 245.688 2226.37 253.58 2218.75 249.274L2187.87 231.814L2173.81 255.528C2169.96 262.025 2160.29 261.229 2157.54 254.194L2147.93 229.502L2073.62 275.391C2064.75 280.865 2055.13 269.531 2062.03 261.73L2117.39 199.139L2094.14 183.347C2088.29 179.374 2089.05 170.565 2095.49 167.646L2120.73 156.221H2120.74Z" fill="#F1C86C"/>
</g>
</g>
</g>
</g>
<mask id="mask9_242_538" style="mask-type:luminance" maskUnits="userSpaceOnUse" x="2058" y="79" width="237" height="201">
<path d="M2058 79.7632H2294.78V279.667H2058V79.7632Z" fill="white"/>
</mask>
<g mask="url(#mask9_242_538)">
<mask id="mask10_242_538" style="mask-type:luminance" maskUnits="userSpaceOnUse" x="2054" y="68" width="250" height="231">
<path d="M2070.84 68.1711L2303.03 86.2753L2286.51 298.157L2054.32 280.053L2070.84 68.1711Z" fill="white"/>
</mask>
<g mask="url(#mask10_242_538)">
<mask id="mask11_242_538" style="mask-type:luminance" maskUnits="userSpaceOnUse" x="2054" y="68" width="250" height="231">
<path d="M2070.84 68.1711L2303.03 86.2753L2286.51 298.157L2054.32 280.053L2070.84 68.1711Z" fill="white"/>
</mask>
<g mask="url(#mask11_242_538)">
<mask id="mask12_242_538" style="mask-type:luminance" maskUnits="userSpaceOnUse" x="2054" y="68" width="250" height="231">
<path d="M2070.84 68.1711L2303.03 86.2753L2286.51 298.157L2054.32 280.053L2070.84 68.1711Z" fill="white"/>
</mask>
<g mask="url(#mask12_242_538)">
<path d="M2068.03 278.105C2067.63 278.075 2067.23 278.021 2066.84 277.938C2064.57 277.483 2062.47 276.217 2060.91 274.375C2059.35 272.54 2058.45 270.258 2058.37 267.961C2058.29 265.391 2059.21 262.935 2061.05 260.857L2115.43 199.381L2093.4 184.423C2090.26 182.292 2088.58 178.76 2088.9 174.984C2089.23 171.216 2091.48 168.024 2094.94 166.455L2118.89 155.621L2085.05 96.2752C2082.06 91.0441 2084.12 85.9267 2087.48 83.1747C2090.83 80.4227 2096.27 79.4068 2100.84 83.3263L2154.17 129.041L2166.34 93.6369C2167.16 91.2639 2168.67 89.361 2170.71 88.1328C2172.56 87.0184 2174.79 86.5105 2177.01 86.6924C2179.23 86.8744 2181.36 87.7386 2182.99 89.1412C2184.8 90.6802 2185.99 92.8105 2186.4 95.282L2192.52 131.323L2243.08 103.493C2248.17 100.687 2253.22 102.621 2255.95 105.782C2258.7 108.936 2259.89 114.19 2256.38 118.799L2223.12 162.475L2285.97 179.336C2291.81 180.898 2294.01 185.954 2293.61 190.276C2293.22 194.597 2290.12 199.161 2284.1 199.631L2218.1 204.794L2232.69 237.181C2234.56 241.343 2233.58 246.006 2230.2 249.068C2226.82 252.131 2222.07 252.654 2218.09 250.41L2188.35 233.587L2174.94 256.195C2172.91 259.622 2169.18 261.555 2165.2 261.244C2165.18 261.244 2165.17 261.244 2165.15 261.244C2161.16 260.91 2157.77 258.393 2156.32 254.671L2147.28 231.442L2074.31 276.498C2072.32 277.733 2070.17 278.279 2068.02 278.112L2068.03 278.105ZM2094.7 83.3642C2092.53 83.1974 2090.54 84.0541 2089.14 85.1913C2086.82 87.1018 2084.95 90.809 2087.33 94.9863L2122.58 156.819L2096.03 168.836C2093.44 170.011 2091.75 172.391 2091.52 175.212C2091.27 178.032 2092.53 180.67 2094.88 182.262L2119.36 198.888L2063.02 262.594C2059.96 266.051 2060.76 270.152 2062.91 272.692C2065.07 275.232 2069 276.702 2072.93 274.276L2148.57 227.56L2158.77 253.723C2159.87 256.551 2162.33 258.386 2165.37 258.636C2165.38 258.636 2165.39 258.636 2165.4 258.636C2168.42 258.871 2171.14 257.461 2172.68 254.868L2187.4 230.047L2219.39 248.136C2223 250.175 2226.43 248.955 2228.44 247.135C2230.45 245.308 2231.99 242.018 2230.29 238.25L2214.19 202.481L2283.89 197.03C2288.7 196.651 2290.73 193.028 2291 190.033C2291.28 187.038 2289.95 183.104 2285.29 181.853L2218.68 163.984L2254.29 117.222C2257.1 113.538 2255.87 109.671 2253.98 107.488C2252.07 105.297 2248.42 103.538 2244.36 105.775L2190.55 135.387L2183.82 95.7141C2183.08 91.3397 2179.57 89.5202 2176.8 89.2928C2176.79 89.2928 2176.78 89.2928 2176.78 89.2928C2174 89.0729 2170.27 90.3011 2168.83 94.486L2155.4 133.537L2099.14 85.305C2097.67 84.0541 2096.15 83.4779 2094.7 83.3642Z" fill="black"/>
</g>
</g>
</g>
</g>
<mask id="mask13_242_538" style="mask-type:luminance" maskUnits="userSpaceOnUse" x="2059" y="73" width="236" height="197">
<path d="M2059.94 73.9407H2294.78V269.963H2059.94V73.9407Z" fill="white"/>
</mask>
<g mask="url(#mask13_242_538)">
<mask id="mask14_242_538" style="mask-type:luminance" maskUnits="userSpaceOnUse" x="2054" y="68" width="250" height="231">
<path d="M2070.84 68.1711L2303.03 86.2753L2286.51 298.157L2054.32 280.053L2070.84 68.1711Z" fill="white"/>
</mask>
<g mask="url(#mask14_242_538)">
<mask id="mask15_242_538" style="mask-type:luminance" maskUnits="userSpaceOnUse" x="2054" y="68" width="250" height="231">
<path d="M2070.84 68.1711L2303.03 86.2753L2286.51 298.157L2054.32 280.053L2070.84 68.1711Z" fill="white"/>
</mask>
<g mask="url(#mask15_242_538)">
<mask id="mask16_242_538" style="mask-type:luminance" maskUnits="userSpaceOnUse" x="2054" y="68" width="250" height="231">
<path d="M2070.84 68.1711L2303.03 86.2753L2286.51 298.157L2054.32 280.053L2070.84 68.1711Z" fill="white"/>
</mask>
<g mask="url(#mask16_242_538)">
<path d="M2121.35 148.412L2086.8 87.822C2081.77 79.0049 2092.88 69.8922 2100.6 76.5107L2155.39 123.477L2168.2 86.2527C2171.25 77.3901 2184.16 78.4515 2185.72 87.6931L2192.14 125.546L2244.33 96.821C2252.91 92.1054 2261.87 102.424 2255.95 110.202L2221.51 155.424L2286.24 172.785C2296.08 175.424 2294.76 189.73 2284.6 190.526L2216.76 195.825L2232.1 229.911C2235.69 237.878 2226.98 245.771 2219.35 241.464L2188.48 224.005L2174.42 247.719C2170.57 254.216 2160.89 253.42 2158.16 246.385L2148.54 221.692L2074.23 267.582C2065.36 273.056 2055.74 261.722 2062.64 253.92L2118 191.329L2094.75 175.538C2088.9 171.565 2089.66 162.755 2096.1 159.844L2121.35 148.412Z" fill="white"/>
</g>
</g>
</g>
</g>
<mask id="mask17_242_538" style="mask-type:luminance" maskUnits="userSpaceOnUse" x="2058" y="72" width="237" height="200">
<path d="M2058 72H2294.78V271.903H2058V72Z" fill="white"/>
</mask>
<g mask="url(#mask17_242_538)">
<mask id="mask18_242_538" style="mask-type:luminance" maskUnits="userSpaceOnUse" x="2054" y="68" width="250" height="231">
<path d="M2070.84 68.1716L2303.03 86.2758L2286.51 298.158L2054.32 280.054L2070.84 68.1716Z" fill="white"/>
</mask>
<g mask="url(#mask18_242_538)">
<mask id="mask19_242_538" style="mask-type:luminance" maskUnits="userSpaceOnUse" x="2054" y="68" width="250" height="231">
<path d="M2070.84 68.1716L2303.03 86.2758L2286.51 298.158L2054.32 280.054L2070.84 68.1716Z" fill="white"/>
</mask>
<g mask="url(#mask19_242_538)">
<mask id="mask20_242_538" style="mask-type:luminance" maskUnits="userSpaceOnUse" x="2054" y="68" width="250" height="231">
<path d="M2070.84 68.1716L2303.03 86.2758L2286.51 298.158L2054.32 280.054L2070.84 68.1716Z" fill="white"/>
</mask>
<g mask="url(#mask20_242_538)">
<path d="M2068.64 270.297C2068.24 270.266 2067.84 270.213 2067.45 270.13C2065.18 269.675 2063.08 268.409 2061.52 266.567C2059.96 264.732 2059.06 262.457 2058.99 260.153C2058.89 257.583 2059.82 255.126 2061.65 253.049L2116.03 191.572L2094.01 176.615C2090.86 174.484 2089.18 170.951 2089.51 167.183C2089.83 163.408 2092.09 160.216 2095.55 158.647L2119.5 147.813L2085.66 88.4668C2082.68 83.2357 2084.72 78.1184 2088.08 75.3664C2091.44 72.6219 2096.88 71.5985 2101.45 75.518L2154.78 121.233L2166.96 85.8361C2167.77 83.4556 2169.29 81.5527 2171.33 80.3245C2173.17 79.2101 2175.4 78.6946 2177.63 78.8841C2179.84 79.066 2181.96 79.9303 2183.61 81.3328C2185.42 82.8718 2186.59 85.0022 2187.02 87.4737L2193.13 123.515L2243.7 95.6842C2248.78 92.8867 2253.82 94.8124 2256.57 97.9738C2259.31 101.128 2260.5 106.381 2256.99 110.991L2223.73 154.667L2286.58 171.527C2292.41 173.089 2294.62 178.146 2294.22 182.467C2293.82 186.789 2290.72 191.353 2284.7 191.83L2218.72 196.985L2233.29 229.38C2235.17 233.535 2234.19 238.197 2230.82 241.26C2227.43 244.323 2222.68 244.846 2218.71 242.602L2188.95 225.779L2175.55 248.387C2173.52 251.813 2169.79 253.747 2165.81 253.436C2165.79 253.436 2165.78 253.436 2165.76 253.436C2161.77 253.11 2158.38 250.585 2156.93 246.863L2147.88 223.634L2074.92 268.697C2072.93 269.925 2070.77 270.471 2068.64 270.304V270.297ZM2095.31 75.5559C2093.14 75.3891 2091.15 76.2458 2089.75 77.3906C2087.43 79.2935 2085.56 83.0007 2087.94 87.178L2123.2 149.011L2096.64 161.027C2094.06 162.202 2092.37 164.583 2092.12 167.403C2091.88 170.223 2093.14 172.862 2095.49 174.454L2119.97 191.08L2063.63 254.785C2060.57 258.242 2061.37 262.351 2063.53 264.883C2065.67 267.423 2069.61 268.894 2073.53 266.468L2149.19 219.752L2159.38 245.915C2160.48 248.743 2162.95 250.578 2165.97 250.828C2165.99 250.828 2166 250.828 2166.01 250.828C2169.03 251.063 2171.75 249.66 2173.29 247.06L2188 222.239L2220 240.328C2223.61 242.367 2227.04 241.146 2229.05 239.327C2231.06 237.5 2232.6 234.21 2230.91 230.442L2214.8 194.673L2284.5 189.222C2289.31 188.843 2291.34 185.219 2291.61 182.225C2291.89 179.238 2290.56 175.295 2285.9 174.044L2219.29 156.175L2254.9 109.414C2257.71 105.729 2256.49 101.871 2254.58 99.6796C2252.69 97.4962 2249.03 95.7297 2244.96 97.9662L2191.16 127.579L2184.43 87.9058C2183.69 83.5314 2180.19 81.7119 2177.41 81.4845C2174.64 81.257 2170.89 82.4852 2169.44 86.6777L2156 125.729L2099.74 77.4967C2098.28 76.2458 2096.76 75.6696 2095.31 75.5559Z" fill="black"/>
</g>
</g>
</g>
</g>
<mask id="mask21_242_538" style="mask-type:luminance" maskUnits="userSpaceOnUse" x="2073" y="87" width="209" height="172">
<path d="M2073.53 87.5266H2281.19V258.318H2073.53V87.5266Z" fill="white"/>
</mask>
<g mask="url(#mask21_242_538)">
<mask id="mask22_242_538" style="mask-type:luminance" maskUnits="userSpaceOnUse" x="2054" y="68" width="250" height="231">
<path d="M2070.83 68.1714L2303.03 86.2755L2286.51 298.157L2054.31 280.053L2070.83 68.1714Z" fill="white"/>
</mask>
<g mask="url(#mask22_242_538)">
<mask id="mask23_242_538" style="mask-type:luminance" maskUnits="userSpaceOnUse" x="2054" y="68" width="250" height="231">
<path d="M2070.83 68.1711L2303.02 86.2753L2286.5 298.157L2054.31 280.053L2070.83 68.1711Z" fill="white"/>
</mask>
<g mask="url(#mask23_242_538)">
<mask id="mask24_242_538" style="mask-type:luminance" maskUnits="userSpaceOnUse" x="2054" y="68" width="250" height="231">
<path d="M2070.83 68.1709L2303.02 86.275L2286.5 298.157L2054.31 280.053L2070.83 68.1709Z" fill="white"/>
</mask>
<g mask="url(#mask24_242_538)">
<path d="M2139.58 157.736L2100.04 88.4131L2161.88 141.406L2177.84 95.0012L2185.94 142.763L2244.7 110.429L2205.18 162.331L2280.86 182.633L2202.06 188.797L2219.54 227.598L2183.54 207.25L2168.11 233.276L2157.38 205.734L2074.55 256.877L2137.38 185.848L2113.42 169.578L2139.58 157.736Z" fill="#8599BA"/>
</g>
</g>
</g>
</g>
</svg>
