<svg xmlns="http://www.w3.org/2000/svg" xmlns:xlink="http://www.w3.org/1999/xlink" width="1080" zoomAndPan="magnify" viewBox="0 0 810 1012.49997" height="1350" preserveAspectRatio="xMidYMid meet" version="1.0"><defs><clipPath id="87283f1e3e"><path d="M 391 581.339844 L 432 581.339844 L 432 631 L 391 631 Z M 391 581.339844 " clip-rule="nonzero"/></clipPath><clipPath id="bd59e93500"><path d="M 350.949219 662 L 432 662 L 432 702.78125 L 350.949219 702.78125 Z M 350.949219 662 " clip-rule="nonzero"/></clipPath><clipPath id="89870f8cbf"><path d="M 391 621 L 472.390625 621 L 472.390625 702.78125 L 391 702.78125 Z M 391 621 " clip-rule="nonzero"/></clipPath><clipPath id="ee8baf0c86"><path d="M 431 662 L 472.390625 662 L 472.390625 702.78125 L 431 702.78125 Z M 431 662 " clip-rule="nonzero"/></clipPath><clipPath id="5843b9da60"><path d="M 431 662 L 472.390625 662 L 472.390625 683 L 431 683 Z M 431 662 " clip-rule="nonzero"/></clipPath><clipPath id="216ac3082c"><path d="M 350.949219 581.339844 L 392 581.339844 L 392 622 L 350.949219 622 Z M 350.949219 581.339844 " clip-rule="nonzero"/></clipPath><clipPath id="8e7ef88d2d"><path d="M 350.949219 581.339844 L 392 581.339844 L 392 631 L 350.949219 631 Z M 350.949219 581.339844 " clip-rule="nonzero"/></clipPath><clipPath id="c7e8f5b6a9"><path d="M 350.949219 621 L 392 621 L 392 663 L 350.949219 663 Z M 350.949219 621 " clip-rule="nonzero"/></clipPath><clipPath id="bb042df7df"><path d="M 350.949219 662 L 392 662 L 392 702.78125 L 350.949219 702.78125 Z M 350.949219 662 " clip-rule="nonzero"/></clipPath><clipPath id="43cf456535"><path d="M 650.167969 641 L 686.148438 641 L 686.148438 677 L 650.167969 677 Z M 650.167969 641 " clip-rule="nonzero"/></clipPath><clipPath id="71c95923fc"><path d="M 650.167969 570.457031 L 686.148438 570.457031 L 686.148438 606 L 650.167969 606 Z M 650.167969 570.457031 " clip-rule="nonzero"/></clipPath><clipPath id="bab55e4cfc"><path d="M 650.167969 588 L 669 588 L 669 606 L 650.167969 606 Z M 650.167969 588 " clip-rule="nonzero"/></clipPath><clipPath id="cb9a07d43b"><path d="M 650.167969 606 L 686.148438 606 L 686.148438 677 L 650.167969 677 Z M 650.167969 606 " clip-rule="nonzero"/></clipPath><clipPath id="e36a7c0c9d"><path d="M 650.167969 606 L 686.148438 606 L 686.148438 642 L 650.167969 642 Z M 650.167969 606 " clip-rule="nonzero"/></clipPath><clipPath id="2a0536622b"><path d="M 650.167969 606 L 669 606 L 669 624 L 650.167969 624 Z M 650.167969 606 " clip-rule="nonzero"/></clipPath><clipPath id="dbc3411101"><path d="M 650.167969 676 L 686.148438 676 L 686.148438 712.136719 L 650.167969 712.136719 Z M 650.167969 676 " clip-rule="nonzero"/></clipPath><clipPath id="3f8123d792"><path d="M 641 461.5625 L 686.269531 461.5625 L 686.269531 550.765625 L 641 550.765625 Z M 641 461.5625 " clip-rule="nonzero"/></clipPath><clipPath id="77e3d3cb25"><path d="M 619 461.5625 L 642 461.5625 L 642 506 L 619 506 Z M 619 461.5625 " clip-rule="nonzero"/></clipPath><clipPath id="e59b642e8d"><path d="M 552.835938 461.5625 L 598 461.5625 L 598 506 L 552.835938 506 Z M 552.835938 461.5625 " clip-rule="nonzero"/></clipPath><clipPath id="4550257b23"><path d="M 597 461.5625 L 642 461.5625 L 642 506 L 597 506 Z M 597 461.5625 " clip-rule="nonzero"/></clipPath><clipPath id="4e6f38cf94"><path d="M 641 461.5625 L 686.269531 461.5625 L 686.269531 506 L 641 506 Z M 641 461.5625 " clip-rule="nonzero"/></clipPath><clipPath id="7bc0e88fbd"><path d="M 394 462.515625 L 438 462.515625 L 438 505.992188 L 394 505.992188 Z M 394 462.515625 " clip-rule="nonzero"/></clipPath><clipPath id="c9e5458e1e"><path d="M 480 462.515625 L 523.359375 462.515625 L 523.359375 505.992188 L 480 505.992188 Z M 480 462.515625 " clip-rule="nonzero"/></clipPath><clipPath id="4ddc345d7c"><path d="M 480 462.515625 L 503 462.515625 L 503 485 L 480 485 Z M 480 462.515625 " clip-rule="nonzero"/></clipPath><clipPath id="65993ea7b1"><path d="M 394 462.515625 L 481 462.515625 L 481 505.992188 L 394 505.992188 Z M 394 462.515625 " clip-rule="nonzero"/></clipPath><clipPath id="0dc3310b39"><path d="M 437 462.515625 L 481 462.515625 L 481 505.992188 L 437 505.992188 Z M 437 462.515625 " clip-rule="nonzero"/></clipPath><clipPath id="fde9cff73f"><path d="M 458 462.515625 L 481 462.515625 L 481 485 L 458 485 Z M 458 462.515625 " clip-rule="nonzero"/></clipPath><clipPath id="908f24252f"><path d="M 350.945312 462.515625 L 395 462.515625 L 395 505.992188 L 350.945312 505.992188 Z M 350.945312 462.515625 " clip-rule="nonzero"/></clipPath></defs><g clip-path="url(#87283f1e3e)"><path fill="#43bb8d" d="M 391.429688 581.339844 C 413.695312 581.339844 431.910156 599.558594 431.910156 621.824219 L 401.863281 630.148438 L 391.429688 621.824219 Z M 391.429688 581.339844 " fill-opacity="1" fill-rule="evenodd"/></g><g clip-path="url(#bd59e93500)"><path fill="#3e58c9" d="M 350.949219 662.304688 L 431.910156 662.304688 L 431.910156 702.785156 L 350.949219 702.785156 Z M 350.949219 662.304688 " fill-opacity="1" fill-rule="evenodd"/></g><g clip-path="url(#89870f8cbf)"><path fill="#3e58c9" d="M 472.394531 662.304688 L 472.394531 702.785156 L 431.910156 702.785156 L 431.910156 662.304688 L 391.429688 662.304688 L 391.429688 621.824219 L 431.910156 621.824219 C 454.175781 621.824219 472.394531 640.039062 472.394531 662.304688 Z M 472.394531 662.304688 " fill-opacity="1" fill-rule="evenodd"/></g><path fill="#ff4d39" d="M 431.910156 640.609375 L 431.910156 662.304688 L 453.605469 662.304688 C 453.605469 650.371094 443.84375 640.609375 431.910156 640.609375 Z M 431.910156 640.609375 " fill-opacity="1" fill-rule="evenodd"/><g clip-path="url(#ee8baf0c86)"><path fill="#ffb803" d="M 452.152344 702.785156 L 431.910156 702.785156 L 431.910156 662.304688 L 452.152344 662.304688 C 463.285156 662.304688 472.394531 671.410156 472.394531 682.542969 L 472.394531 682.546875 C 472.394531 693.675781 463.285156 702.785156 452.152344 702.785156 Z M 452.152344 702.785156 " fill-opacity="1" fill-rule="evenodd"/></g><g clip-path="url(#5843b9da60)"><path fill="#43bb8d" d="M 431.910156 682.542969 L 431.910156 662.304688 L 452.152344 662.304688 C 463.285156 662.304688 472.394531 671.410156 472.394531 682.542969 Z M 431.910156 682.542969 " fill-opacity="1" fill-rule="evenodd"/></g><path fill="#ffffff" d="M 453.527344 670.054688 C 460.425781 670.054688 466.019531 675.644531 466.019531 682.542969 C 466.019531 689.441406 460.425781 695.035156 453.527344 695.035156 C 446.628906 695.035156 441.035156 689.441406 441.035156 682.542969 C 441.035156 675.644531 446.628906 670.054688 453.527344 670.054688 Z M 453.527344 670.054688 " fill-opacity="1" fill-rule="evenodd"/><path fill="#ffb803" d="M 431.910156 662.304688 L 431.910156 682.542969 L 411.671875 682.542969 C 400.539062 682.542969 391.429688 673.4375 391.429688 662.304688 Z M 431.910156 662.304688 " fill-opacity="1" fill-rule="evenodd"/><path fill="#ffffff" d="M 411.671875 679.226562 C 409.839844 679.226562 408.355469 680.710938 408.355469 682.542969 C 408.355469 684.375 409.839844 685.863281 411.671875 685.863281 C 413.503906 685.863281 414.988281 684.375 414.988281 682.542969 C 414.988281 680.710938 413.503906 679.226562 411.671875 679.226562 Z M 422.082031 689.636719 C 420.25 689.636719 418.765625 691.121094 418.765625 692.957031 C 418.765625 694.789062 420.25 696.273438 422.082031 696.273438 C 423.914062 696.273438 425.398438 694.789062 425.398438 692.957031 C 425.398438 691.121094 423.914062 689.636719 422.082031 689.636719 Z M 401.261719 689.636719 C 399.429688 689.636719 397.941406 691.121094 397.941406 692.957031 C 397.941406 694.789062 399.429688 696.273438 401.261719 696.273438 C 403.09375 696.273438 404.578125 694.789062 404.578125 692.957031 C 404.578125 691.121094 403.09375 689.636719 401.261719 689.636719 Z M 411.671875 689.636719 C 409.839844 689.636719 408.355469 691.121094 408.355469 692.957031 C 408.355469 694.789062 409.839844 696.273438 411.671875 696.273438 C 413.503906 696.273438 414.988281 694.789062 414.988281 692.957031 C 414.988281 691.121094 413.503906 689.636719 411.671875 689.636719 Z M 422.082031 668.816406 C 420.25 668.816406 418.765625 670.300781 418.765625 672.132812 C 418.765625 673.964844 420.25 675.453125 422.082031 675.453125 C 423.914062 675.453125 425.398438 673.964844 425.398438 672.132812 C 425.398438 670.300781 423.914062 668.816406 422.082031 668.816406 Z M 401.261719 668.816406 C 399.429688 668.816406 397.941406 670.300781 397.941406 672.132812 C 397.941406 673.964844 399.429688 675.453125 401.261719 675.453125 C 403.09375 675.453125 404.578125 673.964844 404.578125 672.132812 C 404.578125 670.300781 403.09375 668.816406 401.261719 668.816406 Z M 411.671875 668.816406 C 409.839844 668.816406 408.355469 670.300781 408.355469 672.132812 C 408.355469 673.964844 409.839844 675.453125 411.671875 675.453125 C 413.503906 675.453125 414.988281 673.964844 414.988281 672.132812 C 414.988281 670.300781 413.503906 668.816406 411.671875 668.816406 Z M 422.082031 679.226562 C 420.25 679.226562 418.765625 680.710938 418.765625 682.542969 C 418.765625 684.375 420.25 685.863281 422.082031 685.863281 C 423.914062 685.863281 425.398438 684.375 425.398438 682.542969 C 425.398438 680.710938 423.914062 679.226562 422.082031 679.226562 Z M 401.261719 679.226562 C 399.429688 679.226562 397.941406 680.710938 397.941406 682.542969 C 397.941406 684.375 399.429688 685.863281 401.261719 685.863281 C 403.09375 685.863281 404.578125 684.375 404.578125 682.542969 C 404.578125 680.710938 403.09375 679.226562 401.261719 679.226562 Z M 401.261719 679.226562 " fill-opacity="1" fill-rule="evenodd"/><path fill="#ff4d39" d="M 411.671875 634.597656 C 415.796875 634.597656 419.136719 637.9375 419.136719 642.0625 C 419.136719 646.1875 415.796875 649.53125 411.671875 649.53125 C 407.546875 649.53125 404.203125 646.1875 404.203125 642.0625 C 404.203125 637.9375 407.546875 634.597656 411.671875 634.597656 Z M 411.671875 634.597656 " fill-opacity="1" fill-rule="evenodd"/><g clip-path="url(#216ac3082c)"><path fill="#3e58c9" d="M 350.949219 581.339844 L 391.429688 581.339844 L 391.429688 621.824219 L 350.949219 621.824219 Z M 350.949219 581.339844 " fill-opacity="1" fill-rule="evenodd"/></g><g clip-path="url(#8e7ef88d2d)"><path fill="#ffb803" d="M 350.949219 581.339844 C 373.214844 581.339844 391.429688 599.558594 391.429688 621.824219 L 361.378906 630.148438 L 350.949219 621.824219 Z M 350.949219 581.339844 " fill-opacity="1" fill-rule="evenodd"/></g><g clip-path="url(#c7e8f5b6a9)"><path fill="#ffffff" d="M 350.949219 621.824219 L 391.429688 621.824219 L 391.429688 662.304688 L 350.949219 662.304688 Z M 350.949219 621.824219 " fill-opacity="1" fill-rule="evenodd"/><path fill="#ffb803" d="M 391.429688 662.304688 L 350.949219 662.304688 L 391.429688 621.824219 Z M 391.429688 662.304688 " fill-opacity="1" fill-rule="evenodd"/></g><g clip-path="url(#bb042df7df)"><path fill="#43bb8d" d="M 391.429688 662.304688 L 350.949219 662.304688 L 391.429688 702.785156 Z M 391.429688 662.304688 " fill-opacity="1" fill-rule="evenodd"/></g><g clip-path="url(#43cf456535)"><path fill="#43bb8d" d="M 686.027344 676.757812 L 650.648438 676.757812 L 650.648438 641.382812 L 686.027344 641.382812 Z M 686.027344 676.757812 " fill-opacity="1" fill-rule="evenodd"/></g><g clip-path="url(#71c95923fc)"><path fill="#43bb8d" d="M 686.027344 606 L 668.335938 606 C 668.335938 596.230469 660.417969 588.3125 650.648438 588.3125 L 650.648438 570.621094 C 670.1875 570.621094 686.027344 586.457031 686.027344 606 Z M 686.027344 606 " fill-opacity="1" fill-rule="evenodd"/></g><g clip-path="url(#bab55e4cfc)"><path fill="#1c75ff" d="M 668.335938 606 L 650.648438 606 L 650.648438 588.3125 C 660.417969 588.3125 668.335938 596.230469 668.335938 606 Z M 668.335938 606 " fill-opacity="1" fill-rule="evenodd"/></g><g clip-path="url(#cb9a07d43b)"><path fill="#1c75ff" d="M 686.027344 606 L 686.027344 659.066406 C 686.027344 668.800781 678.066406 676.757812 668.335938 676.757812 C 658.609375 676.757812 650.648438 668.800781 650.648438 659.066406 L 650.648438 606 Z M 686.027344 606 " fill-opacity="1" fill-rule="evenodd"/></g><g clip-path="url(#e36a7c0c9d)"><path fill="#febf25" d="M 686.027344 606 L 668.335938 606 C 668.335938 615.769531 660.417969 623.691406 650.648438 623.691406 L 650.648438 641.382812 C 670.1875 641.382812 686.027344 625.539062 686.027344 606 Z M 686.027344 606 " fill-opacity="1" fill-rule="evenodd"/></g><g clip-path="url(#2a0536622b)"><path fill="#43bb8d" d="M 668.335938 606 L 650.648438 606 L 650.648438 623.691406 C 660.417969 623.691406 668.335938 615.769531 668.335938 606 Z M 668.335938 606 " fill-opacity="1" fill-rule="evenodd"/></g><path fill="#87d7fe" d="M 675.707031 659.066406 C 675.707031 663.140625 672.40625 666.441406 668.335938 666.441406 C 664.265625 666.441406 660.964844 663.140625 660.964844 659.066406 C 660.964844 654.996094 664.265625 651.695312 668.335938 651.695312 C 672.40625 651.695312 675.707031 654.996094 675.707031 659.066406 Z M 675.707031 659.066406 " fill-opacity="1" fill-rule="evenodd"/><path fill="#ffffff" d="M 656.3125 694.449219 C 661.816406 696.582031 666.199219 700.964844 668.335938 706.46875 C 670.472656 700.964844 674.855469 696.582031 680.359375 694.449219 C 674.855469 692.3125 670.476562 687.929688 668.335938 682.425781 C 666.199219 687.929688 661.816406 692.3125 656.3125 694.449219 Z M 656.3125 694.449219 " fill-opacity="1" fill-rule="evenodd"/><g clip-path="url(#dbc3411101)"><path fill="#1c75ff" d="M 668.78125 712.132812 L 668.804688 712.132812 C 669.078125 712.125 669.347656 712.113281 669.621094 712.09375 L 669.621094 712.089844 C 678.367188 711.464844 685.355469 704.476562 685.980469 695.730469 L 685.984375 695.730469 C 685.988281 695.597656 686 695.460938 686.003906 695.332031 L 686.007812 695.316406 L 686.007812 695.3125 C 686.011719 695.175781 686.015625 695.03125 686.023438 694.890625 L 686.023438 694.886719 C 686.027344 694.742188 686.027344 694.589844 686.027344 694.449219 C 686.027344 694.296875 686.027344 694.152344 686.023438 694.003906 L 686.023438 693.984375 C 686.011719 693.710938 686.003906 693.4375 685.984375 693.167969 L 685.980469 693.167969 C 685.355469 684.417969 678.367188 677.429688 669.621094 676.804688 C 669.347656 676.785156 669.078125 676.773438 668.804688 676.761719 L 668.78125 676.761719 C 668.636719 676.761719 668.484375 676.757812 668.335938 676.757812 C 668.191406 676.757812 668.046875 676.761719 667.898438 676.761719 L 667.894531 676.761719 C 667.753906 676.765625 667.617188 676.773438 667.476562 676.78125 L 667.453125 676.78125 C 667.320312 676.785156 667.1875 676.796875 667.058594 676.804688 C 658.304688 677.429688 651.320312 684.417969 650.695312 693.167969 C 650.675781 693.4375 650.660156 693.710938 650.652344 693.984375 L 650.652344 694.003906 C 650.652344 694.152344 650.648438 694.296875 650.648438 694.449219 C 650.648438 694.589844 650.652344 694.742188 650.652344 694.886719 L 650.652344 694.890625 C 650.65625 695.03125 650.660156 695.175781 650.671875 695.3125 L 650.671875 695.332031 C 650.675781 695.460938 650.683594 695.597656 650.695312 695.730469 C 651.320312 704.476562 658.304688 711.464844 667.058594 712.089844 L 667.058594 712.09375 C 667.328125 712.113281 667.601562 712.125 667.875 712.132812 L 667.894531 712.132812 C 668.042969 712.136719 668.1875 712.136719 668.335938 712.136719 C 668.484375 712.136719 668.636719 712.136719 668.78125 712.132812 Z M 686.023438 694.886719 C 686.027344 694.742188 686.027344 694.589844 686.027344 694.449219 Z M 679.160156 694.449219 C 674.207031 696.371094 670.261719 700.316406 668.335938 705.273438 C 666.414062 700.316406 662.46875 696.371094 657.511719 694.449219 C 662.46875 692.523438 666.414062 688.578125 668.335938 683.621094 C 670.261719 688.578125 674.207031 692.523438 679.160156 694.449219 Z M 668.335938 676.757812 C 668.191406 676.757812 668.046875 676.761719 667.898438 676.761719 Z M 650.648438 694.449219 C 650.648438 694.589844 650.652344 694.742188 650.652344 694.886719 Z M 650.648438 694.449219 " fill-opacity="1" fill-rule="evenodd"/></g><g clip-path="url(#3f8123d792)"><path fill="#febf25" d="M 641.621094 461.597656 L 686.148438 461.597656 L 686.148438 505.988281 L 686.015625 505.988281 L 686.015625 528.183594 C 686.015625 540.394531 676.027344 550.382812 663.820312 550.382812 C 651.609375 550.382812 641.621094 540.394531 641.621094 528.183594 Z M 641.621094 461.597656 " fill-opacity="1" fill-rule="evenodd"/></g><g clip-path="url(#77e3d3cb25)"><path fill="#3e58c9" d="M 619.425781 461.597656 L 641.621094 461.597656 L 641.621094 505.988281 L 619.425781 505.988281 Z M 619.425781 461.597656 " fill-opacity="1" fill-rule="evenodd"/></g><g clip-path="url(#e59b642e8d)"><path fill="#43bb8d" d="M 597.226562 461.597656 L 575.035156 461.597656 C 562.824219 461.597656 552.835938 471.585938 552.835938 483.792969 C 552.835938 496 562.824219 505.988281 575.035156 505.988281 L 597.226562 505.988281 Z M 597.226562 461.597656 " fill-opacity="1" fill-rule="evenodd"/></g><path fill="#ffffff" d="M 575.035156 474.542969 C 569.925781 474.542969 565.785156 478.683594 565.785156 483.792969 C 565.785156 488.898438 569.925781 493.039062 575.035156 493.039062 C 580.140625 493.039062 584.28125 488.898438 584.28125 483.792969 C 584.28125 478.683594 580.140625 474.542969 575.035156 474.542969 Z M 575.035156 474.542969 " fill-opacity="1" fill-rule="evenodd"/><g clip-path="url(#4550257b23)"><path fill="#ffffff" d="M 597.226562 461.597656 L 619.425781 461.597656 C 631.632812 461.597656 641.621094 471.585938 641.621094 483.792969 C 641.621094 496 631.632812 505.988281 619.425781 505.988281 L 597.226562 505.988281 Z M 597.226562 461.597656 " fill-opacity="1" fill-rule="evenodd"/></g><path fill="#3e58c9" d="M 619.425781 474.542969 C 624.535156 474.542969 628.675781 478.683594 628.675781 483.792969 C 628.675781 488.898438 624.535156 493.039062 619.425781 493.039062 C 614.316406 493.039062 610.175781 488.898438 610.175781 483.792969 C 610.175781 478.683594 614.316406 474.542969 619.425781 474.542969 Z M 619.425781 474.542969 " fill-opacity="1" fill-rule="evenodd"/><path fill="#3e58c9" d="M 673.066406 528.183594 C 673.066406 533.292969 668.925781 537.433594 663.820312 537.433594 C 658.710938 537.433594 654.570312 533.292969 654.570312 528.183594 C 654.570312 523.074219 658.710938 518.933594 663.820312 518.933594 C 668.925781 518.933594 673.066406 523.074219 673.066406 528.183594 Z M 673.066406 528.183594 " fill-opacity="1" fill-rule="evenodd"/><path fill="#3e58c9" d="M 663.882812 498.878906 C 666.566406 491.972656 672.066406 486.476562 678.972656 483.792969 C 672.066406 481.109375 666.566406 475.609375 663.882812 468.707031 C 661.203125 475.609375 655.703125 481.109375 648.800781 483.792969 C 655.703125 486.476562 661.203125 491.972656 663.882812 498.878906 Z M 663.882812 498.878906 " fill-opacity="1" fill-rule="evenodd"/><g clip-path="url(#4e6f38cf94)"><path fill="#ffffff" d="M 686.074219 483.238281 L 686.074219 483.210938 C 686.066406 482.867188 686.050781 482.523438 686.023438 482.183594 C 685.238281 471.207031 676.46875 462.441406 665.492188 461.652344 C 665.328125 461.640625 665.160156 461.632812 664.992188 461.621094 L 664.96875 461.621094 C 664.792969 461.613281 664.617188 461.605469 664.441406 461.601562 L 664.433594 461.601562 C 664.25 461.601562 664.070312 461.597656 663.882812 461.597656 C 663.699219 461.597656 663.511719 461.601562 663.328125 461.601562 L 663.300781 461.601562 C 662.960938 461.613281 662.617188 461.628906 662.277344 461.652344 C 651.300781 462.441406 642.53125 471.207031 641.746094 482.183594 C 641.722656 482.523438 641.707031 482.867188 641.695312 483.210938 L 641.695312 483.238281 C 641.691406 483.421875 641.691406 483.609375 641.691406 483.792969 C 641.691406 483.976562 641.691406 484.15625 641.695312 484.339844 L 641.695312 484.351562 C 641.699219 484.527344 641.707031 484.703125 641.714844 484.878906 L 641.714844 484.902344 C 641.726562 485.070312 641.734375 485.234375 641.746094 485.402344 C 642.53125 496.375 651.300781 505.144531 662.277344 505.929688 C 662.617188 505.957031 662.957031 505.972656 663.300781 505.980469 L 663.328125 505.980469 C 663.511719 505.988281 663.699219 505.988281 663.882812 505.988281 C 664.070312 505.988281 664.25 505.988281 664.433594 505.980469 L 664.441406 505.980469 C 664.617188 505.976562 664.792969 505.972656 664.96875 505.960938 L 664.992188 505.960938 C 665.160156 505.953125 665.328125 505.941406 665.492188 505.929688 C 676.46875 505.144531 685.238281 496.375 686.023438 485.402344 C 686.050781 485.0625 686.066406 484.71875 686.074219 484.375 L 686.074219 484.351562 C 686.078125 484.164062 686.082031 483.980469 686.082031 483.792969 C 686.082031 483.609375 686.078125 483.421875 686.074219 483.238281 Z M 664.433594 461.601562 C 664.25 461.601562 664.070312 461.597656 663.882812 461.597656 Z M 663.882812 470.210938 C 666.300781 476.429688 671.25 481.378906 677.464844 483.792969 C 671.25 486.207031 666.300781 491.160156 663.882812 497.375 C 661.472656 491.160156 656.519531 486.207031 650.304688 483.792969 C 656.519531 481.378906 661.472656 476.429688 663.882812 470.210938 Z M 641.691406 483.792969 C 641.691406 483.976562 641.691406 484.15625 641.695312 484.339844 Z M 663.882812 505.988281 C 664.070312 505.988281 664.25 505.988281 664.433594 505.980469 Z M 663.882812 505.988281 " fill-opacity="1" fill-rule="evenodd"/></g><g clip-path="url(#7bc0e88fbd)"><path fill="#1c75ff" d="M 394.132812 505.847656 L 394.132812 462.660156 L 437.3125 462.660156 L 437.3125 505.847656 Z M 394.132812 505.847656 " fill-opacity="1" fill-rule="evenodd"/></g><g clip-path="url(#c9e5458e1e)"><path fill="#1c75ff" d="M 480.496094 505.847656 L 480.496094 484.253906 C 492.425781 484.253906 502.089844 474.585938 502.089844 462.660156 L 523.683594 462.660156 C 523.683594 486.515625 504.351562 505.847656 480.496094 505.847656 Z M 480.496094 505.847656 " fill-opacity="1" fill-rule="evenodd"/></g><g clip-path="url(#4ddc345d7c)"><path fill="#43bb8d" d="M 480.496094 484.253906 L 480.496094 462.660156 L 502.089844 462.660156 C 502.089844 474.585938 492.425781 484.253906 480.496094 484.253906 Z M 480.496094 484.253906 " fill-opacity="1" fill-rule="evenodd"/></g><g clip-path="url(#65993ea7b1)"><path fill="#43bb8d" d="M 480.496094 505.847656 L 415.722656 505.847656 C 403.84375 505.847656 394.132812 496.128906 394.132812 484.253906 C 394.132812 472.378906 403.84375 462.660156 415.722656 462.660156 L 480.496094 462.660156 Z M 480.496094 505.847656 " fill-opacity="1" fill-rule="evenodd"/></g><g clip-path="url(#0dc3310b39)"><path fill="#febf25" d="M 480.496094 505.847656 L 480.496094 484.253906 C 468.578125 484.253906 458.90625 474.585938 458.90625 462.660156 L 437.3125 462.660156 C 437.3125 486.515625 456.648438 505.847656 480.496094 505.847656 Z M 480.496094 505.847656 " fill-opacity="1" fill-rule="evenodd"/></g><g clip-path="url(#fde9cff73f)"><path fill="#1c75ff" d="M 480.496094 484.253906 L 480.496094 462.660156 L 458.90625 462.660156 C 458.90625 474.585938 468.578125 484.253906 480.496094 484.253906 Z M 480.496094 484.253906 " fill-opacity="1" fill-rule="evenodd"/></g><path fill="#87d7fe" d="M 415.722656 493.25 C 410.75 493.25 406.722656 489.222656 406.722656 484.253906 C 406.722656 479.285156 410.75 475.257812 415.722656 475.257812 C 420.691406 475.257812 424.722656 479.285156 424.722656 484.253906 C 424.722656 489.222656 420.691406 493.25 415.722656 493.25 Z M 415.722656 493.25 " fill-opacity="1" fill-rule="evenodd"/><path fill="#ffffff" d="M 372.539062 469.578125 C 369.929688 476.296875 364.582031 481.644531 357.863281 484.253906 C 364.582031 486.859375 369.929688 492.210938 372.539062 498.929688 C 375.144531 492.210938 380.496094 486.867188 387.214844 484.253906 C 380.496094 481.644531 375.144531 476.296875 372.539062 469.578125 Z M 372.539062 469.578125 " fill-opacity="1" fill-rule="evenodd"/><g clip-path="url(#908f24252f)"><path fill="#43bb8d" d="M 350.953125 484.792969 L 350.953125 484.824219 C 350.964844 485.15625 350.976562 485.484375 351 485.820312 L 351.003906 485.820312 C 351.769531 496.496094 360.292969 505.023438 370.972656 505.785156 L 370.972656 505.792969 C 371.136719 505.800781 371.300781 505.8125 371.457031 505.816406 L 371.476562 505.824219 L 371.480469 505.824219 C 371.652344 505.828125 371.828125 505.835938 372 505.839844 L 372.003906 505.839844 C 372.179688 505.847656 372.363281 505.847656 372.539062 505.847656 C 372.722656 505.847656 372.898438 505.847656 373.078125 505.839844 L 373.101562 505.839844 C 373.4375 505.828125 373.773438 505.816406 374.101562 505.792969 L 374.101562 505.785156 C 384.78125 505.023438 393.308594 496.496094 394.074219 485.820312 C 394.097656 485.484375 394.113281 485.15625 394.125 484.824219 L 394.125 484.792969 C 394.125 484.617188 394.132812 484.433594 394.132812 484.253906 C 394.132812 484.078125 394.125 483.902344 394.125 483.71875 L 394.125 483.710938 C 394.121094 483.542969 394.113281 483.371094 394.101562 483.203125 L 394.101562 483.171875 C 394.097656 483.015625 394.085938 482.847656 394.074219 482.691406 C 393.308594 472.007812 384.78125 463.480469 374.101562 462.71875 C 373.773438 462.695312 373.4375 462.675781 373.101562 462.664062 L 373.078125 462.664062 C 372.898438 462.664062 372.722656 462.660156 372.539062 462.660156 C 372.363281 462.660156 372.179688 462.664062 372.003906 462.664062 L 372 462.664062 C 371.828125 462.671875 371.652344 462.675781 371.480469 462.691406 L 371.457031 462.691406 C 371.300781 462.695312 371.136719 462.707031 370.972656 462.71875 C 360.292969 463.480469 351.769531 472.007812 351.003906 482.691406 L 351 482.691406 C 350.976562 483.019531 350.964844 483.355469 350.953125 483.6875 L 350.953125 483.710938 C 350.945312 483.894531 350.945312 484.070312 350.945312 484.253906 C 350.945312 484.433594 350.945312 484.617188 350.953125 484.792969 Z M 372.003906 505.839844 C 372.179688 505.847656 372.363281 505.847656 372.539062 505.847656 Z M 372.539062 497.464844 C 370.191406 491.417969 365.375 486.601562 359.324219 484.253906 C 365.375 481.902344 370.191406 477.089844 372.539062 471.039062 C 374.886719 477.089844 379.703125 481.902344 385.75 484.253906 C 379.703125 486.601562 374.886719 491.417969 372.539062 497.464844 Z M 394.132812 484.253906 C 394.132812 484.078125 394.125 483.902344 394.125 483.71875 Z M 372.539062 462.660156 C 372.363281 462.660156 372.179688 462.664062 372.003906 462.664062 Z M 372.539062 462.660156 " fill-opacity="1" fill-rule="evenodd"/></g></svg>