<svg width="139" height="34" viewBox="0 0 139 34" fill="none" xmlns="http://www.w3.org/2000/svg">
<g clip-path="url(#clip0_200_658)">
<path d="M40.5977 23.8776H50.5091V20.8922H44.1204V9.64734H40.5977V23.8776Z" fill="#080C2E"/>
<path d="M56.3806 21.8874C54.9676 21.8874 54.2312 20.6534 54.2312 18.8025C54.2312 16.9516 54.9676 15.6977 56.3806 15.6977C57.7937 15.6977 58.55 16.9516 58.55 18.8025C58.55 20.6534 57.7937 21.8874 56.3806 21.8874ZM56.4005 24.1961C59.6844 24.1961 61.8339 21.8675 61.8339 18.8025C61.8339 15.7375 59.6844 13.4089 56.4005 13.4089C53.1365 13.4089 50.9473 15.7375 50.9473 18.8025C50.9473 21.8675 53.1365 24.1961 56.4005 24.1961Z" fill="#080C2E"/>
<path d="M67.5188 27.4004C69.0313 27.4004 70.3648 27.062 71.2604 26.2659C72.0764 25.5295 72.6138 24.415 72.6138 22.8825V13.6876H69.509V14.7822H69.4692C68.8721 13.9264 67.9566 13.389 66.6032 13.389C64.0756 13.389 62.3242 15.4987 62.3242 18.4841C62.3242 21.6087 64.4538 23.3204 66.7426 23.3204C67.9765 23.3204 68.7527 22.8228 69.3498 22.1461H69.4294V23.1611C69.4294 24.3951 68.8522 25.1116 67.479 25.1116C66.4042 25.1116 65.8669 24.6538 65.6877 24.1165H62.5431C62.8616 26.246 64.7125 27.4004 67.5188 27.4004ZM67.4989 20.9122C66.2848 20.9122 65.4887 19.917 65.4887 18.3846C65.4887 16.8322 66.2848 15.837 67.4989 15.837C68.8522 15.837 69.5687 16.9914 69.5687 18.3646C69.5687 19.7976 68.9119 20.9122 67.4989 20.9122Z" fill="#080C2E"/>
<path d="M78.9978 21.8874C77.5847 21.8874 76.8484 20.6534 76.8484 18.8025C76.8484 16.9516 77.5847 15.6977 78.9978 15.6977C80.4109 15.6977 81.1672 16.9516 81.1672 18.8025C81.1672 20.6534 80.4109 21.8874 78.9978 21.8874ZM79.0177 24.1961C82.3016 24.1961 84.4513 21.8675 84.4513 18.8025C84.4513 15.7375 82.3016 13.4089 79.0177 13.4089C75.7537 13.4089 73.5645 15.7375 73.5645 18.8025C73.5645 21.8675 75.7537 24.1961 79.0177 24.1961Z" fill="#080C2E"/>
<path d="M85.3984 23.8776H88.6425V13.6875H85.3984V23.8776ZM85.3984 12.2745H88.6425V9.64734H85.3984V12.2745Z" fill="#080C2E"/>
<path d="M90.0488 27.2411H93.2929V22.8228H93.3327C93.9696 23.6786 94.905 24.1961 96.2186 24.1961C98.8855 24.1961 100.657 22.0864 100.657 18.7826C100.657 15.7176 99.0049 13.389 96.2982 13.389C94.905 13.389 93.9099 14.006 93.2133 14.9215H93.1536V13.6876H90.0488V27.2411ZM95.3827 21.6884C93.9895 21.6884 93.1934 20.5539 93.1934 18.902C93.1934 17.2501 93.9099 15.9963 95.323 15.9963C96.7161 15.9963 97.3729 17.1506 97.3729 18.902C97.3729 20.6335 96.6166 21.6884 95.3827 21.6884Z" fill="#080C2E"/>
<path d="M105.94 24.1961C108.607 24.1961 110.577 23.0417 110.577 20.8126C110.577 18.2054 108.468 17.7477 106.676 17.4491C105.383 17.2103 104.228 17.1108 104.228 16.3943C104.228 15.7574 104.845 15.4589 105.642 15.4589C106.537 15.4589 107.154 15.7375 107.274 16.653H110.259C110.1 14.6429 108.547 13.389 105.661 13.389C103.253 13.389 101.263 14.5036 101.263 16.653C101.263 19.0413 103.154 19.519 104.925 19.8175C106.278 20.0564 107.512 20.1559 107.512 21.0714C107.512 21.7282 106.895 22.0864 105.92 22.0864C104.845 22.0864 104.169 21.5888 104.049 20.5738H100.984C101.084 22.8228 102.955 24.1961 105.94 24.1961Z" fill="#080C2E"/>
<path d="M114.983 24.1762C116.396 24.1762 117.292 23.6189 118.028 22.6238H118.088V23.8777H121.192V13.6876H117.948V19.3797C117.948 20.5938 117.272 21.4297 116.157 21.4297C115.122 21.4297 114.625 20.8127 114.625 19.6982V13.6876H111.4V20.3748C111.4 22.6437 112.634 24.1762 114.983 24.1762Z" fill="#080C2E"/>
<path d="M122.604 23.8776H125.848V18.1656C125.848 16.9516 126.445 16.0958 127.46 16.0958C128.435 16.0958 128.893 16.7326 128.893 17.8273V23.8776H132.137V18.1656C132.137 16.9516 132.714 16.0958 133.749 16.0958C134.724 16.0958 135.182 16.7326 135.182 17.8273V23.8776H138.426V17.2501C138.426 14.9613 137.272 13.389 134.963 13.389C133.649 13.389 132.555 13.9463 131.759 15.1803H131.719C131.201 14.0856 130.186 13.389 128.853 13.389C127.38 13.389 126.405 14.0856 125.768 15.1405H125.708V13.6876H122.604V23.8776Z" fill="#080C2E"/>
<path fill-rule="evenodd" clip-rule="evenodd" d="M7.44602 3.22713C6.25962 4.05669 5.1868 5.03751 4.25549 6.14161C8.06125 5.78829 12.8963 6.36523 18.5098 9.17199C24.5043 12.1691 29.3313 12.2705 32.6906 11.6225C32.3858 10.6996 32.002 9.8126 31.5475 8.9694C27.7019 9.375 22.7719 8.83813 17.0264 5.96546C13.378 4.14124 10.1619 3.38978 7.44602 3.22713ZM29.3011 5.77197C26.2642 2.37889 21.8509 0.24353 16.9388 0.24353C15.4963 0.24353 14.0967 0.427717 12.7624 0.773831C14.5695 1.26692 16.4893 1.9883 18.5098 2.99858C22.7164 5.10182 26.3481 5.77902 29.3011 5.77197ZM33.4089 14.8619C29.3504 15.6633 23.7461 15.4987 17.0264 12.1389C10.7442 8.99776 5.74412 9.03732 2.37187 9.78673C2.19781 9.82537 2.02784 9.86601 1.86198 9.9083C1.42047 10.8685 1.06804 11.8782 0.815171 12.9268C1.08525 12.8546 1.36434 12.786 1.65228 12.722C5.7434 11.8129 11.5238 11.8524 18.5098 15.3454C24.7921 18.4865 29.7922 18.4469 33.1645 17.6975C33.28 17.6719 33.3939 17.6454 33.5058 17.618C33.5181 17.3565 33.5242 17.0934 33.5242 16.8289C33.5242 16.1634 33.4851 15.507 33.4089 14.8619ZM32.9643 21.1181C28.9452 21.8207 23.5042 21.5511 17.0264 18.3123C10.7442 15.1712 5.74412 15.2107 2.37187 15.9601C1.62333 16.1264 0.949958 16.329 0.355945 16.5429C0.354326 16.638 0.353516 16.7333 0.353516 16.8289C0.353516 25.9887 7.77902 33.4142 16.9388 33.4142C24.6155 33.4142 31.074 28.1989 32.9643 21.1181Z" fill="#080C2E"/>
</g>
<defs>
<clipPath id="clip0_200_658">
<rect width="138.488" height="34" fill="white" transform="translate(0.269531)"/>
</clipPath>
</defs>
</svg>
