<svg width="155" height="34" viewBox="0 0 155 34" fill="none" xmlns="http://www.w3.org/2000/svg">
<path d="M45.3789 22.6914C45.3789 23.4336 45.2265 24.0039 44.9218 24.4023C44.625 24.8008 44.1289 25 43.4336 25C42.7773 25 42.3125 24.8008 42.039 24.4023C41.7734 24.0039 41.6406 23.4336 41.6406 22.6914V10.3047C41.6406 9.5625 41.7734 8.99219 42.039 8.59375C42.3125 8.19531 42.7773 7.99609 43.4336 7.99609C44.1289 7.99609 44.625 8.19531 44.9218 8.59375C45.2265 8.99219 45.3789 9.5625 45.3789 10.3047V22.6914Z" fill="#080C2E"/>
<path d="M46.5137 19.0938C46.5137 18.2656 46.6465 17.4844 46.9122 16.75C47.1856 16.0078 47.5918 15.3594 48.1309 14.8047C48.6778 14.25 49.3575 13.8086 50.17 13.4805C50.9903 13.1523 51.9512 12.9883 53.0528 12.9883C54.1075 12.9883 55.0411 13.1406 55.8536 13.4453C56.6661 13.75 57.3497 14.1758 57.9043 14.7227C58.459 15.2617 58.8809 15.9062 59.17 16.6562C59.459 17.3984 59.6036 18.2109 59.6036 19.0938C59.6036 19.9141 59.4668 20.6914 59.1934 21.4258C58.92 22.1523 58.5098 22.793 57.9629 23.3477C57.4161 23.8945 56.7325 24.332 55.9122 24.6602C55.0918 24.9805 54.1387 25.1406 53.0528 25.1406C51.9825 25.1406 51.0372 24.9883 50.2168 24.6836C49.4043 24.3711 48.7208 23.9453 48.1661 23.4062C47.6192 22.8594 47.2051 22.2188 46.9239 21.4844C46.6504 20.7422 46.5137 19.9453 46.5137 19.0938ZM50.4161 19.0938C50.4161 19.6094 50.4629 20.1016 50.5567 20.5703C50.6504 21.0312 50.7989 21.4375 51.002 21.7891C51.2129 22.1406 51.4864 22.4219 51.8223 22.6328C52.1583 22.8359 52.5684 22.9375 53.0528 22.9375C53.4981 22.9375 53.8848 22.8438 54.2129 22.6562C54.5489 22.4688 54.8223 22.207 55.0333 21.8711C55.252 21.5352 55.4161 21.1328 55.5254 20.6641C55.6348 20.1875 55.6895 19.6641 55.6895 19.0938C55.6895 18.5781 55.6387 18.0898 55.5372 17.6289C55.4434 17.1602 55.2911 16.75 55.0801 16.3984C54.8692 16.0391 54.5958 15.7578 54.2598 15.5547C53.9317 15.3438 53.5293 15.2383 53.0528 15.2383C52.5762 15.2383 52.17 15.3398 51.834 15.543C51.4981 15.7461 51.2247 16.0234 51.0137 16.375C50.8028 16.7266 50.6504 17.1367 50.5567 17.6055C50.4629 18.0742 50.4161 18.5703 50.4161 19.0938Z" fill="#080C2E"/>
<path d="M69.2227 22.7383C69.0117 23.1289 68.7539 23.4609 68.4492 23.7344C68.1524 24.0078 67.8203 24.2344 67.4532 24.4141C67.0938 24.5859 66.7071 24.7148 66.293 24.8008C65.8867 24.8789 65.4688 24.918 65.0391 24.918C64.3203 24.918 63.6641 24.7891 63.0703 24.5312C62.4766 24.2734 61.9649 23.9023 61.5352 23.418C61.1133 22.9258 60.7852 22.3242 60.5508 21.6133C60.3164 20.9023 60.1992 20.0898 60.1992 19.1758C60.1992 18.3164 60.3086 17.5117 60.5274 16.7617C60.7461 16.0117 61.0625 15.3594 61.4766 14.8047C61.8985 14.25 62.4141 13.8125 63.0235 13.4922C63.6328 13.1719 64.3282 13.0117 65.1094 13.0117C66 13.0117 66.7891 13.1836 67.4766 13.5273C68.1719 13.8711 68.7696 14.4336 69.2696 15.2148V14.9102C69.2696 14.3477 69.4219 13.9258 69.7266 13.6445C70.0391 13.3555 70.4688 13.2109 71.0157 13.2109C71.3438 13.2109 71.6211 13.2656 71.8477 13.375C72.0742 13.4766 72.2539 13.6328 72.3867 13.8438C72.5196 14.0469 72.6133 14.3008 72.668 14.6055C72.7305 14.9023 72.7617 15.2422 72.7617 15.625V23.4766C72.7617 24.4297 72.6407 25.2812 72.3985 26.0312C72.1641 26.7812 71.7969 27.4141 71.2969 27.9297C70.7969 28.4453 70.1563 28.8359 69.375 29.1016C68.5938 29.375 67.6641 29.5117 66.586 29.5117C65.8282 29.5117 65.1563 29.4766 64.5703 29.4062C63.9922 29.3438 63.4922 29.2461 63.0703 29.1133C62.6485 28.9648 62.3282 28.8008 62.1094 28.6211C61.8985 28.4414 61.793 28.207 61.793 27.918C61.793 27.7539 61.8164 27.5977 61.8633 27.4492C61.9102 27.3008 61.9805 27.168 62.0742 27.0508C62.1758 26.9414 62.3047 26.8516 62.461 26.7812C62.625 26.7188 62.8242 26.6875 63.0586 26.6875C63.3086 26.6875 63.5586 26.7031 63.8086 26.7344C64.0664 26.7656 64.3321 26.7969 64.6055 26.8281C64.8867 26.8672 65.1797 26.9023 65.4844 26.9336C65.7969 26.9648 66.1328 26.9805 66.4922 26.9805C66.9219 26.9805 67.3047 26.9375 67.6407 26.8516C67.9766 26.7656 68.2617 26.6133 68.4961 26.3945C68.7305 26.1758 68.9102 25.8828 69.0352 25.5156C69.1602 25.1562 69.2227 24.6953 69.2227 24.1328V22.7383ZM69.2227 19.0938C69.2227 18.5234 69.1797 18.0039 69.0938 17.5352C69.0157 17.0664 68.8789 16.668 68.6836 16.3398C68.4883 16.0039 68.2266 15.7461 67.8985 15.5664C67.5703 15.3789 67.1602 15.2852 66.668 15.2852C66.1836 15.2852 65.7813 15.3828 65.461 15.5781C65.1485 15.7734 64.8985 16.043 64.711 16.3867C64.5235 16.7305 64.3907 17.1328 64.3125 17.5938C64.2422 18.0547 64.2071 18.5469 64.2071 19.0703C64.2071 20.2656 64.418 21.1641 64.8399 21.7656C65.2617 22.3672 65.875 22.668 66.6797 22.668C67.0547 22.6602 67.3946 22.5898 67.6992 22.457C68.0117 22.3164 68.2813 22.1016 68.5078 21.8125C68.7344 21.5234 68.9102 21.1562 69.0352 20.7109C69.1602 20.2656 69.2227 19.7266 69.2227 19.0938Z" fill="#080C2E"/>
<path d="M73.8379 19.0938C73.8379 18.2656 73.9707 17.4844 74.2363 16.75C74.5098 16.0078 74.916 15.3594 75.4551 14.8047C76.002 14.25 76.6816 13.8086 77.4941 13.4805C78.3145 13.1523 79.2754 12.9883 80.377 12.9883C81.4316 12.9883 82.3652 13.1406 83.1777 13.4453C83.9902 13.75 84.6738 14.1758 85.2285 14.7227C85.7832 15.2617 86.2051 15.9062 86.4941 16.6562C86.7832 17.3984 86.9277 18.2109 86.9277 19.0938C86.9277 19.9141 86.791 20.6914 86.5176 21.4258C86.2441 22.1523 85.834 22.793 85.2871 23.3477C84.7402 23.8945 84.0566 24.332 83.2363 24.6602C82.416 24.9805 81.4629 25.1406 80.377 25.1406C79.3066 25.1406 78.3613 24.9883 77.541 24.6836C76.7285 24.3711 76.0449 23.9453 75.4902 23.4062C74.9434 22.8594 74.5293 22.2188 74.248 21.4844C73.9746 20.7422 73.8379 19.9453 73.8379 19.0938ZM77.7402 19.0938C77.7402 19.6094 77.7871 20.1016 77.8809 20.5703C77.9746 21.0312 78.123 21.4375 78.3262 21.7891C78.5371 22.1406 78.8105 22.4219 79.1465 22.6328C79.4824 22.8359 79.8926 22.9375 80.377 22.9375C80.8223 22.9375 81.209 22.8438 81.5371 22.6562C81.873 22.4688 82.1465 22.207 82.3574 21.8711C82.5762 21.5352 82.7402 21.1328 82.8496 20.6641C82.959 20.1875 83.0137 19.6641 83.0137 19.0938C83.0137 18.5781 82.9629 18.0898 82.8613 17.6289C82.7676 17.1602 82.6152 16.75 82.4043 16.3984C82.1934 16.0391 81.9199 15.7578 81.584 15.5547C81.2559 15.3438 80.8535 15.2383 80.377 15.2383C79.9004 15.2383 79.4941 15.3398 79.1582 15.543C78.8223 15.7461 78.5488 16.0234 78.3379 16.375C78.127 16.7266 77.9746 17.1367 77.8809 17.6055C77.7871 18.0742 77.7402 18.5703 77.7402 19.0938Z" fill="#080C2E"/>
<path d="M91.9531 9.03906C91.9531 9.29688 91.8945 9.52734 91.7773 9.73047C91.6601 9.92578 91.5078 10.0898 91.3203 10.2227C91.1328 10.3555 90.914 10.457 90.664 10.5273C90.4219 10.5898 90.1719 10.6211 89.914 10.6211C89.6406 10.6211 89.3789 10.5859 89.1289 10.5156C88.8867 10.4453 88.6719 10.3438 88.4844 10.2109C88.2969 10.0703 88.1484 9.90234 88.039 9.70703C87.9297 9.51172 87.875 9.28906 87.875 9.03906C87.875 8.8125 87.9258 8.60547 88.0273 8.41797C88.1367 8.22266 88.2812 8.05469 88.4609 7.91406C88.6406 7.77344 88.8555 7.66406 89.1055 7.58594C89.3555 7.50781 89.6289 7.46875 89.9258 7.46875C90.1836 7.46875 90.4336 7.50391 90.6758 7.57422C90.9258 7.64453 91.1445 7.74609 91.332 7.87891C91.5195 8.01172 91.668 8.17578 91.7773 8.37109C91.8945 8.56641 91.9531 8.78906 91.9531 9.03906ZM91.7773 22.6914C91.7773 23.4336 91.625 24.0039 91.3203 24.4023C91.0234 24.8008 90.5273 25 89.832 25C89.1758 25 88.7109 24.8008 88.4375 24.4023C88.1719 24.0039 88.039 23.4336 88.039 22.6914V15.5195C88.039 14.7773 88.1719 14.207 88.4375 13.8086C88.7109 13.4102 89.1758 13.2109 89.832 13.2109C90.5273 13.2109 91.0234 13.4102 91.3203 13.8086C91.625 14.207 91.7773 14.7773 91.7773 15.5195V22.6914Z" fill="#080C2E"/>
<path d="M97.166 19.0703C97.166 19.5938 97.205 20.082 97.2832 20.5352C97.3691 20.9883 97.5097 21.3867 97.705 21.7305C97.9082 22.0664 98.1738 22.332 98.5019 22.5273C98.8378 22.7227 99.2519 22.8203 99.7441 22.8203C100.197 22.8203 100.576 22.7266 100.881 22.5391C101.193 22.3438 101.443 22.0781 101.631 21.7422C101.818 21.3984 101.951 20.9961 102.029 20.5352C102.115 20.0742 102.158 19.5742 102.158 19.0352C102.158 18.6055 102.127 18.168 102.064 17.7227C102.002 17.2695 101.885 16.8594 101.713 16.4922C101.541 16.125 101.303 15.8242 100.998 15.5898C100.693 15.3555 100.295 15.2383 99.8027 15.2383C99.3105 15.2383 98.8925 15.3164 98.5488 15.4727C98.2128 15.6289 97.9394 15.8672 97.7285 16.1875C97.5253 16.5078 97.3808 16.9102 97.2949 17.3945C97.2089 17.8711 97.166 18.4297 97.166 19.0703ZM97.1543 15.5195C97.3496 15.1055 97.5996 14.7422 97.9043 14.4297C98.2089 14.1172 98.5449 13.8555 98.9121 13.6445C99.2793 13.4336 99.6621 13.2773 100.061 13.1758C100.467 13.0664 100.869 13.0117 101.267 13.0117C101.986 13.0117 102.635 13.1719 103.213 13.4922C103.791 13.8125 104.283 14.25 104.689 14.8047C105.103 15.3516 105.42 16 105.639 16.75C105.857 17.4922 105.967 18.2891 105.967 19.1406C105.967 20.0234 105.849 20.832 105.615 21.5664C105.389 22.3008 105.064 22.9336 104.642 23.4648C104.228 23.9883 103.728 24.3984 103.142 24.6953C102.564 24.9922 101.92 25.1406 101.209 25.1406C100.334 25.1406 99.5527 24.9375 98.8652 24.5312C98.1777 24.125 97.6074 23.5547 97.1543 22.8203V27.0391C97.1543 27.7812 97.0019 28.3516 96.6972 28.75C96.4003 29.1484 95.9043 29.3477 95.2089 29.3477C94.5527 29.3477 94.0878 29.1484 93.8144 28.75C93.5488 28.3516 93.416 27.7812 93.416 27.0391V15.5195C93.416 14.7773 93.5488 14.207 93.8144 13.8086C94.0878 13.4102 94.5527 13.2109 95.2089 13.2109C95.9043 13.2109 96.4003 13.4102 96.6972 13.8086C97.0019 14.207 97.1543 14.7773 97.1543 15.5195Z" fill="#080C2E"/>
<path d="M110.09 16.3516C110.09 16.6562 110.223 16.8945 110.488 17.0664C110.754 17.2305 111.121 17.3672 111.59 17.4766C112.035 17.5781 112.492 17.6758 112.961 17.7695C113.43 17.8633 113.887 17.9727 114.332 18.0977C114.777 18.2148 115.195 18.3555 115.586 18.5195C115.976 18.6836 116.32 18.8906 116.617 19.1406C116.914 19.3828 117.148 19.6797 117.32 20.0312C117.492 20.375 117.578 20.7891 117.578 21.2734C117.578 21.8828 117.453 22.4258 117.203 22.9023C116.953 23.3711 116.598 23.7695 116.137 24.0977C115.684 24.4258 115.141 24.6797 114.508 24.8594C113.875 25.0391 113.176 25.1328 112.41 25.1406C111.684 25.1406 110.984 25.0938 110.312 25C109.641 24.9141 109.043 24.7773 108.519 24.5898C108.004 24.4023 107.59 24.1719 107.277 23.8984C106.965 23.6172 106.809 23.2891 106.809 22.9141C106.809 22.5859 106.914 22.332 107.125 22.1523C107.336 21.9727 107.605 21.8828 107.934 21.8828C108.059 21.8828 108.207 21.9062 108.379 21.9531C108.551 22 108.738 22.0586 108.941 22.1289C109.144 22.1992 109.359 22.2773 109.586 22.3633C109.82 22.4414 110.062 22.5117 110.312 22.5742C110.625 22.6602 110.945 22.7305 111.273 22.7852C111.609 22.832 111.953 22.8555 112.305 22.8555C112.523 22.8555 112.738 22.8359 112.949 22.7969C113.16 22.75 113.348 22.6836 113.512 22.5977C113.684 22.5039 113.824 22.3867 113.934 22.2461C114.043 22.1055 114.109 21.9336 114.133 21.7305C114.156 21.6836 114.176 21.6367 114.191 21.5898C114.207 21.543 114.215 21.4883 114.215 21.4258C114.215 21.207 114.113 21.0117 113.91 20.8398C113.715 20.668 113.437 20.5312 113.078 20.4297C112.476 20.2891 111.902 20.1602 111.355 20.043C110.809 19.9258 110.301 19.8008 109.832 19.668C109.371 19.5352 108.949 19.3828 108.566 19.2109C108.191 19.0391 107.871 18.8281 107.605 18.5781C107.348 18.3281 107.144 18.0273 106.996 17.6758C106.855 17.3242 106.785 16.8984 106.785 16.3984C106.785 15.8594 106.906 15.3789 107.148 14.957C107.398 14.5273 107.754 14.168 108.215 13.8789C108.676 13.5898 109.234 13.3711 109.891 13.2227C110.547 13.0664 111.289 12.9883 112.117 12.9883C113.601 12.9883 114.73 13.168 115.504 13.5273C116.285 13.8789 116.676 14.3398 116.676 14.9102C116.676 15.2305 116.57 15.4766 116.359 15.6484C116.148 15.8125 115.894 15.8945 115.598 15.8945C115.441 15.8945 115.277 15.8672 115.105 15.8125C114.941 15.75 114.742 15.6836 114.508 15.6133C114.273 15.5352 113.992 15.4688 113.664 15.4141C113.344 15.3516 112.945 15.3203 112.469 15.3203C112.109 15.3203 111.781 15.3359 111.484 15.3672C111.195 15.3984 110.945 15.4531 110.734 15.5312C110.531 15.6094 110.371 15.7148 110.254 15.8477C110.144 15.9805 110.09 16.1484 110.09 16.3516Z" fill="#080C2E"/>
<path d="M122.334 20.6523C122.334 21.0195 122.381 21.3398 122.475 21.6133C122.576 21.8867 122.713 22.1172 122.885 22.3047C123.057 22.4844 123.256 22.6211 123.482 22.7148C123.717 22.8008 123.967 22.8438 124.232 22.8438C124.545 22.8438 124.846 22.7969 125.135 22.7031C125.424 22.6094 125.678 22.4648 125.897 22.2695C126.123 22.0742 126.303 21.8281 126.436 21.5312C126.568 21.2344 126.635 20.8867 126.635 20.4883V15.5195C126.635 14.7773 126.768 14.207 127.033 13.8086C127.307 13.4102 127.772 13.2109 128.428 13.2109C129.123 13.2109 129.619 13.4102 129.916 13.8086C130.221 14.207 130.373 14.7773 130.373 15.5195V22.6914C130.373 23.4336 130.221 24.0039 129.916 24.4023C129.619 24.8008 129.123 25 128.428 25C127.772 25 127.307 24.8008 127.033 24.4023C126.768 24.0039 126.635 23.4336 126.635 22.6914C126.471 23.0508 126.256 23.3789 125.99 23.6758C125.732 23.9727 125.428 24.2305 125.076 24.4492C124.732 24.6602 124.35 24.8242 123.928 24.9414C123.514 25.0586 123.064 25.1172 122.58 25.1172C122.057 25.1172 121.553 25.0273 121.068 24.8477C120.592 24.6602 120.17 24.3867 119.803 24.0273C119.436 23.6602 119.143 23.207 118.924 22.668C118.705 22.1289 118.596 21.5 118.596 20.7812V15.5195C118.596 14.7773 118.729 14.207 118.994 13.8086C119.268 13.4102 119.732 13.2109 120.389 13.2109C121.084 13.2109 121.58 13.4102 121.877 13.8086C122.182 14.207 122.334 14.7773 122.334 15.5195V20.6523Z" fill="#080C2E"/>
<path d="M132.07 15.5195C132.07 14.7773 132.203 14.207 132.469 13.8086C132.742 13.4102 133.207 13.2109 133.863 13.2109C134.559 13.2109 135.055 13.4102 135.352 13.8086C135.656 14.207 135.809 14.7773 135.809 15.5195C135.965 15.1445 136.176 14.8047 136.442 14.5C136.715 14.1875 137.024 13.9219 137.367 13.7031C137.719 13.4844 138.098 13.3164 138.504 13.1992C138.91 13.0742 139.332 13.0117 139.77 13.0117C140.176 13.0117 140.574 13.0664 140.965 13.1758C141.363 13.2773 141.731 13.4453 142.067 13.6797C142.41 13.9062 142.711 14.1953 142.969 14.5469C143.227 14.8984 143.426 15.3203 143.567 15.8125C143.809 15.2891 144.094 14.8477 144.422 14.4883C144.75 14.1289 145.106 13.8398 145.488 13.6211C145.871 13.4023 146.27 13.2461 146.684 13.1523C147.106 13.0586 147.527 13.0117 147.949 13.0117C148.449 13.0117 148.926 13.1016 149.379 13.2812C149.84 13.4609 150.242 13.7344 150.586 14.1016C150.938 14.4609 151.215 14.918 151.418 15.4727C151.629 16.0195 151.734 16.6602 151.734 17.3945V22.6914C151.734 23.4336 151.582 24.0039 151.277 24.4023C150.981 24.8008 150.484 25 149.789 25C149.133 25 148.668 24.8008 148.395 24.4023C148.129 24.0039 147.996 23.4336 147.996 22.6914V17.5586C147.996 17.207 147.949 16.8945 147.856 16.6211C147.762 16.3398 147.629 16.1055 147.457 15.918C147.293 15.7227 147.098 15.5781 146.871 15.4844C146.645 15.3828 146.402 15.332 146.145 15.332C145.824 15.332 145.52 15.3828 145.231 15.4844C144.942 15.5859 144.688 15.7422 144.469 15.9531C144.258 16.1641 144.086 16.4336 143.953 16.7617C143.828 17.0898 143.766 17.4844 143.766 17.9453V22.6914C143.766 23.4336 143.613 24.0039 143.309 24.4023C143.012 24.8008 142.516 25 141.82 25C141.164 25 140.699 24.8008 140.426 24.4023C140.16 24.0039 140.027 23.4336 140.027 22.6914V17.7812C140.027 16.9766 139.859 16.3672 139.524 15.9531C139.195 15.5391 138.746 15.332 138.176 15.332C137.84 15.332 137.527 15.3867 137.238 15.4961C136.949 15.6055 136.699 15.7656 136.488 15.9766C136.277 16.1875 136.109 16.4492 135.984 16.7617C135.867 17.0742 135.809 17.4336 135.809 17.8398V22.6914C135.809 23.4336 135.656 24.0039 135.352 24.4023C135.055 24.8008 134.559 25 133.863 25C133.207 25 132.742 24.8008 132.469 24.4023C132.203 24.0039 132.07 23.4336 132.07 22.6914V15.5195Z" fill="#080C2E"/>
<path d="M17.2695 23C13.9558 23 11.2695 20.3137 11.2695 17C11.2695 13.6863 13.9558 11 17.2695 11C20.5832 11 23.2695 13.6863 23.2695 17C23.2695 20.3137 20.5832 23 17.2695 23Z" fill="#080C2E"/>
<path d="M5.64655 19.0496C3.9078 19.3562 2.71598 21.0358 3.38343 22.6704C4.31527 24.9524 5.8019 26.9856 7.72921 28.5744C10.4851 30.8461 13.9611 32.06 17.5321 31.9977C21.1031 31.9354 24.5347 30.6009 27.2097 28.2343C29.0803 26.5793 30.4951 24.4954 31.3468 22.1823C31.9568 20.5254 30.707 18.8884 28.9586 18.6427C27.2103 18.397 25.6405 19.6696 24.7769 21.2096C24.3088 22.0443 23.7011 22.8016 22.9731 23.4457C21.4383 24.8036 19.4694 25.5692 17.4206 25.605C15.3717 25.6407 13.3773 24.9443 11.7961 23.6408C11.046 23.0225 10.4123 22.2869 9.91534 21.469C8.99855 19.9601 7.3853 18.743 5.64655 19.0496Z" fill="#080C2E"/>
<path d="M32.1535 18.8745C32.2301 18.2604 32.2695 17.6348 32.2695 17C32.2695 8.71573 25.5538 2 17.2695 2C8.98526 2 2.26953 8.71573 2.26953 17C2.26953 17.8147 2.33448 18.6142 2.45949 19.3937C3.14847 18.4505 4.22379 17.7772 5.38529 17.5724C6.64198 17.3508 7.78411 17.6556 8.7498 18.2253C8.69275 17.8251 8.66323 17.416 8.66323 17C8.66323 12.2469 12.5164 8.3937 17.2695 8.3937C22.0226 8.3937 25.8758 12.2469 25.8758 17C25.8758 17.3134 25.859 17.6229 25.8264 17.9276C26.7717 17.3243 27.9027 16.9796 29.1666 17.1573C30.3342 17.3214 31.432 17.9564 32.1535 18.8745Z" fill="#080C2E"/>
</svg>
