<svg width="142" height="34" viewBox="0 0 142 34" fill="none" xmlns="http://www.w3.org/2000/svg">
<g clip-path="url(#clip0_200_669)">
<path d="M43.2793 24.3168H53.1907V21.3314H46.802V10.0865H43.2793V24.3168Z" fill="#640EF1"/>
<path d="M59.0623 22.3266C57.6492 22.3266 56.9128 21.0926 56.9128 19.2417C56.9128 17.3908 57.6492 16.1369 59.0623 16.1369C60.4753 16.1369 61.2316 17.3908 61.2316 19.2417C61.2316 21.0926 60.4753 22.3266 59.0623 22.3266ZM59.0822 24.6353C62.3661 24.6353 64.5155 22.3067 64.5155 19.2417C64.5155 16.1767 62.3661 13.8481 59.0822 13.8481C55.8182 13.8481 53.6289 16.1767 53.6289 19.2417C53.6289 22.3067 55.8182 24.6353 59.0822 24.6353Z" fill="#640EF1"/>
<path d="M70.2004 27.8396C71.713 27.8396 73.0464 27.5012 73.9421 26.7051C74.7581 25.9687 75.2954 24.8542 75.2954 23.3217V14.1268H72.1906V15.2214H72.1508C71.5538 14.3656 70.6383 13.8282 69.2849 13.8282C66.7573 13.8282 65.0059 15.9379 65.0059 18.9233C65.0059 22.048 67.1354 23.7596 69.4242 23.7596C70.6582 23.7596 71.4343 23.262 72.0314 22.5853H72.111V23.6003C72.111 24.8343 71.5339 25.5508 70.1606 25.5508C69.0859 25.5508 68.5485 25.093 68.3694 24.5557H65.2248C65.5432 26.6852 67.3942 27.8396 70.2004 27.8396ZM70.1805 21.3514C68.9664 21.3514 68.1703 20.3562 68.1703 18.8238C68.1703 17.2714 68.9664 16.2762 70.1805 16.2762C71.5339 16.2762 72.2503 17.4306 72.2503 18.8039C72.2503 20.2368 71.5936 21.3514 70.1805 21.3514Z" fill="#640EF1"/>
<path d="M81.6795 22.3266C80.2664 22.3266 79.53 21.0926 79.53 19.2417C79.53 17.3908 80.2664 16.1369 81.6795 16.1369C83.0925 16.1369 83.8485 17.3908 83.8485 19.2417C83.8485 21.0926 83.0925 22.3266 81.6795 22.3266ZM81.6994 24.6353C84.9829 24.6353 87.1324 22.3067 87.1324 19.2417C87.1324 16.1767 84.9829 13.8481 81.6994 13.8481C78.4354 13.8481 76.2461 16.1767 76.2461 19.2417C76.2461 22.3067 78.4354 24.6353 81.6994 24.6353Z" fill="#640EF1"/>
<path d="M88.0801 24.3168H91.3242V14.1267H88.0801V24.3168ZM88.0801 12.7137H91.3242V10.0865H88.0801V12.7137Z" fill="#640EF1"/>
<path d="M92.7305 27.6803H95.9746V23.262H96.0144C96.6512 24.1178 97.5867 24.6353 98.9002 24.6353C101.567 24.6353 103.338 22.5256 103.338 19.2218C103.338 16.1568 101.687 13.8282 98.9798 13.8282C97.5867 13.8282 96.5915 14.4452 95.895 15.3607H95.8352V14.1268H92.7305V27.6803ZM98.0643 22.1276C96.6712 22.1276 95.8751 20.9931 95.8751 19.3412C95.8751 17.6893 96.5915 16.4355 98.0046 16.4355C99.3978 16.4355 100.055 17.5898 100.055 19.3412C100.055 21.0727 99.2983 22.1276 98.0643 22.1276Z" fill="#640EF1"/>
<path d="M108.62 24.6353C111.287 24.6353 113.257 23.4809 113.257 21.2519C113.257 18.6446 111.147 18.1869 109.356 17.8883C108.063 17.6495 106.908 17.55 106.908 16.8335C106.908 16.1966 107.525 15.8981 108.321 15.8981C109.217 15.8981 109.834 16.1767 109.953 17.0922H112.939C112.779 15.0821 111.227 13.8282 108.341 13.8282C105.933 13.8282 103.943 14.9428 103.943 17.0922C103.943 19.4805 105.833 19.9582 107.605 20.2567C108.958 20.4956 110.192 20.5951 110.192 21.5106C110.192 22.1674 109.575 22.5256 108.6 22.5256C107.525 22.5256 106.848 22.0281 106.729 21.013H103.664C103.764 23.262 105.634 24.6353 108.62 24.6353Z" fill="#640EF1"/>
<path d="M117.664 24.6153C119.078 24.6153 119.973 24.058 120.71 23.0629H120.769V24.3168H123.874V14.1267H120.63V19.8188C120.63 21.0329 119.953 21.8688 118.839 21.8688C117.804 21.8688 117.306 21.2518 117.306 20.1372V14.1267H114.082V20.8139C114.082 23.0828 115.316 24.6153 117.664 24.6153Z" fill="#640EF1"/>
<path d="M125.285 24.3168H128.529V18.6048C128.529 17.3908 129.126 16.535 130.141 16.535C131.117 16.535 131.574 17.1719 131.574 18.2665V24.3168H134.818V18.6048C134.818 17.3908 135.396 16.535 136.431 16.535C137.406 16.535 137.863 17.1719 137.863 18.2665V24.3168H141.108V17.6893C141.108 15.4005 139.953 13.8282 137.645 13.8282C136.331 13.8282 135.236 14.3855 134.44 15.6195H134.4C133.883 14.5248 132.868 13.8282 131.535 13.8282C130.062 13.8282 129.087 14.5248 128.45 15.5797H128.39V14.1268H125.285V24.3168Z" fill="#640EF1"/>
<path fill-rule="evenodd" clip-rule="evenodd" d="M17.4252 33.4388C26.5851 33.4388 34.0105 26.0132 34.0105 16.8534C34.0105 7.69358 26.5851 0.268066 17.4252 0.268066C8.26535 0.268066 0.839844 7.69358 0.839844 16.8534C0.839844 26.0132 8.26535 33.4388 17.4252 33.4388ZM19.9851 13.0824C21.3989 11.6686 21.3989 9.37638 19.9851 7.96256C18.5713 6.54876 16.2791 6.54876 14.8653 7.96256C13.4516 9.37638 13.4516 11.6686 14.8653 13.0824L17.4252 15.6423L19.9851 13.0824ZM21.1963 19.4133C22.6101 20.8272 24.9023 20.8272 26.3161 19.4133C27.7298 17.9995 27.7298 15.7073 26.3161 14.2935C24.9023 12.8798 22.6101 12.8798 21.1963 14.2935L18.6364 16.8535L21.1963 19.4133ZM19.9851 25.7443C21.3989 24.3305 21.3989 22.0383 19.9851 20.6245L17.4252 18.0646L14.8653 20.6245C13.4516 22.0383 13.4516 24.3305 14.8653 25.7443C16.2791 27.1581 18.5713 27.1581 19.9851 25.7443ZM8.53432 19.4133C7.12055 17.9995 7.12055 15.7073 8.53432 14.2935C9.94816 12.8798 12.2403 12.8798 13.6542 14.2935L16.214 16.8535L13.6542 19.4133C12.2403 20.8272 9.94816 20.8272 8.53432 19.4133Z" fill="#640EF1"/>
</g>
<defs>
<clipPath id="clip0_200_669">
<rect width="140.976" height="34" fill="white" transform="translate(0.755859)"/>
</clipPath>
</defs>
</svg>
