<svg width="142" height="34" viewBox="0 0 142 34" fill="none" xmlns="http://www.w3.org/2000/svg">
<g clip-path="url(#clip0_200_680)">
<path d="M43.7383 23.334H53.6497V20.3486H47.261V9.10376H43.7383V23.334Z" fill="#080C2E"/>
<path d="M59.5213 21.3437C58.1082 21.3437 57.3718 20.1097 57.3718 18.2588C57.3718 16.4079 58.1082 15.154 59.5213 15.154C60.9343 15.154 61.6906 16.4079 61.6906 18.2588C61.6906 20.1097 60.9343 21.3437 59.5213 21.3437ZM59.5412 23.6524C62.8251 23.6524 64.9745 21.3238 64.9745 18.2588C64.9745 15.1938 62.8251 12.8652 59.5412 12.8652C56.2772 12.8652 54.0879 15.1938 54.0879 18.2588C54.0879 21.3238 56.2772 23.6524 59.5412 23.6524Z" fill="#080C2E"/>
<path d="M70.6594 26.8567C72.172 26.8567 73.5054 26.5183 74.401 25.7222C75.217 24.9858 75.7544 23.8713 75.7544 22.3388V13.1439H72.6496V14.2385H72.6098C72.0127 13.3827 71.0972 12.8453 69.7439 12.8453C67.2163 12.8453 65.4648 14.955 65.4648 17.9404C65.4648 21.065 67.5944 22.7767 69.8832 22.7767C71.1171 22.7767 71.8933 22.2791 72.4904 21.6024H72.57V22.6174C72.57 23.8514 71.9928 24.5679 70.6196 24.5679C69.5448 24.5679 69.0075 24.1101 68.8284 23.5728H65.6838C66.0022 25.7023 67.8531 26.8567 70.6594 26.8567ZM70.6395 20.3685C69.4254 20.3685 68.6293 19.3733 68.6293 17.8408C68.6293 16.2885 69.4254 15.2933 70.6395 15.2933C71.9928 15.2933 72.7093 16.4477 72.7093 17.8209C72.7093 19.2539 72.0525 20.3685 70.6395 20.3685Z" fill="#080C2E"/>
<path d="M82.1384 21.3437C80.7254 21.3437 79.989 20.1097 79.989 18.2588C79.989 16.4079 80.7254 15.154 82.1384 15.154C83.5515 15.154 84.3078 16.4079 84.3078 18.2588C84.3078 20.1097 83.5515 21.3437 82.1384 21.3437ZM82.1583 23.6524C85.4423 23.6524 87.5917 21.3238 87.5917 18.2588C87.5917 15.1938 85.4423 12.8652 82.1583 12.8652C78.8943 12.8652 76.7051 15.1938 76.7051 18.2588C76.7051 21.3238 78.8943 23.6524 82.1583 23.6524Z" fill="#080C2E"/>
<path d="M88.5391 23.334H91.7832V13.144H88.5391V23.334ZM88.5391 11.7309H91.7832V9.10376H88.5391V11.7309Z" fill="#080C2E"/>
<path d="M93.1914 26.6974H96.4355V22.2791H96.4753C97.1122 23.1349 98.0476 23.6524 99.3612 23.6524C102.028 23.6524 103.799 21.5427 103.799 18.2389C103.799 15.1739 102.148 12.8453 99.4408 12.8453C98.0476 12.8453 97.0525 13.4623 96.3559 14.3778H96.2962V13.1439H93.1914V26.6974ZM98.5253 21.1447C97.1321 21.1447 96.336 20.0102 96.336 18.3583C96.336 16.7064 97.0525 15.4526 98.4655 15.4526C99.8587 15.4526 100.515 16.6069 100.515 18.3583C100.515 20.0898 99.7592 21.1447 98.5253 21.1447Z" fill="#080C2E"/>
<path d="M109.081 23.6524C111.748 23.6524 113.718 22.498 113.718 20.2689C113.718 17.6617 111.608 17.204 109.817 16.9054C108.523 16.6666 107.369 16.5671 107.369 15.8506C107.369 15.2137 107.986 14.9152 108.782 14.9152C109.678 14.9152 110.295 15.1938 110.414 16.1093H113.4C113.24 14.0992 111.688 12.8453 108.802 12.8453C106.394 12.8453 104.404 13.9599 104.404 16.1093C104.404 18.4976 106.294 18.9753 108.066 19.2738C109.419 19.5127 110.653 19.6122 110.653 20.5277C110.653 21.1845 110.036 21.5427 109.061 21.5427C107.986 21.5427 107.309 21.0451 107.19 20.0301H104.125C104.225 22.2791 106.095 23.6524 109.081 23.6524Z" fill="#080C2E"/>
<path d="M118.125 23.6325C119.538 23.6325 120.434 23.0752 121.17 22.0801H121.23V23.334H124.335V13.1439H121.091V18.836C121.091 20.0501 120.414 20.886 119.3 20.886C118.265 20.886 117.767 20.269 117.767 19.1545V13.1439H114.543V19.8311C114.543 22.1 115.777 23.6325 118.125 23.6325Z" fill="#080C2E"/>
<path d="M125.744 23.3339H128.988V17.6219C128.988 16.4079 129.585 15.5521 130.6 15.5521C131.576 15.5521 132.033 16.1889 132.033 17.2836V23.3339H135.277V17.6219C135.277 16.4079 135.855 15.5521 136.89 15.5521C137.865 15.5521 138.322 16.1889 138.322 17.2836V23.3339H141.567V16.7064C141.567 14.4176 140.412 12.8453 138.104 12.8453C136.79 12.8453 135.695 13.4026 134.899 14.6366H134.859C134.342 13.5419 133.327 12.8453 131.994 12.8453C130.521 12.8453 129.546 13.5419 128.909 14.5968H128.849V13.1439H125.744V23.3339Z" fill="#080C2E"/>
<path fill-rule="evenodd" clip-rule="evenodd" d="M17.8842 33.2852C27.0441 33.2852 34.4696 25.8597 34.4696 16.6998C34.4696 7.54003 27.0441 0.114502 17.8842 0.114502C8.72434 0.114502 1.29883 7.54003 1.29883 16.6998C1.29883 25.8597 8.72434 33.2852 17.8842 33.2852ZM23.0583 7.84066C23.3101 6.94606 22.442 6.41705 21.6491 6.98192L10.5809 14.8668C9.72106 15.4794 9.85631 16.6998 10.7841 16.6998H13.6986V16.6773H19.379L14.7506 18.3104L12.7102 25.5591C12.4583 26.4537 13.3264 26.9827 14.1193 26.4178L25.1875 18.5329C26.0474 17.9204 25.912 16.6998 24.9843 16.6998H20.5645L23.0583 7.84066Z" fill="#080C2E"/>
</g>
<defs>
<clipPath id="clip0_200_680">
<rect width="140.976" height="34" fill="white" transform="translate(0.732422)"/>
</clipPath>
</defs>
</svg>
